<svg width="200" height="200" viewBox="0 0 200 200" fill="none" xmlns="http://www.w3.org/2000/svg">
<rect width="200" height="200" fill="#D9D9D9"/>
<path d="M89.0005 135.552V144H45.3525V135.552H89.0005ZM41.6405 77.696L64.5525 62.72H74.1525V144H63.6565V72.96L64.5525 73.344L46.1205 84.864L41.6405 77.696ZM140.563 71.296H113.683C112.915 71.296 112.531 71.7227 112.531 72.576V134.144C112.531 134.997 112.915 135.424 113.683 135.424H140.563C141.331 135.424 141.715 134.997 141.715 134.144V72.576C141.715 71.7227 141.331 71.296 140.563 71.296ZM101.779 130.176V76.544C101.779 71.2533 103.101 67.4987 105.747 65.28C108.392 62.976 112.488 61.824 118.035 61.824H136.083C141.715 61.824 145.853 62.976 148.499 65.28C151.144 67.4987 152.467 71.2533 152.467 76.544V130.176C152.467 135.467 151.144 139.264 148.499 141.568C145.853 143.787 141.715 144.896 136.083 144.896H118.035C112.488 144.896 108.392 143.787 105.747 141.568C103.101 139.264 101.779 135.467 101.779 130.176Z" fill="black"/>
<path d="M89.0005 135.552H90.0005V134.552H89.0005V135.552ZM89.0005 144V145H90.0005V144H89.0005ZM45.3525 144H44.3525V145H45.3525V144ZM45.3525 135.552V134.552H44.3525V135.552H45.3525ZM41.6405 77.696L41.0934 76.8589L40.2732 77.3951L40.7925 78.226L41.6405 77.696ZM64.5525 62.72V61.72H64.2547L64.0054 61.8829L64.5525 62.72ZM74.1525 62.72H75.1525V61.72H74.1525V62.72ZM74.1525 144V145H75.1525V144H74.1525ZM63.6565 144H62.6565V145H63.6565V144ZM63.6565 72.96L64.0504 72.0409L62.6565 71.4435V72.96H63.6565ZM64.5525 73.344L65.0825 74.192L66.7044 73.1783L64.9464 72.4248L64.5525 73.344ZM46.1205 84.864L45.2725 85.394L45.8025 86.242L46.6505 85.712L46.1205 84.864ZM88.0005 135.552V144H90.0005V135.552H88.0005ZM89.0005 143H45.3525V145H89.0005V143ZM46.3525 144V135.552H44.3525V144H46.3525ZM45.3525 136.552H89.0005V134.552H45.3525V136.552ZM42.1876 78.5331L65.0996 63.557L64.0054 61.8829L41.0934 76.8589L42.1876 78.5331ZM64.5525 63.72H74.1525V61.72H64.5525V63.72ZM73.1525 62.72V144H75.1525V62.72H73.1525ZM74.1525 143H63.6565V145H74.1525V143ZM64.6565 144V72.96H62.6565V144H64.6565ZM63.2626 73.8791L64.1586 74.2631L64.9464 72.4248L64.0504 72.0409L63.2626 73.8791ZM64.0225 72.496L45.5905 84.016L46.6505 85.712L65.0825 74.192L64.0225 72.496ZM46.9685 84.334L42.4885 77.166L40.7925 78.226L45.2725 85.394L46.9685 84.334ZM105.747 65.28L106.389 66.0462L106.396 66.0402L106.403 66.0341L105.747 65.28ZM148.499 65.28L147.842 66.0341L147.849 66.0402L147.856 66.0462L148.499 65.28ZM148.499 141.568L149.141 142.334L149.148 142.328L149.155 142.322L148.499 141.568ZM105.747 141.568L105.09 142.322L105.097 142.328L105.104 142.334L105.747 141.568ZM140.563 70.296H113.683V72.296H140.563V70.296ZM113.683 70.296C113.116 70.296 112.515 70.4583 112.075 70.947C111.653 71.4157 111.531 72.0197 111.531 72.576H113.531C113.531 72.279 113.6 72.2429 113.562 72.285C113.542 72.307 113.523 72.3149 113.526 72.3137C113.535 72.3104 113.581 72.296 113.683 72.296V70.296ZM111.531 72.576V134.144H113.531V72.576H111.531ZM111.531 134.144C111.531 134.7 111.653 135.304 112.075 135.773C112.515 136.262 113.116 136.424 113.683 136.424V134.424C113.581 134.424 113.535 134.41 113.526 134.406C113.523 134.405 113.542 134.413 113.562 134.435C113.6 134.477 113.531 134.441 113.531 134.144H111.531ZM113.683 136.424H140.563V134.424H113.683V136.424ZM140.563 136.424C141.129 136.424 141.73 136.262 142.17 135.773C142.592 135.304 142.715 134.7 142.715 134.144H140.715C140.715 134.441 140.645 134.477 140.683 134.435C140.703 134.413 140.722 134.405 140.719 134.406C140.71 134.41 140.664 134.424 140.563 134.424V136.424ZM142.715 134.144V72.576H140.715V134.144H142.715ZM142.715 72.576C142.715 72.0197 142.592 71.4157 142.17 70.947C141.73 70.4583 141.129 70.296 140.563 70.296V72.296C140.664 72.296 140.71 72.3104 140.719 72.3137C140.722 72.3149 140.703 72.307 140.683 72.285C140.645 72.2429 140.715 72.279 140.715 72.576H142.715ZM102.779 130.176V76.544H100.779V130.176H102.779ZM102.779 76.544C102.779 71.3904 104.069 67.9923 106.389 66.0462L105.104 64.5138C102.134 67.0051 100.779 71.1163 100.779 76.544H102.779ZM106.403 66.0341C108.786 63.9584 112.596 62.824 118.035 62.824V60.824C112.379 60.824 107.997 61.9936 105.09 64.5259L106.403 66.0341ZM118.035 62.824H136.083V60.824H118.035V62.824ZM136.083 62.824C141.611 62.824 145.461 63.9603 147.842 66.0341L149.155 64.5259C146.246 61.9917 141.818 60.824 136.083 60.824V62.824ZM147.856 66.0462C150.176 67.9923 151.467 71.3904 151.467 76.544H153.467C153.467 71.1163 152.111 67.0051 149.141 64.5138L147.856 66.0462ZM151.467 76.544V130.176H153.467V76.544H151.467ZM151.467 130.176C151.467 135.326 150.178 138.779 147.842 140.814L149.155 142.322C152.11 139.749 153.467 135.608 153.467 130.176H151.467ZM147.856 140.802C145.474 142.8 141.618 143.896 136.083 143.896V145.896C141.811 145.896 146.232 144.774 149.141 142.334L147.856 140.802ZM136.083 143.896H118.035V145.896H136.083V143.896ZM118.035 143.896C112.589 143.896 108.773 142.801 106.389 140.802L105.104 142.334C108.01 144.772 112.386 145.896 118.035 145.896V143.896ZM106.403 140.814C104.067 138.779 102.779 135.326 102.779 130.176H100.779C100.779 135.608 102.135 139.749 105.09 142.322L106.403 140.814Z" fill="#ED7676"/>
</svg>
