<svg width="200" height="200" viewBox="0 0 200 200" fill="none" xmlns="http://www.w3.org/2000/svg">
<rect width="200" height="200" fill="white"/>
<path d="M73.6875 69.25C72.0208 74.4167 70.7917 78.625 70 81.875C68.875 86.5 68.0208 91.6042 67.4375 97.1875C66.8542 102.771 66.5625 109.5 66.5625 117.375C66.5625 123.042 67.0625 127.958 68.0625 132.125C68.9375 135.708 70.3958 139 72.4375 142C72.6458 142.25 72.75 142.521 72.75 142.812C72.75 143.104 72.5208 143.375 72.0625 143.625C71.1042 143.833 70.1875 144.042 69.3125 144.25C68.4792 144.458 67.5208 144.771 66.4375 145.188C65.3958 145.604 64.4583 146.042 63.625 146.5C62.7917 147 62.2292 147.333 61.9375 147.5L61.625 147.688L61.0625 147.812C60.7292 147.812 60.4792 147.583 60.3125 147.125C59.6875 145.792 59.1875 143.125 58.8125 139.125C58.4792 135.083 58.3125 131.083 58.3125 127.125C58.3125 120 59.125 111.708 60.75 102.25C62.375 92.7917 64.4375 84 66.9375 75.875C65.6875 77.5 64.2917 78.8958 62.75 80.0625C60.7083 81.6042 58.7708 82.375 56.9375 82.375C55.5625 82.375 54.3125 81.9583 53.1875 81.125C52.1042 80.2917 51.5625 79.1875 51.5625 77.8125C51.5625 77.0625 51.6042 76.4375 51.6875 75.9375C51.8125 75.4375 52.2292 74.9375 52.9375 74.4375L53.4375 74.75C54.1875 75.6667 54.7292 76.2083 55.0625 76.375C55.6875 76.7083 56.4375 76.875 57.3125 76.875C59.8542 76.875 62.25 75.5833 64.5 73C64.7917 72.6667 66.2708 70.5 68.9375 66.5C69.2708 65.9583 69.7292 65.7917 70.3125 66C70.9792 66.25 71.5625 66.5 72.0625 66.75C72.6042 67 73.0417 67.2708 73.375 67.5625C73.7083 67.8542 73.875 68.1667 73.875 68.5C73.875 68.75 73.8125 69 73.6875 69.25ZM150.438 106C150.438 116.833 147.396 126.458 141.312 134.875C134.979 143.625 127.438 148 118.688 148C110.229 148 103.5 144.625 98.5 137.875C93.5417 131.083 91.0625 121.958 91.0625 110.5C91.0625 104.042 92.4375 97.5 95.1875 90.875C97.4375 85.4167 100.021 81.1667 102.938 78.125C103.562 77.5 103.979 77.2917 104.188 77.5C104.396 77.7083 104.5 77.9583 104.5 78.25C104.5 78.5 104.479 78.6875 104.438 78.8125C104.354 79.0625 104.271 79.2917 104.188 79.5C102.688 82.9583 101.458 86.9167 100.5 91.375C99.5417 95.8333 99.0625 100.125 99.0625 104.25C99.0625 115.917 101.083 125.354 105.125 132.562C109.167 139.771 114.479 143.375 121.062 143.375C127.229 143.375 132.146 140.833 135.812 135.75C139.979 129.958 142.062 121.417 142.062 110.125C142.062 98.4167 139.854 88.5417 135.438 80.5C131.188 72.75 126.188 68.875 120.438 68.875C115.188 68.875 112.562 71 112.562 75.25C112.562 76.2917 112.875 77.1667 113.5 77.875C114.167 78.5417 114.938 78.875 115.812 78.875C116.438 78.875 116.979 78.6458 117.438 78.1875C117.854 77.6042 118.146 77.1875 118.312 76.9375C118.479 76.6875 118.708 76.5625 119 76.5625C119.25 76.5625 119.438 76.7708 119.562 77.1875C119.729 77.6042 119.812 78.2708 119.812 79.1875C119.812 79.4792 119.75 80.125 119.625 81.125C119.5 82.0833 118.875 83.0625 117.75 84.0625C116.625 85.0208 115.396 85.5 114.062 85.5C111.979 85.5 110.25 84.6667 108.875 83C107.5 81.2917 106.812 79.1667 106.812 76.625C106.812 73.625 108.25 71.1458 111.125 69.1875C114.042 67.2292 117.479 66.25 121.438 66.25C129.604 66.25 136.479 70.0833 142.062 77.75C147.646 85.4167 150.438 94.8333 150.438 106Z" fill="black"/>
</svg>
