<svg width="200" height="200" viewBox="0 0 200 200" fill="none" xmlns="http://www.w3.org/2000/svg">
<rect width="200" height="200" fill="#D9D9D9"/>
<path d="M96.938 135.552V144H53.29V135.552H96.938ZM49.578 77.696L72.49 62.72H82.09V144H71.594V72.96L72.49 73.344L54.058 84.864L49.578 77.696ZM151.188 135.552V144H107.54V135.552H151.188ZM103.828 77.696L126.74 62.72H136.34V144H125.844V72.96L126.74 73.344L108.308 84.864L103.828 77.696Z" fill="black"/>
<path d="M96.938 135.552H97.938V134.552H96.938V135.552ZM96.938 144V145H97.938V144H96.938ZM53.29 144H52.29V145H53.29V144ZM53.29 135.552V134.552H52.29V135.552H53.29ZM49.578 77.696L49.0309 76.8589L48.2107 77.3951L48.73 78.226L49.578 77.696ZM72.49 62.72V61.72H72.1922L71.9429 61.8829L72.49 62.72ZM82.09 62.72H83.09V61.72H82.09V62.72ZM82.09 144V145H83.09V144H82.09ZM71.594 144H70.594V145H71.594V144ZM71.594 72.96L71.9879 72.0409L70.594 71.4435V72.96H71.594ZM72.49 73.344L73.02 74.192L74.6419 73.1783L72.8839 72.4248L72.49 73.344ZM54.058 84.864L53.21 85.394L53.74 86.242L54.588 85.712L54.058 84.864ZM95.938 135.552V144H97.938V135.552H95.938ZM96.938 143H53.29V145H96.938V143ZM54.29 144V135.552H52.29V144H54.29ZM53.29 136.552H96.938V134.552H53.29V136.552ZM50.1251 78.5331L73.0371 63.557L71.9429 61.8829L49.0309 76.8589L50.1251 78.5331ZM72.49 63.72H82.09V61.72H72.49V63.72ZM81.09 62.72V144H83.09V62.72H81.09ZM82.09 143H71.594V145H82.09V143ZM72.594 144V72.96H70.594V144H72.594ZM71.2001 73.8791L72.0961 74.2631L72.8839 72.4248L71.9879 72.0409L71.2001 73.8791ZM71.96 72.496L53.528 84.016L54.588 85.712L73.02 74.192L71.96 72.496ZM54.906 84.334L50.426 77.166L48.73 78.226L53.21 85.394L54.906 84.334ZM151.188 135.552H152.188V134.552H151.188V135.552ZM151.188 144V145H152.188V144H151.188ZM107.54 144H106.54V145H107.54V144ZM107.54 135.552V134.552H106.54V135.552H107.54ZM103.828 77.696L103.281 76.8589L102.461 77.3951L102.98 78.226L103.828 77.696ZM126.74 62.72V61.72H126.442L126.193 61.8829L126.74 62.72ZM136.34 62.72H137.34V61.72H136.34V62.72ZM136.34 144V145H137.34V144H136.34ZM125.844 144H124.844V145H125.844V144ZM125.844 72.96L126.238 72.0409L124.844 71.4435V72.96H125.844ZM126.74 73.344L127.27 74.192L128.892 73.1783L127.134 72.4248L126.74 73.344ZM108.308 84.864L107.46 85.394L107.99 86.242L108.838 85.712L108.308 84.864ZM150.188 135.552V144H152.188V135.552H150.188ZM151.188 143H107.54V145H151.188V143ZM108.54 144V135.552H106.54V144H108.54ZM107.54 136.552H151.188V134.552H107.54V136.552ZM104.375 78.5331L127.287 63.557L126.193 61.8829L103.281 76.8589L104.375 78.5331ZM126.74 63.72H136.34V61.72H126.74V63.72ZM135.34 62.72V144H137.34V62.72H135.34ZM136.34 143H125.844V145H136.34V143ZM126.844 144V72.96H124.844V144H126.844ZM125.45 73.8791L126.346 74.2631L127.134 72.4248L126.238 72.0409L125.45 73.8791ZM126.21 72.496L107.778 84.016L108.838 85.712L127.27 74.192L126.21 72.496ZM109.156 84.334L104.676 77.166L102.98 78.226L107.46 85.394L109.156 84.334Z" fill="#ED7676"/>
</svg>
