<svg width="200" height="200" viewBox="0 0 200 200" fill="none" xmlns="http://www.w3.org/2000/svg">
<rect width="200" height="200" fill="white"/>
<path d="M89.125 69.25C87.4583 74.4167 86.2292 78.625 85.4375 81.875C84.3125 86.5 83.4583 91.6042 82.875 97.1875C82.2917 102.771 82 109.5 82 117.375C82 123.042 82.5 127.958 83.5 132.125C84.375 135.708 85.8333 139 87.875 142C88.0833 142.25 88.1875 142.521 88.1875 142.812C88.1875 143.104 87.9583 143.375 87.5 143.625C86.5417 143.833 85.625 144.042 84.75 144.25C83.9167 144.458 82.9583 144.771 81.875 145.188C80.8333 145.604 79.8958 146.042 79.0625 146.5C78.2292 147 77.6667 147.333 77.375 147.5L77.0625 147.688L76.5 147.812C76.1667 147.812 75.9167 147.583 75.75 147.125C75.125 145.792 74.625 143.125 74.25 139.125C73.9167 135.083 73.75 131.083 73.75 127.125C73.75 120 74.5625 111.708 76.1875 102.25C77.8125 92.7917 79.875 84 82.375 75.875C81.125 77.5 79.7292 78.8958 78.1875 80.0625C76.1458 81.6042 74.2083 82.375 72.375 82.375C71 82.375 69.75 81.9583 68.625 81.125C67.5417 80.2917 67 79.1875 67 77.8125C67 77.0625 67.0417 76.4375 67.125 75.9375C67.25 75.4375 67.6667 74.9375 68.375 74.4375L68.875 74.75C69.625 75.6667 70.1667 76.2083 70.5 76.375C71.125 76.7083 71.875 76.875 72.75 76.875C75.2917 76.875 77.6875 75.5833 79.9375 73C80.2292 72.6667 81.7083 70.5 84.375 66.5C84.7083 65.9583 85.1667 65.7917 85.75 66C86.4167 66.25 87 66.5 87.5 66.75C88.0417 67 88.4792 67.2708 88.8125 67.5625C89.1458 67.8542 89.3125 68.1667 89.3125 68.5C89.3125 68.75 89.25 69 89.125 69.25ZM129.875 69.25C128.208 74.4167 126.979 78.625 126.188 81.875C125.062 86.5 124.208 91.6042 123.625 97.1875C123.042 102.771 122.75 109.5 122.75 117.375C122.75 123.042 123.25 127.958 124.25 132.125C125.125 135.708 126.583 139 128.625 142C128.833 142.25 128.938 142.521 128.938 142.812C128.938 143.104 128.708 143.375 128.25 143.625C127.292 143.833 126.375 144.042 125.5 144.25C124.667 144.458 123.708 144.771 122.625 145.188C121.583 145.604 120.646 146.042 119.812 146.5C118.979 147 118.417 147.333 118.125 147.5L117.812 147.688L117.25 147.812C116.917 147.812 116.667 147.583 116.5 147.125C115.875 145.792 115.375 143.125 115 139.125C114.667 135.083 114.5 131.083 114.5 127.125C114.5 120 115.312 111.708 116.938 102.25C118.562 92.7917 120.625 84 123.125 75.875C121.875 77.5 120.479 78.8958 118.938 80.0625C116.896 81.6042 114.958 82.375 113.125 82.375C111.75 82.375 110.5 81.9583 109.375 81.125C108.292 80.2917 107.75 79.1875 107.75 77.8125C107.75 77.0625 107.792 76.4375 107.875 75.9375C108 75.4375 108.417 74.9375 109.125 74.4375L109.625 74.75C110.375 75.6667 110.917 76.2083 111.25 76.375C111.875 76.7083 112.625 76.875 113.5 76.875C116.042 76.875 118.438 75.5833 120.688 73C120.979 72.6667 122.458 70.5 125.125 66.5C125.458 65.9583 125.917 65.7917 126.5 66C127.167 66.25 127.75 66.5 128.25 66.75C128.792 67 129.229 67.2708 129.562 67.5625C129.896 67.8542 130.062 68.1667 130.062 68.5C130.062 68.75 130 69 129.875 69.25Z" fill="black"/>
</svg>
