<svg width="200" height="200" viewBox="0 0 200 200" fill="none" xmlns="http://www.w3.org/2000/svg">
<rect width="200" height="200" fill="#D9D9D9"/>
<path d="M87.887 94.464H105.167C110.97 94.464 115.407 95.744 118.479 98.304C121.551 100.864 123.087 104.789 123.087 110.08V128.512C123.087 133.973 121.636 138.027 118.735 140.672C115.834 143.317 111.482 144.597 105.679 144.512L76.495 144V134.912H110.671C111.78 134.912 112.335 134.357 112.335 133.248V105.216C112.335 104.107 111.78 103.552 110.671 103.552H77.391V62.72H120.271V71.808H87.887V94.464Z" fill="black"/>
<path d="M87.887 94.464H86.887V95.464H87.887V94.464ZM118.479 98.304L119.119 97.5358L119.119 97.5358L118.479 98.304ZM118.735 140.672L118.061 139.933L118.061 139.933L118.735 140.672ZM105.679 144.512L105.661 145.512L105.664 145.512L105.679 144.512ZM76.495 144H75.495V144.983L76.4775 145L76.495 144ZM76.495 134.912V133.912H75.495V134.912H76.495ZM77.391 103.552H76.391V104.552H77.391V103.552ZM77.391 62.72V61.72H76.391V62.72H77.391ZM120.271 62.72H121.271V61.72H120.271V62.72ZM120.271 71.808V72.808H121.271V71.808H120.271ZM87.887 71.808V70.808H86.887V71.808H87.887ZM87.887 95.464H105.167V93.464H87.887V95.464ZM105.167 95.464C110.839 95.464 115.012 96.7168 117.839 99.0722L119.119 97.5358C115.802 94.7712 111.101 93.464 105.167 93.464V95.464ZM117.839 99.0722C120.614 101.385 122.087 104.984 122.087 110.08H124.087C124.087 104.595 122.488 100.343 119.119 97.5358L117.839 99.0722ZM122.087 110.08V128.512H124.087V110.08H122.087ZM122.087 128.512C122.087 133.806 120.684 137.542 118.061 139.933L119.409 141.411C122.589 138.511 124.087 134.141 124.087 128.512H122.087ZM118.061 139.933C115.421 142.341 111.362 143.595 105.694 143.512L105.664 145.512C111.602 145.599 116.247 144.294 119.409 141.411L118.061 139.933ZM105.697 143.512L76.5125 143L76.4775 145L105.661 145.512L105.697 143.512ZM77.495 144V134.912H75.495V144H77.495ZM76.495 135.912H110.671V133.912H76.495V135.912ZM110.671 135.912C111.38 135.912 112.095 135.734 112.626 135.203C113.157 134.672 113.335 133.957 113.335 133.248H111.335C111.335 133.649 111.236 133.765 111.212 133.789C111.188 133.813 111.072 133.912 110.671 133.912V135.912ZM113.335 133.248V105.216H111.335V133.248H113.335ZM113.335 105.216C113.335 104.507 113.157 103.792 112.626 103.261C112.095 102.73 111.38 102.552 110.671 102.552V104.552C111.072 104.552 111.188 104.651 111.212 104.675C111.236 104.699 111.335 104.815 111.335 105.216H113.335ZM110.671 102.552H77.391V104.552H110.671V102.552ZM78.391 103.552V62.72H76.391V103.552H78.391ZM77.391 63.72H120.271V61.72H77.391V63.72ZM119.271 62.72V71.808H121.271V62.72H119.271ZM120.271 70.808H87.887V72.808H120.271V70.808ZM86.887 71.808V94.464H88.887V71.808H86.887Z" fill="#ED7676"/>
</svg>
