<svg width="200" height="200" viewBox="0 0 200 200" fill="none" xmlns="http://www.w3.org/2000/svg">
<rect width="200" height="200" fill="white"/>
<path d="M124.438 111.75C124.438 121.292 120.896 129.667 113.812 136.875C106.521 144.292 97.7292 148 87.4375 148C82.6458 148 78.5625 146.958 75.1875 144.875C71.3542 142.542 69.4375 139.333 69.4375 135.25C69.4375 133.292 70.0625 131.542 71.3125 130C72.6042 128.417 74.1875 127.625 76.0625 127.625C77.9375 127.625 79.5 128.021 80.75 128.812C82.0417 129.562 82.6875 130.75 82.6875 132.375C82.6875 133.917 82.3125 135.125 81.5625 136C81.3125 136.292 81.0625 136.438 80.8125 136.438C80.5625 136.438 80.2708 136.208 79.9375 135.75C79.7708 135.375 79.5417 135.062 79.25 134.812C78.7917 134.438 78.1458 134.25 77.3125 134.25C76.6875 134.25 76.1667 134.562 75.75 135.188C75.375 135.771 75.1875 136.417 75.1875 137.125C75.1875 139.708 76.7292 141.729 79.8125 143.188C82.3542 144.396 85.3958 145 88.9375 145C96.3542 145 102.792 141.833 108.25 135.5C113.708 129.125 116.438 121.833 116.438 113.625C116.438 108.208 115 103.458 112.125 99.375C109 94.9583 105.021 92.75 100.188 92.75C97.2292 92.75 94.6042 93.1875 92.3125 94.0625C89.5208 95.1458 87.6458 96.7083 86.6875 98.75C86.5208 99.2083 86.375 99.6875 86.25 100.188C86.125 100.646 85.9167 101.333 85.625 102.25C85.4167 102.458 85.1042 102.542 84.6875 102.5L80.0625 102C79.3542 101.833 79.0625 101.292 79.1875 100.375L80.3125 93.5C80.6458 90.5833 80.8125 87.7917 80.8125 85.125C80.6458 76.5833 80.5625 71.6667 80.5625 70.375C80.5625 69.9583 80.6042 69.4583 80.6875 68.875L81.0625 68.1875C81.2708 67.9792 81.6458 67.875 82.1875 67.875C85.9792 68.875 89.9167 69.7083 94 70.375C98.125 71.0417 102.354 71.375 106.688 71.375C109.062 71.375 110.854 71.1875 112.062 70.8125C113.896 70.2292 114.812 69.1667 114.812 67.625C114.812 66.625 114.625 65.875 114.25 65.375C114.042 65.0833 113.75 64.8542 113.375 64.6875C113 64.5208 112.812 64.3333 112.812 64.125C112.812 63.8333 113 63.5833 113.375 63.375C113.792 63.125 114.292 62.9792 114.875 62.9375C115.5 62.8958 116.188 62.875 116.938 62.875C118.604 62.875 120.062 63.4792 121.312 64.6875C122.562 65.8958 123.188 67.3333 123.188 69C123.188 71.7917 121.646 73.9375 118.562 75.4375C116.062 76.6458 113.021 77.25 109.438 77.25C105.021 77.25 100.479 76.8125 95.8125 75.9375C92.6875 75.3542 88.9375 74.4167 84.5625 73.125C84.5625 74.5417 84.5417 76.5 84.5 79C84.4583 81.5 84.4375 83.5417 84.4375 85.125C84.4375 89.3333 84.1042 93.375 83.4375 97.25C85.6042 93.6667 88.375 91 91.75 89.25C95.1667 87.5 98.9375 86.625 103.062 86.625C109.604 86.625 114.792 88.8542 118.625 93.3125C122.5 97.7292 124.438 103.875 124.438 111.75Z" fill="black"/>
</svg>
