<svg width="200" height="200" viewBox="0 0 200 200" fill="none" xmlns="http://www.w3.org/2000/svg">
<rect opacity="0.9" width="200" height="200" fill="white"/>
<g filter="url(#filter0_d_3_6)">
<path d="M109.46 144.384H95.252C89.4493 144.384 85.0973 143.232 82.196 140.928C79.2947 138.624 77.844 134.741 77.844 129.28V78.464C77.844 73.1733 79.38 69.12 82.452 66.304C85.524 63.488 89.9187 62.1227 95.636 62.208L123.156 62.72V71.808H90.26C89.1507 71.808 88.596 72.3627 88.596 73.472V133.248C88.596 134.357 89.1933 134.912 90.388 134.912H114.452C115.561 134.912 116.116 134.357 116.116 133.248V104.704C116.116 103.68 115.561 103.168 114.452 103.168H87.316V94.208H109.716C115.519 94.208 119.828 95.4027 122.644 97.792C125.46 100.096 126.868 103.979 126.868 109.44V128.512C126.868 133.973 125.417 137.984 122.516 140.544C119.615 143.104 115.263 144.384 109.46 144.384Z" fill="black"/>
<path d="M82.196 140.928L82.8179 140.145L82.8179 140.145L82.196 140.928ZM82.452 66.304L81.7763 65.5668L81.7763 65.5668L82.452 66.304ZM95.636 62.208L95.6546 61.2082L95.6509 61.2081L95.636 62.208ZM123.156 62.72H124.156V61.7384L123.175 61.7202L123.156 62.72ZM123.156 71.808V72.808H124.156V71.808H123.156ZM87.316 103.168H86.316V104.168H87.316V103.168ZM87.316 94.208V93.208H86.316V94.208H87.316ZM122.644 97.792L121.997 98.5545L122.004 98.5603L122.011 98.566L122.644 97.792ZM122.516 140.544L123.178 141.294L123.178 141.294L122.516 140.544ZM109.46 143.384H95.252V145.384H109.46V143.384ZM95.252 143.384C89.5549 143.384 85.4669 142.248 82.8179 140.145L81.5741 141.711C84.7278 144.216 89.3438 145.384 95.252 145.384V143.384ZM82.8179 140.145C80.252 138.107 78.844 134.586 78.844 129.28H76.844C76.844 134.897 78.3373 139.141 81.5741 141.711L82.8179 140.145ZM78.844 129.28V78.464H76.844V129.28H78.844ZM78.844 78.464C78.844 73.3731 80.3151 69.6194 83.1277 67.0411L81.7763 65.5668C78.4449 68.6206 76.844 72.9735 76.844 78.464H78.844ZM83.1277 67.0411C85.9508 64.4533 90.0628 63.1249 95.6211 63.2079L95.6509 61.2081C89.7746 61.1204 85.0972 62.5227 81.7763 65.5668L83.1277 67.0411ZM95.6174 63.2078L123.137 63.7198L123.175 61.7202L95.6546 61.2082L95.6174 63.2078ZM122.156 62.72V71.808H124.156V62.72H122.156ZM123.156 70.808H90.26V72.808H123.156V70.808ZM90.26 70.808C89.5512 70.808 88.8359 70.9859 88.3049 71.5169C87.7739 72.0479 87.596 72.7632 87.596 73.472H89.596C89.596 73.0715 89.6955 72.9548 89.7191 72.9311C89.7428 72.9075 89.8595 72.808 90.26 72.808V70.808ZM87.596 73.472V133.248H89.596V73.472H87.596ZM87.596 133.248C87.596 133.977 87.7956 134.701 88.3635 135.229C88.9175 135.743 89.6542 135.912 90.388 135.912V133.912C89.9272 133.912 89.7678 133.804 89.7245 133.763C89.695 133.736 89.596 133.629 89.596 133.248H87.596ZM90.388 135.912H114.452V133.912H90.388V135.912ZM114.452 135.912C115.161 135.912 115.876 135.734 116.407 135.203C116.938 134.672 117.116 133.957 117.116 133.248H115.116C115.116 133.649 115.017 133.765 114.993 133.789C114.969 133.813 114.853 133.912 114.452 133.912V135.912ZM117.116 133.248V104.704H115.116V133.248H117.116ZM117.116 104.704C117.116 104.016 116.926 103.323 116.378 102.817C115.846 102.326 115.142 102.168 114.452 102.168V104.168C114.872 104.168 115 104.266 115.022 104.287C115.029 104.293 115.116 104.368 115.116 104.704H117.116ZM114.452 102.168H87.316V104.168H114.452V102.168ZM88.316 103.168V94.208H86.316V103.168H88.316ZM87.316 95.208H109.716V93.208H87.316V95.208ZM109.716 95.208C115.41 95.208 119.44 96.3849 121.997 98.5545L123.291 97.0295C120.216 94.4204 115.627 93.208 109.716 93.208V95.208ZM122.011 98.566C124.497 100.601 125.868 104.125 125.868 109.44H127.868C127.868 103.832 126.423 99.5914 123.277 97.018L122.011 98.566ZM125.868 109.44V128.512H127.868V109.44H125.868ZM125.868 128.512C125.868 133.808 124.464 137.492 121.854 139.794L123.178 141.294C126.371 138.476 127.868 134.138 127.868 128.512H125.868ZM121.854 139.794C119.208 142.129 115.137 143.384 109.46 143.384V145.384C115.388 145.384 120.021 144.079 123.178 141.294L121.854 139.794Z" fill="#ED7676"/>
</g>
<defs>
<filter id="filter0_d_3_6" x="73.844" y="62.08" width="57.024" height="90.304" filterUnits="userSpaceOnUse" color-interpolation-filters="sRGB">
<feFlood flood-opacity="0" result="BackgroundImageFix"/>
<feColorMatrix in="SourceAlpha" type="matrix" values="0 0 0 0 0 0 0 0 0 0 0 0 0 0 0 0 0 0 127 0" result="hardAlpha"/>
<feOffset dy="4"/>
<feGaussianBlur stdDeviation="2"/>
<feComposite in2="hardAlpha" operator="out"/>
<feColorMatrix type="matrix" values="0 0 0 0 0 0 0 0 0 0 0 0 0 0 0 0 0 0 0.25 0"/>
<feBlend mode="normal" in2="BackgroundImageFix" result="effect1_dropShadow_3_6"/>
<feBlend mode="normal" in="SourceGraphic" in2="effect1_dropShadow_3_6" result="shape"/>
</filter>
</defs>
</svg>
