<svg width="200" height="200" viewBox="0 0 200 200" fill="none" xmlns="http://www.w3.org/2000/svg">
<rect width="200" height="200" fill="white"/>
<path d="M128.625 121.125C128.625 128.042 126.125 134.188 121.125 139.562C115.917 145.188 109.708 148 102.5 148C93.75 148 86.6875 144.208 81.3125 136.625C76.4375 129.708 74 121.417 74 111.75C74 99.9167 77.5625 89.4792 84.6875 80.4375C92.1458 70.9792 101.208 66.25 111.875 66.25C115.625 66.25 118.771 67 121.312 68.5C124.229 70.2083 125.958 72.6667 126.5 75.875C126.542 76.0833 126.562 76.375 126.562 76.75C126.562 78.4583 125.812 79.9792 124.312 81.3125C122.854 82.6042 121.208 83.25 119.375 83.25C118.208 83.25 117.104 83.0833 116.062 82.75C115.021 82.375 114.167 81.8333 113.5 81.125C113.208 80.8333 113.062 80.5625 113.062 80.3125C113.062 79.9375 113.375 79.7083 114 79.625C115.333 79.625 116.396 79.125 117.188 78.125C117.812 77.3333 118.125 76.3333 118.125 75.125C118.125 73.375 117.312 72.0417 115.688 71.125C114.062 70.2083 112.208 69.75 110.125 69.75C102.167 69.75 95.5625 73.4583 90.3125 80.875C84.8542 88.5417 82.125 98.5 82.125 110.75C82.125 119.333 84.1042 126.604 88.0625 132.562C92.3958 139.104 98.1667 142.375 105.375 142.375C110.667 142.375 115.083 140.229 118.625 135.938C122.042 131.812 123.75 126.917 123.75 121.25C123.75 116.042 122.125 111.479 118.875 107.562C115.5 103.521 111.375 101.5 106.5 101.5C104.375 101.5 102.25 101.979 100.125 102.938C98.0417 103.896 96.625 105.208 95.875 106.875C95.7083 107.208 95.5833 107.625 95.5 108.125C95.4167 108.583 95.375 108.958 95.375 109.25C95.4583 110.125 95.5 110.708 95.5 111C95.5 111.542 95.25 111.812 94.75 111.812C94.5 111.812 94.25 111.667 94 111.375C93.625 110.833 93.2708 110.312 92.9375 109.812C92.3542 108.938 91.625 108.042 90.75 107.125C90.0833 106.458 89.5208 105.958 89.0625 105.625C88.6042 105.25 88.2917 105 88.125 104.875C87.875 104.625 87.75 104.312 87.75 103.938C87.75 103.688 87.8333 103.417 88 103.125C89.1667 101.208 91.0417 99.4375 93.625 97.8125C97.25 95.5208 101.125 94.375 105.25 94.375C112.125 94.375 117.771 97.0208 122.188 102.312C126.479 107.438 128.625 113.708 128.625 121.125Z" fill="black"/>
</svg>
