<svg width="200" height="200" viewBox="0 0 200 200" fill="none" xmlns="http://www.w3.org/2000/svg">
<rect width="200" height="200" fill="white"/>
<path d="M132.875 69.125C132.25 69.9583 130.729 71.5833 128.312 74L120.812 81.5C117.688 84.75 115.25 87.5 113.5 89.75C109.292 95.2083 106.417 99.125 104.875 101.5C102.208 105.625 100.229 109.583 98.9375 113.375C97.4792 117.708 96.75 122.417 96.75 127.5C96.75 131.125 97.1667 134.021 98 136.188C98.8333 138.354 100.208 140.042 102.125 141.25C102.417 141.417 102.562 141.604 102.562 141.812C102.562 142.062 102.375 142.292 102 142.5C101.167 142.875 100.312 143.292 99.4375 143.75C98.5625 144.167 97.75 144.583 97 145L92.875 147.625L92.125 147.938C91.8333 147.938 91.4583 147.708 91 147.25C90.1667 146.042 89.3125 143.812 88.4375 140.562C87.5625 137.312 87.125 134.417 87.125 131.875C87.125 127.583 87.7917 123.375 89.125 119.25C90.25 115.75 91.875 112.146 94 108.438C95.2083 106.354 97.1667 103.375 99.875 99.5C102.208 96.2083 105.5 92.1875 109.75 87.4375C114.208 82.4792 118.5 78.0833 122.625 74.25C119.833 75.0833 117.438 75.6667 115.438 76C113.438 76.3333 111.167 76.5 108.625 76.5C106.417 76.5 102.396 76.25 96.5625 75.75C93.6458 75.5 91.1667 75.375 89.125 75.375C86.5 75.375 84.0208 76.3542 81.6875 78.3125C79.6042 80.5625 78.2917 81.9583 77.75 82.5L76.9375 82.875C76.6875 82.875 76.5625 82.7292 76.5625 82.4375C76.5625 82.2292 76.6458 81.8958 76.8125 81.4375C76.9792 80.9375 77.1667 80.4375 77.375 79.9375C78.4583 77.3125 79.2083 75.4167 79.625 74.25L81.125 69.25C81.3333 68.6667 81.8542 68.3333 82.6875 68.25C83.5625 68.125 85.3958 68.0417 88.1875 68C90.9792 67.9167 92.9583 67.875 94.125 67.875H96C98.5833 67.875 101.417 68.125 104.5 68.625C111.125 69.7083 115.875 70.25 118.75 70.25C121.958 70.25 124.583 69.7917 126.625 68.875C127.375 68.5417 128.458 67.7917 129.875 66.625L130.25 66.4375L130.562 66.375C130.812 66.375 131.042 66.4583 131.25 66.625L132.75 67.75C132.958 67.9583 133.062 68.2292 133.062 68.5625L132.875 69.125Z" fill="black"/>
</svg>
