<svg width="200" height="200" viewBox="0 0 200 200" fill="none" xmlns="http://www.w3.org/2000/svg">
<rect width="200" height="200" fill="#D9D9D9"/>
<path d="M94.1555 144.256H83.0195L112.204 72.96C112.46 72.448 112.502 72.064 112.332 71.808C112.246 71.4667 111.948 71.296 111.436 71.296H76.4915V62.72L113.74 62.592C117.238 62.592 119.756 63.488 121.292 65.28C122.913 66.9867 123.724 69.4613 123.724 72.704L94.1555 144.256Z" fill="black"/>
<path d="M94.1555 144.256V145.256H94.8243L95.0797 144.638L94.1555 144.256ZM83.0195 144.256L82.094 143.877L81.5296 145.256H83.0195V144.256ZM112.204 72.96L111.309 72.5128L111.292 72.5464L111.278 72.5812L112.204 72.96ZM112.332 71.808L111.361 72.0505L111.403 72.2186L111.499 72.3627L112.332 71.808ZM76.4915 71.296H75.4915V72.296H76.4915V71.296ZM76.4915 62.72L76.4881 61.72L75.4915 61.7234V62.72H76.4915ZM113.74 62.592L113.74 61.592L113.736 61.592L113.74 62.592ZM121.292 65.28L120.532 65.9308L120.549 65.9502L120.567 65.9687L121.292 65.28ZM123.724 72.704L124.648 73.0859L124.724 72.9025V72.704H123.724ZM94.1555 143.256H83.0195V145.256H94.1555V143.256ZM83.945 144.635L113.129 73.3388L111.278 72.5812L82.094 143.877L83.945 144.635ZM113.098 73.4072C113.378 72.8468 113.658 71.9955 113.164 71.2533L111.499 72.3627C111.465 72.3115 111.447 72.2603 111.439 72.2201C111.431 72.1827 111.435 72.1656 111.434 72.1776C111.432 72.1902 111.427 72.2244 111.407 72.2838C111.387 72.3427 111.356 72.4186 111.309 72.5128L113.098 73.4072ZM113.302 71.5655C113.195 71.1371 112.932 70.7798 112.54 70.5558C112.183 70.3519 111.787 70.296 111.436 70.296V72.296C111.51 72.296 111.554 72.3024 111.573 72.3065C111.593 72.3107 111.579 72.3105 111.547 72.2922C111.512 72.2723 111.467 72.2372 111.428 72.184C111.388 72.1312 111.369 72.0816 111.361 72.0505L113.302 71.5655ZM111.436 70.296H76.4915V72.296H111.436V70.296ZM77.4915 71.296V62.72H75.4915V71.296H77.4915ZM76.4949 63.72L113.743 63.592L113.736 61.592L76.4881 61.72L76.4949 63.72ZM113.74 63.592C117.09 63.592 119.263 64.45 120.532 65.9308L122.051 64.6292C120.248 62.526 117.387 61.592 113.74 61.592V63.592ZM120.567 65.9687C121.954 67.4289 122.724 69.6196 122.724 72.704H124.724C124.724 69.303 123.872 66.5444 122.017 64.5912L120.567 65.9687ZM122.799 72.3221L93.2313 143.874L95.0797 144.638L124.648 73.0859L122.799 72.3221Z" fill="#ED7676"/>
</svg>
