<svg width="200" height="200" viewBox="0 0 200 200" fill="none" xmlns="http://www.w3.org/2000/svg">
<rect width="200" height="200" fill="white"/>
<path d="M131 64.625L130.75 66.25C129.667 69.4583 126.938 71.6458 122.562 72.8125C120.188 73.4375 117.167 73.75 113.5 73.75C111.417 73.75 107.646 73.3958 102.188 72.6875C99.3125 72.3125 96.9167 72.125 95 72.125C91.5417 72.125 88.5833 73.2083 86.125 75.375C83.7083 77.5 82.5 79.9583 82.5 82.75C82.5 87.4583 85.2083 91.4167 90.625 94.625C90.7917 94.7083 95.0417 96.5417 103.375 100.125C106.375 98.4167 109.396 96.6875 112.438 94.9375C115.729 92.7292 117.375 90.4167 117.375 88C117.375 86.4167 117.062 85.2083 116.438 84.375C115.979 83.7917 115.438 83.4375 114.812 83.3125C114.229 83.1458 113.938 82.9375 113.938 82.6875C113.938 82.4375 114.125 82.1667 114.5 81.875C115.375 81.2083 116.5 80.875 117.875 80.875C119.5 80.875 120.854 81.5625 121.938 82.9375C123.062 84.2708 123.625 85.8333 123.625 87.625C123.625 91.25 120.812 94.6042 115.188 97.6875C112.562 99.0625 109.958 100.417 107.375 101.75C113.25 103.583 118.042 106.333 121.75 110C126.083 114.292 128.25 119.292 128.25 125C128.25 131.833 125.292 137.438 119.375 141.812C113.833 145.938 107.292 148 99.75 148C92.0417 148 85.7083 145.917 80.75 141.75C75.8333 137.542 73.375 132.042 73.375 125.25C73.375 120.083 75.9167 115.229 81 110.688C85.0417 107.062 89.5417 104.458 94.5 102.875C90.9167 100.708 87.3542 98.5208 83.8125 96.3125C79.4375 92.8125 77.25 88.625 77.25 83.75C77.25 78.0833 79.5417 73.7083 84.125 70.625C88.4583 67.7083 94.2917 66.25 101.625 66.25C103.625 66.25 107.271 66.7292 112.562 67.6875C115.104 68.1458 117.417 68.375 119.5 68.375C122.5 68.375 124.583 68.1458 125.75 67.6875C126.042 67.5625 127 66.9167 128.625 65.75L129.375 64.9375C129.583 64.6875 129.833 64.4167 130.125 64.125C130.333 63.9167 130.521 63.8542 130.688 63.9375C130.896 64.0208 131 64.25 131 64.625ZM120.375 125C120.375 121.667 118.75 118.333 115.5 115C113 112.458 109.812 110.125 105.938 108C103.062 106.417 100.792 105.417 99.125 105C97.6667 105.292 95.625 106.146 93 107.562C89.3333 109.521 86.3333 111.771 84 114.312C80.9167 117.688 79.375 121.25 79.375 125C79.375 131.125 81.5 136.042 85.75 139.75C89.5 143 93.9167 144.625 99 144.625C104.667 144.625 109.583 142.833 113.75 139.25C118.167 135.458 120.375 130.708 120.375 125Z" fill="black"/>
</svg>
