<svg width="200" height="200" viewBox="0 0 200 200" fill="none" xmlns="http://www.w3.org/2000/svg">
<rect width="200" height="200" fill="#D9D9D9"/>
<path d="M108.502 144.512H92.502C86.6993 144.512 82.262 143.147 79.19 140.416C76.2033 137.6 74.71 133.547 74.71 128.256V114.432C74.71 109.141 76.2033 105.472 79.19 103.424C82.1767 101.291 86.6993 100.224 92.758 100.224L93.526 104.064C87.8087 104.064 83.3287 102.997 80.086 100.864C76.9287 98.6453 75.35 95.0187 75.35 89.984V78.208C75.35 72.7467 76.8007 68.736 79.702 66.176C82.6033 63.5307 86.9553 62.208 92.758 62.208H108.246C114.049 62.208 118.401 63.5307 121.302 66.176C124.203 68.736 125.654 72.7467 125.654 78.208V89.984C125.654 95.0187 124.033 98.6453 120.79 100.864C117.633 102.997 113.153 104.064 107.35 104.064L108.246 100.224C114.305 100.224 118.827 101.291 121.814 103.424C124.801 105.472 126.294 109.141 126.294 114.432V128.256C126.294 133.547 124.758 137.6 121.686 140.416C118.699 143.147 114.305 144.512 108.502 144.512ZM85.462 133.248C85.462 134.357 86.0167 134.912 87.126 134.912H113.878C114.987 134.912 115.542 134.357 115.542 133.248V108.032C115.542 107.008 114.987 106.496 113.878 106.496H87.126C86.0167 106.496 85.462 107.008 85.462 108.032V133.248ZM86.102 96C86.102 97.1093 86.6567 97.664 87.766 97.664H113.238C114.347 97.664 114.902 97.1093 114.902 96V73.344C114.902 72.2347 114.347 71.68 113.238 71.68H87.766C86.6567 71.68 86.102 72.2347 86.102 73.344V96Z" fill="black"/>
<path d="M79.19 140.416L78.504 141.144L78.5147 141.154L78.5256 141.163L79.19 140.416ZM79.19 103.424L79.7555 104.249L79.7634 104.243L79.7712 104.238L79.19 103.424ZM92.758 100.224L93.7386 100.028L93.5778 99.224H92.758V100.224ZM93.526 104.064V105.064H94.7458L94.5066 103.868L93.526 104.064ZM80.086 100.864L79.5111 101.682L79.5236 101.691L79.5364 101.699L80.086 100.864ZM79.702 66.176L80.3636 66.9258L80.3697 66.9204L80.3758 66.915L79.702 66.176ZM121.302 66.176L120.628 66.915L120.634 66.9204L120.64 66.9258L121.302 66.176ZM120.79 100.864L121.35 101.693L121.355 101.689L120.79 100.864ZM107.35 104.064L106.376 103.837L106.09 105.064H107.35V104.064ZM108.246 100.224V99.224H107.452L107.272 99.9968L108.246 100.224ZM121.814 103.424L121.233 104.238L121.241 104.243L121.248 104.249L121.814 103.424ZM121.686 140.416L122.361 141.154L122.362 141.153L121.686 140.416ZM108.502 143.512H92.502V145.512H108.502V143.512ZM92.502 143.512C86.844 143.512 82.6801 142.18 79.8544 139.669L78.5256 141.163C81.8439 144.113 86.5547 145.512 92.502 145.512V143.512ZM79.876 139.688C77.1436 137.112 75.71 133.355 75.71 128.256H73.71C73.71 133.738 75.2631 138.088 78.504 141.144L79.876 139.688ZM75.71 128.256V114.432H73.71V128.256H75.71ZM75.71 114.432C75.71 109.309 77.1514 106.034 79.7555 104.249L78.6245 102.599C75.2552 104.91 73.71 108.973 73.71 114.432H75.71ZM79.7712 104.238C82.5099 102.282 86.7845 101.224 92.758 101.224V99.224C86.6142 99.224 81.8434 100.3 78.6088 102.61L79.7712 104.238ZM91.7774 100.42L92.5454 104.26L94.5066 103.868L93.7386 100.028L91.7774 100.42ZM93.526 103.064C87.9168 103.064 83.655 102.015 80.6356 100.029L79.5364 101.699C83.0024 103.98 87.7005 105.064 93.526 105.064V103.064ZM80.6609 100.046C77.8487 98.0697 76.35 94.8027 76.35 89.984H74.35C74.35 95.2346 76.0086 99.221 79.5111 101.682L80.6609 100.046ZM76.35 89.984V78.208H74.35V89.984H76.35ZM76.35 78.208C76.35 72.9117 77.7545 69.228 80.3636 66.9258L79.0404 65.4262C75.8469 68.244 74.35 72.5816 74.35 78.208H76.35ZM80.3758 66.915C83.0217 64.5024 87.0878 63.208 92.758 63.208V61.208C86.8229 61.208 82.1849 62.5589 79.0282 65.437L80.3758 66.915ZM92.758 63.208H108.246V61.208H92.758V63.208ZM108.246 63.208C113.916 63.208 117.982 64.5024 120.628 66.915L121.976 65.437C118.819 62.5589 114.181 61.208 108.246 61.208V63.208ZM120.64 66.9258C123.25 69.228 124.654 72.9117 124.654 78.208H126.654C126.654 72.5816 125.157 68.244 121.964 65.4262L120.64 66.9258ZM124.654 78.208V89.984H126.654V78.208H124.654ZM124.654 89.984C124.654 94.7925 123.12 98.0583 120.225 100.039L121.355 101.689C124.946 99.2324 126.654 95.2449 126.654 89.984H124.654ZM120.23 100.035C117.304 102.013 113.051 103.064 107.35 103.064V105.064C113.255 105.064 117.962 103.982 121.35 101.693L120.23 100.035ZM108.324 104.291L109.22 100.451L107.272 99.9968L106.376 103.837L108.324 104.291ZM108.246 101.224C114.22 101.224 118.494 102.282 121.233 104.238L122.395 102.61C119.161 100.3 114.39 99.224 108.246 99.224V101.224ZM121.248 104.249C123.853 106.034 125.294 109.309 125.294 114.432H127.294C127.294 108.973 125.749 104.91 122.38 102.599L121.248 104.249ZM125.294 114.432V128.256H127.294V114.432H125.294ZM125.294 128.256C125.294 133.347 123.823 137.101 121.01 139.679L122.362 141.153C125.693 138.099 127.294 133.746 127.294 128.256H125.294ZM121.011 139.678C118.275 142.179 114.162 143.512 108.502 143.512V145.512C114.447 145.512 119.123 144.114 122.361 141.154L121.011 139.678ZM84.462 133.248C84.462 133.957 84.6399 134.672 85.1709 135.203C85.7019 135.734 86.4172 135.912 87.126 135.912V133.912C86.7255 133.912 86.6088 133.813 86.5851 133.789C86.5615 133.765 86.462 133.649 86.462 133.248H84.462ZM87.126 135.912H113.878V133.912H87.126V135.912ZM113.878 135.912C114.587 135.912 115.302 135.734 115.833 135.203C116.364 134.672 116.542 133.957 116.542 133.248H114.542C114.542 133.649 114.443 133.765 114.419 133.789C114.395 133.813 114.279 133.912 113.878 133.912V135.912ZM116.542 133.248V108.032H114.542V133.248H116.542ZM116.542 108.032C116.542 107.344 116.352 106.651 115.804 106.145C115.272 105.654 114.568 105.496 113.878 105.496V107.496C114.298 107.496 114.426 107.594 114.448 107.615C114.455 107.621 114.542 107.696 114.542 108.032H116.542ZM113.878 105.496H87.126V107.496H113.878V105.496ZM87.126 105.496C86.4362 105.496 85.7324 105.654 85.1997 106.145C84.652 106.651 84.462 107.344 84.462 108.032H86.462C86.462 107.696 86.5494 107.621 86.5563 107.615C86.5783 107.594 86.7065 107.496 87.126 107.496V105.496ZM84.462 108.032V133.248H86.462V108.032H84.462ZM85.102 96C85.102 96.7088 85.2799 97.4241 85.8109 97.9551C86.3419 98.4861 87.0572 98.664 87.766 98.664V96.664C87.3655 96.664 87.2488 96.5645 87.2251 96.5409C87.2015 96.5172 87.102 96.4005 87.102 96H85.102ZM87.766 98.664H113.238V96.664H87.766V98.664ZM113.238 98.664C113.947 98.664 114.662 98.4861 115.193 97.9551C115.724 97.4241 115.902 96.7088 115.902 96H113.902C113.902 96.4005 113.803 96.5172 113.779 96.5409C113.755 96.5645 113.639 96.664 113.238 96.664V98.664ZM115.902 96V73.344H113.902V96H115.902ZM115.902 73.344C115.902 72.6352 115.724 71.9199 115.193 71.3889C114.662 70.8579 113.947 70.68 113.238 70.68V72.68C113.639 72.68 113.755 72.7795 113.779 72.8031C113.803 72.8268 113.902 72.9435 113.902 73.344H115.902ZM113.238 70.68H87.766V72.68H113.238V70.68ZM87.766 70.68C87.0572 70.68 86.3419 70.8579 85.8109 71.3889C85.2799 71.9199 85.102 72.6352 85.102 73.344H87.102C87.102 72.9435 87.2015 72.8268 87.2251 72.8031C87.2488 72.7795 87.3655 72.68 87.766 72.68V70.68ZM85.102 73.344V96H87.102V73.344H85.102Z" fill="#ED7676"/>
</svg>
