<svg width="200" height="200" viewBox="0 0 200 200" fill="none" xmlns="http://www.w3.org/2000/svg">
<rect width="200" height="200" fill="#D9D9D9"/>
<path d="M123.156 128.256C123.156 133.547 121.62 137.6 118.548 140.416C115.561 143.232 111.167 144.597 105.364 144.512L76.948 144V134.912H110.74C111.849 134.912 112.404 134.357 112.404 133.248V73.472C112.404 72.3627 111.849 71.808 110.74 71.808H86.548C85.4387 71.808 84.884 72.3627 84.884 73.472V102.656C84.884 103.765 85.4387 104.32 86.548 104.32H113.812V113.152H91.412C85.6093 113.152 81.2573 112 78.356 109.696C75.54 107.307 74.132 103.381 74.132 97.92V78.208C74.132 72.7467 75.5827 68.736 78.484 66.176C81.3853 63.616 85.7373 62.336 91.54 62.336H105.748C111.551 62.336 115.903 63.488 118.804 65.792C121.705 68.0107 123.156 71.8933 123.156 77.44V128.256Z" fill="black"/>
<path d="M118.548 140.416L117.872 139.679L117.862 139.688L118.548 140.416ZM105.364 144.512L105.346 145.512L105.349 145.512L105.364 144.512ZM76.948 144H75.948V144.982L76.93 145L76.948 144ZM76.948 134.912V133.912H75.948V134.912H76.948ZM113.812 104.32H114.812V103.32H113.812V104.32ZM113.812 113.152V114.152H114.812V113.152H113.812ZM78.356 109.696L77.709 110.459L77.7214 110.469L77.7341 110.479L78.356 109.696ZM78.484 66.176L77.8224 65.4262L77.8224 65.4262L78.484 66.176ZM118.804 65.792L118.182 66.5751L118.189 66.5808L118.197 66.5864L118.804 65.792ZM122.156 128.256C122.156 133.347 120.685 137.101 117.872 139.679L119.224 141.153C122.555 138.099 124.156 133.746 124.156 128.256H122.156ZM117.862 139.688C115.131 142.263 111.03 143.595 105.379 143.512L105.349 145.512C111.304 145.599 115.992 144.201 119.234 141.144L117.862 139.688ZM105.382 143.512L76.966 143L76.93 145L105.346 145.512L105.382 143.512ZM77.948 144V134.912H75.948V144H77.948ZM76.948 135.912H110.74V133.912H76.948V135.912ZM110.74 135.912C111.449 135.912 112.164 135.734 112.695 135.203C113.226 134.672 113.404 133.957 113.404 133.248H111.404C111.404 133.649 111.305 133.765 111.281 133.789C111.257 133.813 111.141 133.912 110.74 133.912V135.912ZM113.404 133.248V73.472H111.404V133.248H113.404ZM113.404 73.472C113.404 72.7632 113.226 72.0479 112.695 71.5169C112.164 70.9859 111.449 70.808 110.74 70.808V72.808C111.141 72.808 111.257 72.9075 111.281 72.9311C111.305 72.9548 111.404 73.0715 111.404 73.472H113.404ZM110.74 70.808H86.548V72.808H110.74V70.808ZM86.548 70.808C85.8392 70.808 85.1239 70.9859 84.5929 71.5169C84.0619 72.0479 83.884 72.7632 83.884 73.472H85.884C85.884 73.0715 85.9835 72.9548 86.0071 72.9311C86.0308 72.9075 86.1475 72.808 86.548 72.808V70.808ZM83.884 73.472V102.656H85.884V73.472H83.884ZM83.884 102.656C83.884 103.365 84.0619 104.08 84.5929 104.611C85.1239 105.142 85.8392 105.32 86.548 105.32V103.32C86.1475 103.32 86.0308 103.221 86.0071 103.197C85.9835 103.173 85.884 103.057 85.884 102.656H83.884ZM86.548 105.32H113.812V103.32H86.548V105.32ZM112.812 104.32V113.152H114.812V104.32H112.812ZM113.812 112.152H91.412V114.152H113.812V112.152ZM91.412 112.152C85.7149 112.152 81.6269 111.016 78.9779 108.913L77.7341 110.479C80.8878 112.984 85.5038 114.152 91.412 114.152V112.152ZM79.003 108.933C76.5011 106.811 75.132 103.231 75.132 97.92H73.132C73.132 103.532 74.5789 107.803 77.709 110.459L79.003 108.933ZM75.132 97.92V78.208H73.132V97.92H75.132ZM75.132 78.208C75.132 72.9117 76.5365 69.228 79.1456 66.9258L77.8224 65.4262C74.6289 68.244 73.132 72.5816 73.132 78.208H75.132ZM79.1456 66.9258C81.7917 64.591 85.8628 63.336 91.54 63.336V61.336C85.6118 61.336 80.9789 62.641 77.8224 65.4262L79.1456 66.9258ZM91.54 63.336H105.748V61.336H91.54V63.336ZM105.748 63.336C111.445 63.336 115.533 64.4715 118.182 66.5751L119.426 65.0089C116.272 62.5045 111.656 61.336 105.748 61.336V63.336ZM118.197 66.5864C120.743 68.5338 122.156 72.0388 122.156 77.44H124.156C124.156 71.7479 122.668 67.4876 119.411 64.9976L118.197 66.5864ZM122.156 77.44V128.256H124.156V77.44H122.156Z" fill="#ED7676"/>
</svg>
