<svg width="200" height="200" viewBox="0 0 200 200" fill="none" xmlns="http://www.w3.org/2000/svg">
<rect width="200" height="200" fill="white"/>
<path d="M127.062 102.375C127.062 117.125 122.354 130.125 112.938 141.375C103.521 152.625 92.7708 158.25 80.6875 158.25C76.8542 158.25 73.75 157.75 71.375 156.75C68.25 155.458 66.6875 153.458 66.6875 150.75C66.6875 149.208 67.25 147.938 68.375 146.938C69.5417 145.979 70.9375 145.5 72.5625 145.5C73.3958 145.5 74.1667 145.625 74.875 145.875C75.625 146.083 76.1875 146.375 76.5625 146.75C76.9375 147.125 77.125 147.417 77.125 147.625C77.125 147.917 76.8542 148.083 76.3125 148.125C75.7708 148.208 75.3125 148.458 74.9375 148.875C74.5208 149.333 74.3125 150 74.3125 150.875C74.3125 152.375 75.2292 153.438 77.0625 154.062C78.3958 154.521 80.1875 154.75 82.4375 154.75C91.6458 154.75 99.8958 150.292 107.188 141.375C114.938 131.875 118.812 120.333 118.812 106.75C118.812 97.4583 117.229 89.5208 114.062 82.9375C110.104 74.7292 104.396 70.625 96.9375 70.625C91.5208 70.625 87.0625 72.3958 83.5625 75.9375C79.7292 79.8125 77.8125 85.0833 77.8125 91.75C77.8125 97.5 79.3542 102.5 82.4375 106.75C85.7708 111.333 89.9792 113.625 95.0625 113.625C97.3958 113.625 99.4583 113.062 101.25 111.938C103.292 110.646 104.312 108.958 104.312 106.875C104.312 105.417 104.146 104.375 103.812 103.75C103.521 103.083 103.062 102.583 102.438 102.25L101.938 101.625C101.938 101.375 102.146 101.125 102.562 100.875C103.479 100.417 104.438 100.25 105.438 100.375C107.604 100.375 109.354 101.271 110.688 103.062C112.021 104.896 112.688 107 112.688 109.375C112.688 113.083 110.938 116.062 107.438 118.312C104.271 120.354 100.521 121.375 96.1875 121.375C89.0625 121.375 83.3333 118.667 79 113.25C74.7083 107.833 72.5625 100.792 72.5625 92.125C72.5625 84.9583 75.1667 78.8542 80.375 73.8125C85.5833 68.7708 91.7708 66.25 98.9375 66.25C107.438 66.25 114.354 70.0208 119.688 77.5625C124.604 84.5208 127.062 92.7917 127.062 102.375Z" fill="black"/>
</svg>
