<svg width="286" height="286" viewBox="0 0 286 286" fill="none" xmlns="http://www.w3.org/2000/svg">
<rect width="286" height="286" transform="matrix(1 0 0 -1 0 286)" fill="white"/>
<path d="M8.2191 127.156H14.4751V143.026C14.4751 143.793 14.4598 144.651 14.4291 145.602C14.3984 146.553 14.3678 147.488 14.3371 148.408C14.3064 149.297 14.2758 150.079 14.2451 150.754C14.2144 151.398 14.1838 151.843 14.1531 152.088H14.2911L29.4711 127.156H37.7971V160H31.5871V144.222C31.5871 143.394 31.6024 142.489 31.6331 141.508C31.6638 140.496 31.6944 139.53 31.7251 138.61C31.7864 137.69 31.8324 136.893 31.8631 136.218C31.9244 135.513 31.9704 135.053 32.0011 134.838H31.8171L16.5911 160H8.2191V127.156ZM54.6902 134.424C56.4996 134.424 58.1862 134.669 59.7502 135.16C61.3449 135.62 62.6176 136.341 63.5682 137.322C64.5496 138.303 65.0402 139.561 65.0402 141.094C65.0402 142.597 64.5802 143.793 63.6602 144.682C62.7709 145.571 61.5596 146.215 60.0262 146.614V146.844C61.0996 147.089 62.0656 147.442 62.9242 147.902C63.7829 148.331 64.4576 148.929 64.9482 149.696C65.4696 150.432 65.7302 151.429 65.7302 152.686C65.7302 154.066 65.2856 155.354 64.3962 156.55C63.5376 157.715 62.1882 158.666 60.3482 159.402C58.5389 160.107 56.2082 160.46 53.3562 160.46C52.0069 160.46 50.7342 160.399 49.5382 160.276C48.3422 160.153 47.2536 159.985 46.2722 159.77C45.2909 159.525 44.4322 159.233 43.6962 158.896V153.238C44.7389 153.729 46.0116 154.173 47.5142 154.572C49.0476 154.971 50.6729 155.17 52.3902 155.17C53.6476 155.17 54.7669 155.078 55.7482 154.894C56.7602 154.71 57.5576 154.403 58.1402 153.974C58.7536 153.545 59.0602 152.977 59.0602 152.272C59.0602 151.597 58.7996 151.045 58.2782 150.616C57.7569 150.156 56.9749 149.819 55.9322 149.604C54.8896 149.389 53.5556 149.282 51.9302 149.282H49.2622V144.544H51.7922C54.0616 144.544 55.8096 144.36 57.0362 143.992C58.2936 143.624 58.9222 142.934 58.9222 141.922C58.9222 141.125 58.5236 140.527 57.7262 140.128C56.9289 139.699 55.6256 139.484 53.8162 139.484C52.6202 139.484 51.3169 139.622 49.9062 139.898C48.4956 140.174 47.1616 140.573 45.9042 141.094L43.8802 136.31C45.3216 135.758 46.9009 135.313 48.6182 134.976C50.3356 134.608 52.3596 134.424 54.6902 134.424ZM102.7 134.884V160H96.3059V147.672C96.3059 146.445 96.3212 145.249 96.3519 144.084C96.4132 142.919 96.4899 141.845 96.5819 140.864H96.4439L89.4979 160H84.3459L77.3079 140.818H77.1239C77.2465 141.83 77.3232 142.919 77.3539 144.084C77.4152 145.219 77.4459 146.476 77.4459 147.856V160H71.0519V134.884H80.7579L87.0139 151.904L93.3619 134.884H102.7ZM120.214 134.424C122.545 134.424 124.538 134.869 126.194 135.758C127.881 136.647 129.184 137.935 130.104 139.622C131.024 141.309 131.484 143.379 131.484 145.832V149.144H115.292C115.354 151.076 115.921 152.594 116.994 153.698C118.098 154.802 119.616 155.354 121.548 155.354C123.174 155.354 124.646 155.201 125.964 154.894C127.283 154.557 128.648 154.051 130.058 153.376V158.666C128.832 159.279 127.528 159.724 126.148 160C124.799 160.307 123.158 160.46 121.226 160.46C118.712 160.46 116.488 160 114.556 159.08C112.624 158.129 111.106 156.703 110.002 154.802C108.898 152.901 108.346 150.509 108.346 147.626C108.346 144.682 108.837 142.244 109.818 140.312C110.83 138.349 112.226 136.877 114.004 135.896C115.783 134.915 117.853 134.424 120.214 134.424ZM120.26 139.3C118.942 139.3 117.838 139.729 116.948 140.588C116.09 141.447 115.584 142.781 115.43 144.59H125.044C125.044 143.578 124.86 142.673 124.492 141.876C124.155 141.079 123.634 140.45 122.928 139.99C122.223 139.53 121.334 139.3 120.26 139.3ZM143.896 134.884V144.544H153.464V134.884H160.318V160H153.464V149.65H143.896V160H137.042V134.884H143.896ZM177.849 134.424C180.18 134.424 182.173 134.869 183.829 135.758C185.516 136.647 186.819 137.935 187.739 139.622C188.659 141.309 189.119 143.379 189.119 145.832V149.144H172.927C172.988 151.076 173.556 152.594 174.629 153.698C175.733 154.802 177.251 155.354 179.183 155.354C180.808 155.354 182.28 155.201 183.599 154.894C184.918 154.557 186.282 154.051 187.693 153.376V158.666C186.466 159.279 185.163 159.724 183.783 160C182.434 160.307 180.793 160.46 178.861 160.46C176.346 160.46 174.123 160 172.191 159.08C170.259 158.129 168.741 156.703 167.637 154.802C166.533 152.901 165.981 150.509 165.981 147.626C165.981 144.682 166.472 142.244 167.453 140.312C168.465 138.349 169.86 136.877 171.639 135.896C173.418 134.915 175.488 134.424 177.849 134.424ZM177.895 139.3C176.576 139.3 175.472 139.729 174.583 140.588C173.724 141.447 173.218 142.781 173.065 144.59H182.679C182.679 143.578 182.495 142.673 182.127 141.876C181.79 141.079 181.268 140.45 180.563 139.99C179.858 139.53 178.968 139.3 177.895 139.3ZM201.531 134.884V144.544H211.099V134.884H217.953V160H211.099V149.65H201.531V160H194.677V134.884H201.531ZM231.758 144.82C231.758 145.341 231.727 145.985 231.666 146.752C231.635 147.519 231.589 148.301 231.528 149.098C231.497 149.895 231.451 150.601 231.39 151.214C231.329 151.827 231.283 152.257 231.252 152.502L242.844 134.884H251.078V160H244.454V149.972C244.454 149.144 244.485 148.239 244.546 147.258C244.607 146.246 244.669 145.311 244.73 144.452C244.822 143.563 244.883 142.888 244.914 142.428L233.368 160H225.134V134.884H231.758V144.82ZM262.059 160H254.653L261.415 150.064C260.557 149.696 259.744 149.205 258.977 148.592C258.241 147.948 257.643 147.135 257.183 146.154C256.723 145.173 256.493 144.007 256.493 142.658C256.493 140.143 257.444 138.227 259.345 136.908C261.247 135.559 263.685 134.884 266.659 134.884H278.343V160H271.489V150.662H267.717L262.059 160ZM263.209 142.704C263.209 143.747 263.623 144.575 264.451 145.188C265.279 145.771 266.353 146.062 267.671 146.062H271.489V139.714H266.797C265.571 139.714 264.666 140.021 264.083 140.634C263.501 141.217 263.209 141.907 263.209 142.704Z" fill="black"/>
</svg>
