<svg width="286" height="286" viewBox="0 0 286 286" fill="none" xmlns="http://www.w3.org/2000/svg">
<rect width="286" height="286" fill="white"/>
<g filter="url(#filter0_d_8_5)">
<path d="M103.941 194.92C98.1805 194.92 92.9325 193.533 88.1965 190.76C83.5032 187.944 79.7485 184.147 76.9325 179.368C74.1592 174.547 72.7725 169.128 72.7725 163.112V131.176C72.7725 124.989 74.1592 119.485 76.9325 114.664C79.7058 109.8 83.4818 105.981 88.2605 103.208C93.0818 100.392 98.5432 98.984 104.645 98.984C109.893 98.984 114.757 100.136 119.237 102.44C123.759 104.744 127.45 107.965 130.309 112.104L123.077 118.056C121.114 114.984 118.511 112.531 115.269 110.696C112.026 108.861 108.485 107.944 104.645 107.944C100.335 107.944 96.4952 108.989 93.1245 111.08C89.7538 113.171 87.1085 115.923 85.1885 119.336C83.2685 122.707 82.3085 126.376 82.3085 130.344V150.44L79.9405 147.752C82.6285 143.528 86.1485 140.115 90.5005 137.512C94.8952 134.909 99.6738 133.608 104.837 133.608C110.554 133.608 115.695 134.973 120.261 137.704C124.826 140.392 128.453 144.04 131.141 148.648C133.829 153.256 135.173 158.419 135.173 164.136C135.173 169.811 133.743 174.973 130.885 179.624C128.069 184.275 124.293 187.987 119.557 190.76C114.863 193.533 109.658 194.92 103.941 194.92ZM103.941 185.768C107.951 185.768 111.599 184.808 114.885 182.888C118.213 180.968 120.837 178.365 122.757 175.08C124.719 171.795 125.701 168.147 125.701 164.136C125.701 160.125 124.719 156.477 122.757 153.192C120.837 149.864 118.234 147.24 114.949 145.32C111.663 143.357 108.015 142.376 104.005 142.376C99.9938 142.376 96.3458 143.357 93.0605 145.32C89.7752 147.24 87.1512 149.864 85.1885 153.192C83.2685 156.477 82.3085 160.125 82.3085 164.136C82.3085 168.104 83.2685 171.731 85.1885 175.016C87.1085 178.301 89.7112 180.925 92.9965 182.888C96.2818 184.808 99.9298 185.768 103.941 185.768Z" fill="#090707"/>
<path d="M88.1965 190.76L87.682 191.618L87.6912 191.623L88.1965 190.76ZM76.9325 179.368L76.0656 179.867L76.071 179.876L76.9325 179.368ZM76.9325 114.664L77.7993 115.163L77.8012 115.159L76.9325 114.664ZM88.2605 103.208L88.7625 104.073L88.7648 104.071L88.2605 103.208ZM119.237 102.44L118.779 103.329L118.783 103.331L119.237 102.44ZM130.309 112.104L130.944 112.876L131.654 112.292L131.131 111.536L130.309 112.104ZM123.077 118.056L122.234 118.594L122.841 119.545L123.712 118.828L123.077 118.056ZM115.269 110.696L114.776 111.566H114.776L115.269 110.696ZM93.1245 111.08L93.6516 111.93L93.1245 111.08ZM85.1885 119.336L86.0574 119.831L86.0601 119.826L85.1885 119.336ZM82.3085 150.44L81.5581 151.101L83.3085 153.088V150.44H82.3085ZM79.9405 147.752L79.0968 147.215L78.6934 147.849L79.1901 148.413L79.9405 147.752ZM90.5005 137.512L89.9909 136.652L89.9872 136.654L90.5005 137.512ZM120.26 137.704L119.747 138.562L119.753 138.566L120.26 137.704ZM131.141 148.648L132.004 148.144L131.141 148.648ZM130.885 179.624L130.033 179.1L130.029 179.106L130.885 179.624ZM119.557 190.76L119.051 189.897L119.048 189.899L119.557 190.76ZM114.885 182.888L114.385 182.022L114.38 182.025L114.885 182.888ZM122.757 175.08L121.898 174.567L121.893 174.575L122.757 175.08ZM122.757 153.192L121.89 153.692L121.894 153.698L121.898 153.705L122.757 153.192ZM114.949 145.32L114.436 146.179L114.444 146.183L114.949 145.32ZM93.0605 145.32L93.5651 146.183L93.5734 146.178L93.0605 145.32ZM85.1885 153.192L84.3271 152.684L84.3251 152.687L85.1885 153.192ZM85.1885 175.016L86.0519 174.511L85.1885 175.016ZM92.9965 182.888L92.4836 183.747L92.4919 183.751L92.9965 182.888ZM103.941 193.92C98.349 193.92 93.2768 192.576 88.7018 189.897L87.6912 191.623C92.5882 194.491 98.012 195.92 103.941 195.92V193.92ZM88.711 189.903C84.1627 187.174 80.5265 183.497 77.794 178.86L76.071 179.876C78.9705 184.796 82.8436 188.714 87.682 191.617L88.711 189.903ZM77.7993 178.869C75.1203 174.212 73.7725 168.968 73.7725 163.112H71.7725C71.7725 169.288 73.198 174.881 76.0657 179.867L77.7993 178.869ZM73.7725 163.112V131.176H71.7725V163.112H73.7725ZM73.7725 131.176C73.7725 125.144 75.1228 119.816 77.7993 115.163L76.0657 114.165C73.1956 119.155 71.7725 124.834 71.7725 131.176H73.7725ZM77.8012 115.159C80.4883 110.447 84.1387 106.756 88.7625 104.073L87.7586 102.343C82.825 105.206 78.9234 109.153 76.0638 114.169L77.8012 115.159ZM88.7648 104.071C93.4191 101.353 98.7035 99.984 104.645 99.984V97.984C98.3829 97.984 92.7445 99.4309 87.7562 102.344L88.7648 104.071ZM104.645 99.984C109.74 99.984 114.447 101.101 118.779 103.329L119.694 101.551C115.066 99.1709 110.045 97.984 104.645 97.984V99.984ZM118.783 103.331C123.159 105.56 126.722 108.671 129.486 112.672L131.131 111.536C128.177 107.259 124.36 103.928 119.69 101.549L118.783 103.331ZM129.673 111.332L122.441 117.284L123.712 118.828L130.944 112.876L129.673 111.332ZM123.919 117.518C121.867 114.305 119.142 111.739 115.761 109.826L114.776 111.566C117.88 113.322 120.361 115.663 122.234 118.594L123.919 117.518ZM115.761 109.826C112.363 107.903 108.652 106.944 104.645 106.944V108.944C108.317 108.944 111.688 109.819 114.776 111.566L115.761 109.826ZM104.645 106.944C100.166 106.944 96.14 108.033 92.5974 110.23L93.6516 111.93C96.8504 109.946 100.505 108.944 104.645 108.944V106.944ZM92.5974 110.23C89.0854 112.409 86.3207 115.283 84.3169 118.846L86.0601 119.826C87.8963 116.562 90.4223 113.933 93.6516 111.93L92.5974 110.23ZM84.3196 118.841C82.3116 122.366 81.3085 126.207 81.3085 130.344H83.3085C83.3085 126.545 84.2254 123.047 86.0574 119.831L84.3196 118.841ZM81.3085 130.344V150.44H83.3085V130.344H81.3085ZM83.0589 149.779L80.6909 147.091L79.1901 148.413L81.5581 151.101L83.0589 149.779ZM80.7842 148.289C83.3874 144.198 86.7936 140.894 91.0138 138.37L89.9872 136.654C85.5034 139.335 81.8696 142.858 79.0968 147.215L80.7842 148.289ZM91.0101 138.372C95.2487 135.862 99.8511 134.608 104.837 134.608V132.608C99.4966 132.608 94.5416 133.957 89.9909 136.652L91.0101 138.372ZM104.837 134.608C110.387 134.608 115.349 135.931 119.747 138.562L120.774 136.846C116.042 134.015 110.721 132.608 104.837 132.608V134.608ZM119.753 138.566C124.17 141.166 127.674 144.691 130.277 149.152L132.004 148.144C129.231 143.389 125.482 139.618 120.768 136.842L119.753 138.566ZM130.277 149.152C132.869 153.596 134.173 158.583 134.173 164.136H136.173C136.173 158.255 134.788 152.916 132.004 148.144L130.277 149.152ZM134.173 164.136C134.173 169.633 132.79 174.614 130.033 179.1L131.736 180.148C134.696 175.333 136.173 169.988 136.173 164.136H134.173ZM130.029 179.106C127.3 183.613 123.645 187.207 119.051 189.897L120.062 191.623C124.94 188.766 128.837 184.936 131.74 180.142L130.029 179.106ZM119.048 189.899C114.516 192.577 109.488 193.92 103.941 193.92V195.92C109.828 195.92 115.21 194.49 120.065 191.621L119.048 189.899ZM103.941 186.768C108.119 186.768 111.942 185.766 115.389 183.751L114.38 182.025C111.256 183.85 107.784 184.768 103.941 184.768V186.768ZM115.384 183.754C118.861 181.748 121.611 179.022 123.62 175.585L121.893 174.575C120.062 177.709 117.564 180.188 114.385 182.022L115.384 183.754ZM123.615 175.593C125.675 172.145 126.701 168.318 126.701 164.136H124.701C124.701 167.975 123.764 171.444 121.898 174.567L123.615 175.593ZM126.701 164.136C126.701 159.954 125.675 156.127 123.615 152.679L121.898 153.705C123.764 156.828 124.701 160.297 124.701 164.136H126.701ZM123.623 152.692C121.617 149.215 118.89 146.465 115.453 144.457L114.444 146.183C117.578 148.015 120.056 150.513 121.89 153.692L123.623 152.692ZM115.461 144.462C112.013 142.402 108.187 141.376 104.005 141.376V143.376C107.844 143.376 111.313 144.313 114.436 146.178L115.461 144.462ZM104.005 141.376C99.8223 141.376 95.9956 142.402 92.5476 144.462L93.5734 146.178C96.6961 144.313 100.165 143.376 104.005 143.376V141.376ZM92.5559 144.457C89.1209 146.464 86.3751 149.211 84.3271 152.684L86.0499 153.7C87.9273 150.517 90.4294 148.016 93.5651 146.183L92.5559 144.457ZM84.3251 152.687C82.3108 156.134 81.3085 159.958 81.3085 164.136H83.3085C83.3085 160.293 84.2262 156.82 86.0519 153.697L84.3251 152.687ZM81.3085 164.136C81.3085 168.273 82.3117 172.075 84.3251 175.521L86.0519 174.511C84.2253 171.386 83.3085 167.935 83.3085 164.136H81.3085ZM84.3251 175.521C86.3308 178.952 89.0544 181.698 92.4836 183.746L93.5094 182.03C90.368 180.153 87.8862 177.65 86.0519 174.511L84.3251 175.521ZM92.4919 183.751C95.9387 185.766 99.7625 186.768 103.941 186.768V184.768C100.097 184.768 96.6249 183.85 93.5011 182.025L92.4919 183.751Z" fill="black"/>
</g>
<path d="M151.523 193V100.84H209.123V109.864H160.931V193H151.523Z" fill="black"/>
<defs>
<filter id="filter0_d_8_5" x="68.7725" y="98.984" width="70.4" height="103.936" filterUnits="userSpaceOnUse" color-interpolation-filters="sRGB">
<feFlood flood-opacity="0" result="BackgroundImageFix"/>
<feColorMatrix in="SourceAlpha" type="matrix" values="0 0 0 0 0 0 0 0 0 0 0 0 0 0 0 0 0 0 127 0" result="hardAlpha"/>
<feOffset dy="4"/>
<feGaussianBlur stdDeviation="2"/>
<feComposite in2="hardAlpha" operator="out"/>
<feColorMatrix type="matrix" values="0 0 0 0 0 0 0 0 0 0 0 0 0 0 0 0 0 0 0.25 0"/>
<feBlend mode="normal" in2="BackgroundImageFix" result="effect1_dropShadow_8_5"/>
<feBlend mode="normal" in="SourceGraphic" in2="effect1_dropShadow_8_5" result="shape"/>
</filter>
</defs>
</svg>
