<svg width="200" height="200" viewBox="0 0 200 200" fill="none" xmlns="http://www.w3.org/2000/svg">
<rect width="200" height="200" fill="#D9D9D9"/>
<path d="M98.888 123.648H88.904V114.944C88.904 113.152 89.0747 111.744 89.416 110.72C89.8427 109.611 90.4827 108.544 91.336 107.52C92.2747 106.496 93.512 105.131 95.048 103.424L106.056 92.032C106.483 91.6053 106.739 91.264 106.824 91.008C106.995 90.752 107.08 90.3253 107.08 89.728V72.576C107.08 71.808 106.653 71.424 105.8 71.424H80.968V62.464H101.448C106.824 62.464 110.792 63.5733 113.352 65.792C115.997 68.0107 117.32 71.7653 117.32 77.056V87.936C117.32 90.5813 116.68 92.8 115.4 94.592C114.12 96.2987 112.2 98.5173 109.64 101.248L101.192 110.08C100.253 111.019 99.656 111.872 99.4 112.64C99.144 113.408 99.016 114.517 99.016 115.968L98.888 123.648ZM99.016 144H88.776V131.84H99.016V144Z" fill="black"/>
<path d="M98.888 123.648V124.648H99.8715L99.8879 123.665L98.888 123.648ZM88.904 123.648H87.904V124.648H88.904V123.648ZM89.416 110.72L88.4827 110.361L88.4745 110.382L88.4673 110.404L89.416 110.72ZM91.336 107.52L90.5988 106.844L90.5829 106.862L90.5678 106.88L91.336 107.52ZM95.048 103.424L94.3289 102.729L94.3166 102.742L94.3047 102.755L95.048 103.424ZM106.056 92.032L105.349 91.3249L105.343 91.331L105.337 91.3371L106.056 92.032ZM106.824 91.008L105.992 90.4533L105.918 90.5647L105.875 90.6918L106.824 91.008ZM80.968 71.424H79.968V72.424H80.968V71.424ZM80.968 62.464V61.464H79.968V62.464H80.968ZM113.352 65.792L112.697 66.5477L112.703 66.553L112.709 66.5582L113.352 65.792ZM115.4 94.592L116.2 95.192L116.207 95.1827L116.214 95.1732L115.4 94.592ZM109.64 101.248L110.363 101.939L110.37 101.932L109.64 101.248ZM101.192 110.08L101.899 110.787L101.907 110.779L101.915 110.771L101.192 110.08ZM99.4 112.64L100.349 112.956L100.349 112.956L99.4 112.64ZM99.016 115.968L100.016 115.985L100.016 115.976V115.968H99.016ZM99.016 144V145H100.016V144H99.016ZM88.776 144H87.776V145H88.776V144ZM88.776 131.84V130.84H87.776V131.84H88.776ZM99.016 131.84H100.016V130.84H99.016V131.84ZM98.888 122.648H88.904V124.648H98.888V122.648ZM89.904 123.648V114.944H87.904V123.648H89.904ZM89.904 114.944C89.904 113.198 90.0724 111.913 90.3647 111.036L88.4673 110.404C88.0769 111.575 87.904 113.106 87.904 114.944H89.904ZM90.3493 111.079C90.7323 110.083 91.3125 109.11 92.1042 108.16L90.5678 106.88C89.6528 107.978 88.9531 109.138 88.4827 110.361L90.3493 111.079ZM92.0732 108.196C93.0148 107.169 94.2544 105.801 95.7913 104.093L94.3047 102.755C92.7696 104.461 91.5346 105.823 90.5988 106.844L92.0732 108.196ZM95.7671 104.119L106.775 92.7269L105.337 91.3371L94.3289 102.729L95.7671 104.119ZM106.763 92.7391C107.196 92.3062 107.607 91.822 107.773 91.3242L105.875 90.6918C105.88 90.6763 105.864 90.7274 105.768 90.856C105.677 90.9769 105.541 91.1325 105.349 91.3249L106.763 92.7391ZM107.656 91.5627C107.999 91.0485 108.08 90.3669 108.08 89.728H106.08C106.08 89.9833 106.061 90.17 106.035 90.2999C106.009 90.4342 105.981 90.469 105.992 90.4533L107.656 91.5627ZM108.08 89.728V72.576H106.08V89.728H108.08ZM108.08 72.576C108.08 72.009 107.918 71.4085 107.429 70.9687C106.96 70.5469 106.356 70.424 105.8 70.424V72.424C106.097 72.424 106.133 72.4931 106.091 72.4553C106.069 72.4355 106.061 72.4162 106.062 72.4193C106.066 72.4282 106.08 72.474 106.08 72.576H108.08ZM105.8 70.424H80.968V72.424H105.8V70.424ZM81.968 71.424V62.464H79.968V71.424H81.968ZM80.968 63.464H101.448V61.464H80.968V63.464ZM101.448 63.464C106.717 63.464 110.399 64.5563 112.697 66.5477L114.007 65.0363C111.185 62.5904 106.931 61.464 101.448 61.464V63.464ZM112.709 66.5582C115.03 68.5043 116.32 71.9024 116.32 77.056H118.32C118.32 71.6283 116.965 67.5171 113.995 65.0258L112.709 66.5582ZM116.32 77.056V87.936H118.32V77.056H116.32ZM116.32 87.936C116.32 90.4158 115.722 92.4202 114.586 94.0108L116.214 95.1732C117.638 93.1798 118.32 90.7469 118.32 87.936H116.32ZM114.6 93.992C113.352 95.6556 111.461 97.8434 108.91 100.564L110.37 101.932C112.939 99.1912 114.888 96.9418 116.2 95.192L114.6 93.992ZM108.917 100.557L100.469 109.389L101.915 110.771L110.363 101.939L108.917 100.557ZM100.485 109.373C99.4985 110.359 98.7782 111.343 98.4513 112.324L100.349 112.956C100.534 112.401 101.008 111.678 101.899 110.787L100.485 109.373ZM98.4513 112.324C98.1445 113.244 98.016 114.481 98.016 115.968H100.016C100.016 114.554 100.144 113.572 100.349 112.956L98.4513 112.324ZM98.0161 115.951L97.8881 123.631L99.8879 123.665L100.016 115.985L98.0161 115.951ZM99.016 143H88.776V145H99.016V143ZM89.776 144V131.84H87.776V144H89.776ZM88.776 132.84H99.016V130.84H88.776V132.84ZM98.016 131.84V144H100.016V131.84H98.016Z" fill="#ED7676"/>
</svg>
