<svg width="200" height="200" viewBox="0 0 200 200" fill="none" xmlns="http://www.w3.org/2000/svg">
<path d="M0 0H200V200H0V0Z" fill="white"/>
<path d="M123.75 77C123.75 81.25 122.667 85.2083 120.5 88.875C118.833 91.7083 116.25 94.7083 112.75 97.875C109.75 100.458 106.75 103.042 103.75 105.625C101.875 107.208 100.521 108.583 99.6875 109.75C98.2292 111.75 97.5 113.833 97.5 116C97.5 117 97.625 117.958 97.875 118.875C98.125 119.75 98.5833 120.583 99.25 121.375C99.7083 121.958 100.146 122.354 100.562 122.562C101.021 122.771 101.458 122.917 101.875 123C102.417 123 102.688 123.188 102.688 123.562C102.688 123.771 102.542 123.958 102.25 124.125C101.5 124.5 101.021 124.75 100.812 124.875C100.562 125 100.083 125.333 99.375 125.875C99 126.167 98.5208 126.562 97.9375 127.062C97.5625 127.438 97.2917 127.667 97.125 127.75C96.7917 127.958 96.5 128.062 96.25 128.062C96 128.062 95.7083 127.958 95.375 127.75C94.375 127.208 93.5208 126.292 92.8125 125C92.1458 123.667 91.7083 122.208 91.5 120.625C91.5 120.333 91.4792 120.021 91.4375 119.688C91.4375 119.312 91.4375 119.062 91.4375 118.938C91.4375 116.979 91.7708 115.021 92.4375 113.062C92.9792 111.438 93.7917 109.75 94.875 108C95.7083 106.625 97.125 104.958 99.125 103C100.25 101.875 101.667 100.583 103.375 99.125C106.625 96.25 108.896 93.8333 110.188 91.875C113.146 87.375 114.625 82 114.625 75.75C114.625 71.3333 113.438 67.7083 111.062 64.875C108.354 61.625 104.5 60 99.5 60C95.0833 60 91.4792 61.3125 88.6875 63.9375C86.0625 66.3958 84.75 69.3333 84.75 72.75C84.75 75.75 85.2708 78.0833 86.3125 79.75C87.3542 81.4167 88.9583 82.25 91.125 82.25C92.875 82.25 94.4167 81.4583 95.75 79.875C96 79.5833 96.2083 79.1875 96.375 78.6875C96.5417 78.1458 96.6667 77.7292 96.75 77.4375C96.875 77.1458 97.1042 77 97.4375 77C97.6875 77 97.9583 77.2083 98.25 77.625C98.5833 78.0417 98.8542 78.8542 99.0625 80.0625C99.2708 81.2292 99.375 82.3333 99.375 83.375C99.1667 85.4583 98.1667 87.2292 96.375 88.6875C94.5833 90.1458 92.5 90.875 90.125 90.875C86.875 90.875 84.2708 89.5833 82.3125 87C80.3542 84.4167 79.375 81.0417 79.375 76.875C79.375 71.0417 81.4583 66.2083 85.625 62.375C89.7917 58.5417 94.8333 56.625 100.75 56.625C107.583 56.625 113.062 58.3333 117.188 61.75C121.562 65.375 123.75 70.4583 123.75 77ZM104.125 141.125C104.125 143.083 103.438 144.708 102.062 146C100.729 147.333 99.0833 148 97.125 148C95.1667 148 93.5 147.333 92.125 146C90.7917 144.708 90.125 143.083 90.125 141.125C90.125 139.125 90.7917 137.458 92.125 136.125C93.4583 134.792 95.125 134.125 97.125 134.125C99.0417 134.125 100.688 134.792 102.062 136.125C103.438 137.458 104.125 139.125 104.125 141.125Z" fill="black"/>
</svg>
