<svg width="200" height="200" viewBox="0 0 200 200" fill="none" xmlns="http://www.w3.org/2000/svg">
<rect width="200" height="200" fill="#D9D9D9"/>
<path d="M5.30012 87.01H8.24012V100.73C8.24012 101.313 8.22845 101.955 8.20512 102.655C8.20512 103.332 8.19345 104.008 8.17012 104.685C8.14678 105.362 8.11178 105.968 8.06512 106.505C8.04178 107.018 8.01845 107.415 7.99512 107.695H8.13512L21.8901 87.01H25.3901V112H22.4501V98.42C22.4501 97.79 22.4618 97.1133 22.4851 96.39C22.5085 95.6433 22.5318 94.9317 22.5551 94.255C22.6018 93.555 22.6368 92.9367 22.6601 92.4C22.6835 91.8633 22.7068 91.4667 22.7301 91.21H22.5901L8.80012 112H5.30012V87.01ZM36.6454 92.89C38.0687 92.89 39.3054 93.0883 40.3554 93.485C41.4054 93.8583 42.222 94.4183 42.8054 95.165C43.3887 95.8883 43.6804 96.775 43.6804 97.825C43.6804 98.9683 43.3654 99.8783 42.7354 100.555C42.1054 101.208 41.242 101.687 40.1454 101.99V102.13C40.892 102.34 41.5804 102.632 42.2104 103.005C42.8404 103.378 43.342 103.868 43.7154 104.475C44.112 105.082 44.3104 105.863 44.3104 106.82C44.3104 107.847 44.0187 108.78 43.4354 109.62C42.8754 110.46 42.0004 111.125 40.8104 111.615C39.6437 112.105 38.1387 112.35 36.2954 112.35C35.4087 112.35 34.557 112.303 33.7404 112.21C32.947 112.117 32.2237 111.977 31.5704 111.79C30.9404 111.603 30.3804 111.382 29.8904 111.125V108.36C30.6837 108.733 31.617 109.072 32.6904 109.375C33.787 109.678 34.977 109.83 36.2604 109.83C37.1937 109.83 38.0337 109.725 38.7804 109.515C39.5504 109.305 40.157 108.978 40.6004 108.535C41.0437 108.068 41.2654 107.438 41.2654 106.645C41.2654 105.922 41.067 105.338 40.6704 104.895C40.2737 104.428 39.6787 104.078 38.8854 103.845C38.1154 103.612 37.1237 103.495 35.9104 103.495H33.3904V100.975H35.4204C37.0304 100.975 38.3137 100.765 39.2704 100.345C40.2504 99.9017 40.7404 99.155 40.7404 98.105C40.7404 97.2183 40.367 96.5533 39.6204 96.11C38.897 95.6667 37.847 95.445 36.4704 95.445C35.4437 95.445 34.5337 95.55 33.7404 95.76C32.9704 95.9467 32.1187 96.2383 31.1854 96.635L30.1004 94.185C31.1037 93.7417 32.1537 93.415 33.2504 93.205C34.347 92.995 35.4787 92.89 36.6454 92.89ZM68.9936 93.24V112H66.2286V100.03C66.2286 99.54 66.2402 99.0267 66.2636 98.49C66.3102 97.9533 66.3569 97.4283 66.4036 96.915H66.2986L60.1736 112H57.5836L51.6336 96.915H51.5286C51.5752 97.4283 51.5986 97.9533 51.5986 98.49C51.6219 99.0267 51.6336 99.575 51.6336 100.135V112H48.8686V93.24H52.9636L58.8786 108.325L64.8986 93.24H68.9936ZM82.2268 92.89C83.8368 92.89 85.2135 93.24 86.3568 93.94C87.5235 94.64 88.4102 95.6317 89.0168 96.915C89.6468 98.175 89.9618 99.6567 89.9618 101.36V103.215H77.1168C77.1635 105.338 77.7002 106.96 78.7268 108.08C79.7768 109.177 81.2352 109.725 83.1018 109.725C84.2918 109.725 85.3418 109.62 86.2518 109.41C87.1852 109.177 88.1418 108.85 89.1218 108.43V111.125C88.1652 111.545 87.2202 111.848 86.2868 112.035C85.3535 112.245 84.2452 112.35 82.9618 112.35C81.1885 112.35 79.6135 111.988 78.2368 111.265C76.8835 110.542 75.8218 109.468 75.0518 108.045C74.3052 106.598 73.9318 104.837 73.9318 102.76C73.9318 100.707 74.2702 98.945 74.9468 97.475C75.6468 96.005 76.6152 94.8733 77.8518 94.08C79.1118 93.2867 80.5702 92.89 82.2268 92.89ZM82.1918 95.41C80.7218 95.41 79.5552 95.8883 78.6918 96.845C77.8518 97.7783 77.3502 99.085 77.1868 100.765H86.7418C86.7418 99.6917 86.5785 98.7583 86.2518 97.965C85.9252 97.1717 85.4235 96.5533 84.7468 96.11C84.0935 95.6433 83.2418 95.41 82.1918 95.41ZM97.8177 93.24V101.045H108.003V93.24H111.083V112H108.003V103.635H97.8177V112H94.7377V93.24H97.8177ZM124.268 92.89C125.878 92.89 127.255 93.24 128.398 93.94C129.565 94.64 130.451 95.6317 131.058 96.915C131.688 98.175 132.003 99.6567 132.003 101.36V103.215H119.158C119.205 105.338 119.741 106.96 120.768 108.08C121.818 109.177 123.276 109.725 125.143 109.725C126.333 109.725 127.383 109.62 128.293 109.41C129.226 109.177 130.183 108.85 131.163 108.43V111.125C130.206 111.545 129.261 111.848 128.328 112.035C127.395 112.245 126.286 112.35 125.003 112.35C123.23 112.35 121.655 111.988 120.278 111.265C118.925 110.542 117.863 109.468 117.093 108.045C116.346 106.598 115.973 104.837 115.973 102.76C115.973 100.707 116.311 98.945 116.988 97.475C117.688 96.005 118.656 94.8733 119.893 94.08C121.153 93.2867 122.611 92.89 124.268 92.89ZM124.233 95.41C122.763 95.41 121.596 95.8883 120.733 96.845C119.893 97.7783 119.391 99.085 119.228 100.765H128.783C128.783 99.6917 128.62 98.7583 128.293 97.965C127.966 97.1717 127.465 96.5533 126.788 96.11C126.135 95.6433 125.283 95.41 124.233 95.41ZM139.859 93.24V101.045H150.044V93.24H153.124V112H150.044V103.635H139.859V112H136.779V93.24H139.859ZM161.969 104.685C161.969 104.895 161.957 105.198 161.934 105.595C161.934 105.968 161.922 106.377 161.899 106.82C161.876 107.24 161.852 107.648 161.829 108.045C161.806 108.418 161.782 108.722 161.759 108.955L171.804 93.24H175.584V112H172.714V100.94C172.714 100.567 172.714 100.077 172.714 99.47C172.737 98.8633 172.761 98.2683 172.784 97.685C172.807 97.0783 172.831 96.6233 172.854 96.32L162.879 112H159.064V93.24H161.969V104.685ZM182.709 112H179.139L184.494 104.125C183.771 103.938 183.071 103.647 182.394 103.25C181.717 102.83 181.169 102.258 180.749 101.535C180.329 100.788 180.119 99.8667 180.119 98.77C180.119 96.9733 180.726 95.6083 181.939 94.675C183.152 93.7183 184.762 93.24 186.769 93.24H195.169V112H192.089V104.545H187.539L182.709 112ZM183.094 98.805C183.094 99.8783 183.491 100.683 184.284 101.22C185.101 101.733 186.232 101.99 187.679 101.99H192.089V95.795H187.084C185.661 95.795 184.634 96.075 184.004 96.635C183.397 97.195 183.094 97.9183 183.094 98.805Z" fill="black"/>
<path d="M5.30012 87.01V86.01H4.30012V87.01H5.30012ZM8.24012 87.01H9.24012V86.01H8.24012V87.01ZM8.20512 102.655L7.20567 102.622L7.20512 102.638V102.655H8.20512ZM8.06512 106.505L7.06888 106.418L7.06709 106.439L7.06615 106.46L8.06512 106.505ZM7.99512 107.695L6.99857 107.612L6.90832 108.695H7.99512V107.695ZM8.13512 107.695V108.695H8.67106L8.96782 108.249L8.13512 107.695ZM21.8901 87.01V86.01H21.3542L21.0574 86.4563L21.8901 87.01ZM25.3901 87.01H26.3901V86.01H25.3901V87.01ZM25.3901 112V113H26.3901V112H25.3901ZM22.4501 112H21.4501V113H22.4501V112ZM22.4851 96.39L23.4846 96.4222L23.4846 96.4212L22.4851 96.39ZM22.5551 94.255L21.5573 94.1885L21.5563 94.2045L21.5557 94.2205L22.5551 94.255ZM22.7301 91.21L23.726 91.3005L23.8251 90.21H22.7301V91.21ZM22.5901 91.21V90.21H22.0534L21.7568 90.6572L22.5901 91.21ZM8.80012 112V113H9.3368L9.63346 112.553L8.80012 112ZM5.30012 112H4.30012V113H5.30012V112ZM5.30012 88.01H8.24012V86.01H5.30012V88.01ZM7.24012 87.01V100.73H9.24012V87.01H7.24012ZM7.24012 100.73C7.24012 101.3 7.22871 101.931 7.20567 102.622L9.20456 102.688C9.2282 101.979 9.24012 101.326 9.24012 100.73H7.24012ZM7.20512 102.655C7.20512 103.32 7.19365 103.985 7.17071 104.651L9.16952 104.719C9.19325 104.031 9.20512 103.343 9.20512 102.655H7.20512ZM7.17071 104.651C7.14783 105.314 7.11371 105.903 7.06888 106.418L9.06136 106.592C9.10986 106.034 9.14573 105.409 9.16952 104.719L7.17071 104.651ZM7.06615 106.46C7.043 106.969 7.02034 107.351 6.99857 107.612L8.99166 107.778C9.01656 107.479 9.04057 107.068 9.06409 106.55L7.06615 106.46ZM7.99512 108.695H8.13512V106.695H7.99512V108.695ZM8.96782 108.249L22.7228 87.5637L21.0574 86.4563L7.30242 107.141L8.96782 108.249ZM21.8901 88.01H25.3901V86.01H21.8901V88.01ZM24.3901 87.01V112H26.3901V87.01H24.3901ZM25.3901 111H22.4501V113H25.3901V111ZM23.4501 112V98.42H21.4501V112H23.4501ZM23.4501 98.42C23.4501 97.8022 23.4616 97.1364 23.4846 96.4222L21.4856 96.3578C21.462 97.0903 21.4501 97.7778 21.4501 98.42H23.4501ZM23.4846 96.4212C23.5079 95.6755 23.5312 94.9649 23.5545 94.2895L21.5557 94.2205C21.5323 94.8984 21.509 95.6111 21.4856 96.3588L23.4846 96.4212ZM23.5529 94.3215C23.5999 93.616 23.6354 92.9897 23.6592 92.4434L21.6611 92.3566C21.6381 92.8836 21.6036 93.494 21.5573 94.1885L23.5529 94.3215ZM23.6592 92.4434C23.6824 91.9095 23.7049 91.5324 23.726 91.3005L21.7342 91.1195C21.7086 91.4009 21.6845 91.8172 21.6611 92.3566L23.6592 92.4434ZM22.7301 90.21H22.5901V92.21H22.7301V90.21ZM21.7568 90.6572L7.96677 111.447L9.63346 112.553L23.4235 91.7628L21.7568 90.6572ZM8.80012 111H5.30012V113H8.80012V111ZM6.30012 112V87.01H4.30012V112H6.30012ZM40.3554 93.485L40.002 94.4205L40.0111 94.4239L40.0203 94.4272L40.3554 93.485ZM42.8054 95.165L42.0173 95.7806L42.0221 95.7867L42.0269 95.7928L42.8054 95.165ZM42.7354 100.555L43.4552 101.249L43.4613 101.243L43.4672 101.236L42.7354 100.555ZM40.1454 101.99L39.8788 101.026L39.1454 101.229V101.99H40.1454ZM40.1454 102.13H39.1454V102.888L39.8746 103.093L40.1454 102.13ZM42.2104 103.005L41.7005 103.865L41.7006 103.865L42.2104 103.005ZM43.7154 104.475L42.8637 104.999L42.8709 105.011L42.8784 105.022L43.7154 104.475ZM43.4354 109.62L42.614 109.05L42.6086 109.057L42.6033 109.065L43.4354 109.62ZM40.8104 111.615L40.4296 110.69L40.4231 110.693L40.8104 111.615ZM33.7404 112.21L33.6235 113.203L33.6268 113.204L33.7404 112.21ZM31.5704 111.79L31.2862 112.749L31.2956 112.752L31.5704 111.79ZM29.8904 111.125H28.8904V111.73L29.4263 112.011L29.8904 111.125ZM29.8904 108.36L30.3161 107.455L28.8904 106.784V108.36H29.8904ZM32.6904 109.375L32.4184 110.337L32.4238 110.339L32.6904 109.375ZM38.7804 109.515L38.5172 108.55L38.5096 108.552L38.7804 109.515ZM40.6004 108.535L41.3075 109.242L41.3165 109.233L41.3254 109.224L40.6004 108.535ZM40.6704 104.895L39.9084 105.543L39.9166 105.552L39.9251 105.562L40.6704 104.895ZM38.8854 103.845L38.5953 104.802L38.6032 104.804L38.8854 103.845ZM33.3904 103.495H32.3904V104.495H33.3904V103.495ZM33.3904 100.975V99.975H32.3904V100.975H33.3904ZM39.2704 100.345L39.6724 101.261L39.6825 101.256L39.2704 100.345ZM39.6204 96.11L39.0977 96.9627L39.1098 96.9699L39.6204 96.11ZM33.7404 95.76L33.976 96.7318L33.9861 96.7294L33.9962 96.7267L33.7404 95.76ZM31.1854 96.635L30.271 97.0399L30.6699 97.9406L31.5765 97.5553L31.1854 96.635ZM30.1004 94.185L29.6962 93.2703L28.7807 93.6748L29.186 94.5899L30.1004 94.185ZM36.6454 93.89C37.9789 93.89 39.0906 94.0762 40.002 94.4205L40.7088 92.5495C39.5201 92.1005 38.1584 91.89 36.6454 91.89V93.89ZM40.0203 94.4272C40.9234 94.7483 41.5702 95.2083 42.0173 95.7806L43.5934 94.5494C42.8738 93.6283 41.8873 92.9684 40.6904 92.5428L40.0203 94.4272ZM42.0269 95.7928C42.4484 96.3153 42.6804 96.972 42.6804 97.825H44.6804C44.6804 96.578 44.329 95.4614 43.5838 94.5372L42.0269 95.7928ZM42.6804 97.825C42.6804 98.7782 42.4227 99.4233 42.0035 99.8736L43.4672 101.236C44.308 100.333 44.6804 99.1585 44.6804 97.825H42.6804ZM42.0155 99.8609C41.5376 100.356 40.8462 100.759 39.8788 101.026L40.4119 102.954C41.6378 102.615 42.6731 102.06 43.4552 101.249L42.0155 99.8609ZM39.1454 101.99V102.13H41.1454V101.99H39.1454ZM39.8746 103.093C40.5424 103.28 41.1497 103.539 41.7005 103.865L42.7202 102.145C42.011 101.724 41.2416 101.4 40.4161 101.167L39.8746 103.093ZM41.7006 103.865C42.1951 104.158 42.5778 104.535 42.8637 104.999L44.567 103.951C44.1062 103.202 43.4856 102.598 42.7202 102.145L41.7006 103.865ZM42.8784 105.022C43.1396 105.422 43.3104 105.997 43.3104 106.82H45.3104C45.3104 105.73 45.0845 104.742 44.5523 103.928L42.8784 105.022ZM43.3104 106.82C43.3104 107.644 43.0805 108.378 42.614 109.05L44.2567 110.19C44.9568 109.182 45.3104 108.05 45.3104 106.82H43.3104ZM42.6033 109.065C42.1804 109.7 41.4861 110.255 40.4296 110.69L41.1911 112.54C42.5146 111.995 43.5703 111.22 44.2674 110.175L42.6033 109.065ZM40.4231 110.693C39.4216 111.114 38.0613 111.35 36.2954 111.35V113.35C38.216 113.35 39.8657 113.096 41.1976 112.537L40.4231 110.693ZM36.2954 111.35C35.4437 111.35 34.6301 111.305 33.8539 111.216L33.6268 113.204C34.484 113.301 35.3737 113.35 36.2954 113.35V111.35ZM33.8572 111.217C33.1082 111.129 32.4387 110.998 31.8451 110.828L31.2956 112.752C32.0087 112.955 32.7858 113.105 33.6235 113.203L33.8572 111.217ZM31.8544 110.831C31.2754 110.66 30.7774 110.461 30.3544 110.239L29.4263 112.011C29.9833 112.303 30.6053 112.547 31.2863 112.749L31.8544 110.831ZM30.8904 111.125V108.36H28.8904V111.125H30.8904ZM29.4646 109.265C30.3187 109.667 31.3058 110.023 32.4184 110.337L32.9623 108.413C31.9283 108.12 31.0486 107.8 30.3161 107.455L29.4646 109.265ZM32.4238 110.339C33.6175 110.669 34.8982 110.83 36.2604 110.83V108.83C35.0558 108.83 33.9565 108.688 32.9569 108.411L32.4238 110.339ZM36.2604 110.83C37.2673 110.83 38.2006 110.717 39.0511 110.478L38.5096 108.552C37.8668 108.733 37.1201 108.83 36.2604 108.83V110.83ZM39.0435 110.48C39.9364 110.236 40.7118 109.838 41.3075 109.242L39.8932 107.828C39.6022 108.119 39.1643 108.374 38.5172 108.55L39.0435 110.48ZM41.3254 109.224C41.9842 108.53 42.2654 107.632 42.2654 106.645H40.2654C40.2654 107.245 40.1032 107.606 39.8754 107.846L41.3254 109.224ZM42.2654 106.645C42.2654 105.731 42.01 104.893 41.4156 104.228L39.9251 105.562C40.124 105.784 40.2654 106.112 40.2654 106.645H42.2654ZM41.4323 104.247C40.8724 103.589 40.084 103.155 39.1675 102.886L38.6032 104.804C39.2734 105.001 39.675 105.268 39.9084 105.543L41.4323 104.247ZM39.1754 102.888C38.2765 102.616 37.1774 102.495 35.9104 102.495V104.495C37.07 104.495 37.9542 104.608 38.5953 104.802L39.1754 102.888ZM35.9104 102.495H33.3904V104.495H35.9104V102.495ZM34.3904 103.495V100.975H32.3904V103.495H34.3904ZM33.3904 101.975H35.4204V99.975H33.3904V101.975ZM35.4204 101.975C37.1015 101.975 38.5392 101.758 39.6723 101.261L38.8684 99.4294C38.0882 99.7719 36.9592 99.975 35.4204 99.975V101.975ZM39.6825 101.256C40.3097 100.972 40.8403 100.563 41.2089 100.001C41.5785 99.4379 41.7404 98.79 41.7404 98.105H39.7404C39.7404 98.47 39.6572 98.7204 39.5368 98.9038C39.4154 99.0888 39.211 99.2743 38.8582 99.4339L39.6825 101.256ZM41.7404 98.105C41.7404 96.8746 41.1888 95.8783 40.1309 95.2501L39.1098 96.9699C39.5452 97.2284 39.7404 97.5621 39.7404 98.105H41.7404ZM40.1429 95.2574C39.1928 94.675 37.9279 94.445 36.4704 94.445V96.445C37.7661 96.445 38.6013 96.6583 39.0978 96.9626L40.1429 95.2574ZM36.4704 94.445C35.3779 94.445 34.3791 94.5565 33.4845 94.7933L33.9962 96.7267C34.6883 96.5435 35.5095 96.445 36.4704 96.445V94.445ZM33.5048 94.7881C32.6693 94.9907 31.7647 95.3022 30.7942 95.7147L31.5765 97.5553C32.4727 97.1745 33.2714 96.9026 33.976 96.7318L33.5048 94.7881ZM32.0997 96.2301L31.0147 93.7801L29.186 94.5899L30.271 97.0399L32.0997 96.2301ZM30.5045 95.0997C31.4374 94.6875 32.4148 94.3832 33.4384 94.1872L33.0623 92.2228C31.8926 92.4468 30.77 92.7958 29.6962 93.2703L30.5045 95.0997ZM33.4384 94.1872C34.4704 93.9895 35.539 93.89 36.6454 93.89V91.89C35.4184 91.89 34.2236 92.0005 33.0623 92.2228L33.4384 94.1872ZM68.9936 93.24H69.9936V92.24H68.9936V93.24ZM68.9936 112V113H69.9936V112H68.9936ZM66.2286 112H65.2286V113H66.2286V112ZM66.2636 98.49L65.2673 98.4034L65.2654 98.4249L65.2645 98.4466L66.2636 98.49ZM66.4036 96.915L67.3994 97.0055L67.4986 95.915H66.4036V96.915ZM66.2986 96.915V95.915H65.6253L65.372 96.5388L66.2986 96.915ZM60.1736 112V113H60.8468L61.1001 112.376L60.1736 112ZM57.5836 112L56.6533 112.367L56.903 113H57.5836V112ZM51.6336 96.915L52.5638 96.5481L52.3141 95.915H51.6336V96.915ZM51.5286 96.915V95.915H50.4335L50.5327 97.0055L51.5286 96.915ZM51.5986 98.49H50.5986V98.5117L50.5995 98.5334L51.5986 98.49ZM51.6336 112V113H52.6336V112H51.6336ZM48.8686 112H47.8686V113H48.8686V112ZM48.8686 93.24V92.24H47.8686V93.24H48.8686ZM52.9636 93.24L53.8945 92.8749L53.6456 92.24H52.9636V93.24ZM58.8786 108.325L57.9476 108.69L58.8704 111.043L59.8073 108.696L58.8786 108.325ZM64.8986 93.24V92.24H64.2209L63.9698 92.8694L64.8986 93.24ZM67.9936 93.24V112H69.9936V93.24H67.9936ZM68.9936 111H66.2286V113H68.9936V111ZM67.2286 112V100.03H65.2286V112H67.2286ZM67.2286 100.03C67.2286 99.5558 67.2398 99.057 67.2626 98.5334L65.2645 98.4466C65.2406 98.9963 65.2286 99.5242 65.2286 100.03H67.2286ZM67.2598 98.5766C67.3064 98.0412 67.3529 97.5175 67.3994 97.0055L65.4077 96.8245C65.3609 97.3392 65.3141 97.8655 65.2673 98.4034L67.2598 98.5766ZM66.4036 95.915H66.2986V97.915H66.4036V95.915ZM65.372 96.5388L59.247 111.624L61.1001 112.376L67.2251 97.2912L65.372 96.5388ZM60.1736 111H57.5836V113H60.1736V111ZM58.5138 111.633L52.5638 96.5481L50.7033 97.2819L56.6533 112.367L58.5138 111.633ZM51.6336 95.915H51.5286V97.915H51.6336V95.915ZM50.5327 97.0055C50.5765 97.4876 50.5986 97.9823 50.5986 98.49H52.5986C52.5986 97.9243 52.574 97.3691 52.5244 96.8245L50.5327 97.0055ZM50.5995 98.5334C50.6222 99.055 50.6336 99.5889 50.6336 100.135H52.6336C52.6336 99.5611 52.6216 98.9983 52.5976 98.4466L50.5995 98.5334ZM50.6336 100.135V112H52.6336V100.135H50.6336ZM51.6336 111H48.8686V113H51.6336V111ZM49.8686 112V93.24H47.8686V112H49.8686ZM48.8686 94.24H52.9636V92.24H48.8686V94.24ZM52.0326 93.6051L57.9476 108.69L59.8095 107.96L53.8945 92.8749L52.0326 93.6051ZM59.8073 108.696L65.8273 93.6106L63.9698 92.8694L57.9498 107.954L59.8073 108.696ZM64.8986 94.24H68.9936V92.24H64.8986V94.24ZM86.3568 93.94L85.8347 94.7929L85.8423 94.7975L86.3568 93.94ZM89.0168 96.915L88.1128 97.3424L88.1175 97.3523L88.1224 97.3622L89.0168 96.915ZM89.9618 103.215V104.215H90.9618V103.215H89.9618ZM77.1168 103.215V102.215H76.0946L76.1171 103.237L77.1168 103.215ZM78.7268 108.08L77.9897 108.756L77.997 108.764L78.0045 108.772L78.7268 108.08ZM86.2518 109.41L86.4767 110.384L86.4856 110.382L86.4944 110.38L86.2518 109.41ZM89.1218 108.43H90.1218V106.913L88.7279 107.511L89.1218 108.43ZM89.1218 111.125L89.5238 112.041L90.1218 111.778V111.125H89.1218ZM86.2868 112.035L86.0907 111.054L86.079 111.057L86.0673 111.059L86.2868 112.035ZM78.2368 111.265L77.7654 112.147L77.7717 112.15L78.2368 111.265ZM75.0518 108.045L74.1632 108.504L74.1677 108.512L74.1723 108.521L75.0518 108.045ZM74.9468 97.475L74.0439 97.045L74.0385 97.0569L74.9468 97.475ZM77.8518 94.08L77.319 93.2337L77.3119 93.2383L77.8518 94.08ZM78.6918 96.845L77.9494 96.175L77.9485 96.176L78.6918 96.845ZM77.1868 100.765L76.1915 100.668L76.0849 101.765H77.1868V100.765ZM86.7418 100.765V101.765H87.7418V100.765H86.7418ZM86.2518 97.965L85.3272 98.3457L85.3272 98.3457L86.2518 97.965ZM84.7468 96.11L84.1656 96.9237L84.182 96.9354L84.1988 96.9465L84.7468 96.11ZM82.2268 93.89C83.6898 93.89 84.8775 94.2068 85.8347 94.7929L86.879 93.0871C85.5495 92.2732 83.9839 91.89 82.2268 91.89V93.89ZM85.8423 94.7975C86.8319 95.3912 87.5867 96.2296 88.1128 97.3424L89.9209 96.4876C89.2336 95.0337 88.2151 93.8888 86.8713 93.0825L85.8423 94.7975ZM88.1224 97.3622C88.6699 98.4573 88.9618 99.7799 88.9618 101.36H90.9618C90.9618 99.5335 90.6237 97.8927 89.9113 96.4678L88.1224 97.3622ZM88.9618 101.36V103.215H90.9618V101.36H88.9618ZM89.9618 102.215H77.1168V104.215H89.9618V102.215ZM76.1171 103.237C76.167 105.507 76.744 107.397 77.9897 108.756L79.464 107.404C78.6563 106.523 78.16 105.17 78.1166 103.193L76.1171 103.237ZM78.0045 108.772C79.2849 110.109 81.0293 110.725 83.1018 110.725V108.725C81.441 108.725 80.2688 108.244 79.4491 107.388L78.0045 108.772ZM83.1018 110.725C84.348 110.725 85.4761 110.615 86.4767 110.384L86.027 108.436C85.2076 108.625 84.2357 108.725 83.1018 108.725V110.725ZM86.4944 110.38C87.4846 110.133 88.4919 109.788 89.5158 109.349L88.7279 107.511C87.7917 107.912 86.8857 108.221 86.0093 108.44L86.4944 110.38ZM88.1218 108.43V111.125H90.1218V108.43H88.1218ZM88.7198 110.209C87.8229 110.603 86.9468 110.883 86.0907 111.054L86.483 113.016C87.4935 112.813 88.5074 112.487 89.5238 112.041L88.7198 110.209ZM86.0673 111.059C85.2257 111.249 84.1946 111.35 82.9618 111.35V113.35C84.2957 113.35 85.4813 113.241 86.5063 113.011L86.0673 111.059ZM82.9618 111.35C81.3276 111.35 79.9162 111.018 78.702 110.38L77.7717 112.15C79.3108 112.959 81.0494 113.35 82.9618 113.35V111.35ZM78.7082 110.383C77.5375 109.757 76.6134 108.83 75.9314 107.569L74.1723 108.521C75.0302 110.107 76.2295 111.326 77.7655 112.147L78.7082 110.383ZM75.9405 107.586C75.2844 106.315 74.9318 104.72 74.9318 102.76H72.9318C72.9318 104.953 73.326 106.881 74.1632 108.504L75.9405 107.586ZM74.9318 102.76C74.9318 100.814 75.2528 99.2017 75.8552 97.8931L74.0385 97.0569C73.2875 98.6883 72.9318 100.6 72.9318 102.76H74.9318ZM75.8497 97.9049C76.4784 96.5846 77.3288 95.6036 78.3918 94.9217L77.3119 93.2383C75.9016 94.143 74.8152 95.4254 74.044 97.0451L75.8497 97.9049ZM78.3846 94.9262C79.4675 94.2444 80.7368 93.89 82.2268 93.89V91.89C80.4035 91.89 78.7562 92.3289 77.319 93.2338L78.3846 94.9262ZM82.1918 94.41C80.4829 94.41 79.03 94.9776 77.9494 96.175L79.4342 97.515C80.0803 96.799 80.9608 96.41 82.1918 96.41V94.41ZM77.9485 96.176C76.9235 97.3149 76.3685 98.8479 76.1915 100.668L78.1821 100.862C78.3318 99.3221 78.7801 98.2417 79.4351 97.514L77.9485 96.176ZM77.1868 101.765H86.7418V99.765H77.1868V101.765ZM87.7418 100.765C87.7418 99.5927 87.5637 98.5245 87.1765 97.5842L85.3272 98.3457C85.5933 98.9921 85.7418 99.7906 85.7418 100.765H87.7418ZM87.1765 97.5842C86.778 96.6164 86.1506 95.8342 85.2949 95.2735L84.1988 96.9465C84.6964 97.2725 85.0723 97.7269 85.3272 98.3457L87.1765 97.5842ZM85.3281 95.2963C84.4597 94.676 83.3865 94.41 82.1918 94.41V96.41C83.0972 96.41 83.7273 96.6106 84.1656 96.9237L85.3281 95.2963ZM97.8177 93.24H98.8177V92.24H97.8177V93.24ZM97.8177 101.045H96.8177V102.045H97.8177V101.045ZM108.003 101.045V102.045H109.003V101.045H108.003ZM108.003 93.24V92.24H107.003V93.24H108.003ZM111.083 93.24H112.083V92.24H111.083V93.24ZM111.083 112V113H112.083V112H111.083ZM108.003 112H107.003V113H108.003V112ZM108.003 103.635H109.003V102.635H108.003V103.635ZM97.8177 103.635V102.635H96.8177V103.635H97.8177ZM97.8177 112V113H98.8177V112H97.8177ZM94.7377 112H93.7377V113H94.7377V112ZM94.7377 93.24V92.24H93.7377V93.24H94.7377ZM96.8177 93.24V101.045H98.8177V93.24H96.8177ZM97.8177 102.045H108.003V100.045H97.8177V102.045ZM109.003 101.045V93.24H107.003V101.045H109.003ZM108.003 94.24H111.083V92.24H108.003V94.24ZM110.083 93.24V112H112.083V93.24H110.083ZM111.083 111H108.003V113H111.083V111ZM109.003 112V103.635H107.003V112H109.003ZM108.003 102.635H97.8177V104.635H108.003V102.635ZM96.8177 103.635V112H98.8177V103.635H96.8177ZM97.8177 111H94.7377V113H97.8177V111ZM95.7377 112V93.24H93.7377V112H95.7377ZM94.7377 94.24H97.8177V92.24H94.7377V94.24ZM128.398 93.94L127.876 94.7929L127.883 94.7975L128.398 93.94ZM131.058 96.915L130.154 97.3424L130.158 97.3523L130.163 97.3622L131.058 96.915ZM132.003 103.215V104.215H133.003V103.215H132.003ZM119.158 103.215V102.215H118.136L118.158 103.237L119.158 103.215ZM120.768 108.08L120.031 108.756L120.038 108.764L120.046 108.772L120.768 108.08ZM128.293 109.41L128.518 110.384L128.527 110.382L128.535 110.38L128.293 109.41ZM131.163 108.43H132.163V106.913L130.769 107.511L131.163 108.43ZM131.163 111.125L131.565 112.041L132.163 111.778V111.125H131.163ZM128.328 112.035L128.132 111.054L128.12 111.057L128.108 111.059L128.328 112.035ZM120.278 111.265L119.806 112.147L119.813 112.15L120.278 111.265ZM117.093 108.045L116.204 108.504L116.209 108.512L116.213 108.521L117.093 108.045ZM116.988 97.475L116.085 97.045L116.079 97.0569L116.988 97.475ZM119.893 94.08L119.36 93.2337L119.353 93.2383L119.893 94.08ZM120.733 96.845L119.99 96.175L119.99 96.176L120.733 96.845ZM119.228 100.765L118.233 100.668L118.126 101.765H119.228V100.765ZM128.783 100.765V101.765H129.783V100.765H128.783ZM128.293 97.965L127.368 98.3457L127.368 98.3457L128.293 97.965ZM126.788 96.11L126.207 96.9237L126.223 96.9354L126.24 96.9465L126.788 96.11ZM124.268 93.89C125.731 93.89 126.919 94.2068 127.876 94.7929L128.92 93.0871C127.591 92.2732 126.025 91.89 124.268 91.89V93.89ZM127.883 94.7975C128.873 95.3912 129.628 96.2296 130.154 97.3424L131.962 96.4876C131.275 95.0337 130.256 93.8888 128.912 93.0825L127.883 94.7975ZM130.163 97.3622C130.711 98.4573 131.003 99.7799 131.003 101.36H133.003C133.003 99.5335 132.665 97.8927 131.952 96.4678L130.163 97.3622ZM131.003 101.36V103.215H133.003V101.36H131.003ZM132.003 102.215H119.158V104.215H132.003V102.215ZM118.158 103.237C118.208 105.507 118.785 107.397 120.031 108.756L121.505 107.404C120.697 106.523 120.201 105.17 120.158 103.193L118.158 103.237ZM120.046 108.772C121.326 110.109 123.07 110.725 125.143 110.725V108.725C123.482 108.725 122.31 108.244 121.49 107.388L120.046 108.772ZM125.143 110.725C126.389 110.725 127.517 110.615 128.518 110.384L128.068 108.436C127.249 108.625 126.277 108.725 125.143 108.725V110.725ZM128.535 110.38C129.526 110.133 130.533 109.788 131.557 109.349L130.769 107.511C129.833 107.912 128.927 108.221 128.05 108.44L128.535 110.38ZM130.163 108.43V111.125H132.163V108.43H130.163ZM130.761 110.209C129.864 110.603 128.988 110.883 128.132 111.054L128.524 113.016C129.535 112.813 130.548 112.487 131.565 112.041L130.761 110.209ZM128.108 111.059C127.267 111.249 126.236 111.35 125.003 111.35V113.35C126.337 113.35 127.522 113.241 128.547 113.011L128.108 111.059ZM125.003 111.35C123.369 111.35 121.957 111.018 120.743 110.38L119.813 112.15C121.352 112.959 123.09 113.35 125.003 113.35V111.35ZM120.749 110.383C119.578 109.757 118.654 108.83 117.972 107.569L116.213 108.521C117.071 110.107 118.271 111.326 119.806 112.147L120.749 110.383ZM117.981 107.586C117.325 106.315 116.973 104.72 116.973 102.76H114.973C114.973 104.953 115.367 106.881 116.204 108.504L117.981 107.586ZM116.973 102.76C116.973 100.814 117.294 99.2017 117.896 97.8931L116.079 97.0569C115.329 98.6883 114.973 100.6 114.973 102.76H116.973ZM117.891 97.9049C118.519 96.5846 119.37 95.6036 120.433 94.9217L119.353 93.2383C117.943 94.143 116.856 95.4254 116.085 97.0451L117.891 97.9049ZM120.426 94.9262C121.509 94.2444 122.778 93.89 124.268 93.89V91.89C122.445 91.89 120.797 92.3289 119.36 93.2338L120.426 94.9262ZM124.233 94.41C122.524 94.41 121.071 94.9776 119.99 96.175L121.475 97.515C122.121 96.799 123.002 96.41 124.233 96.41V94.41ZM119.99 96.176C118.965 97.3149 118.41 98.8479 118.233 100.668L120.223 100.862C120.373 99.3221 120.821 98.2417 121.476 97.514L119.99 96.176ZM119.228 101.765H128.783V99.765H119.228V101.765ZM129.783 100.765C129.783 99.5927 129.605 98.5245 129.218 97.5842L127.368 98.3457C127.634 98.9921 127.783 99.7906 127.783 100.765H129.783ZM129.218 97.5842C128.819 96.6164 128.192 95.8342 127.336 95.2735L126.24 96.9465C126.737 97.2725 127.113 97.7269 127.368 98.3457L129.218 97.5842ZM127.369 95.2963C126.501 94.676 125.428 94.41 124.233 94.41V96.41C125.138 96.41 125.768 96.6106 126.207 96.9237L127.369 95.2963ZM139.859 93.24H140.859V92.24H139.859V93.24ZM139.859 101.045H138.859V102.045H139.859V101.045ZM150.044 101.045V102.045H151.044V101.045H150.044ZM150.044 93.24V92.24H149.044V93.24H150.044ZM153.124 93.24H154.124V92.24H153.124V93.24ZM153.124 112V113H154.124V112H153.124ZM150.044 112H149.044V113H150.044V112ZM150.044 103.635H151.044V102.635H150.044V103.635ZM139.859 103.635V102.635H138.859V103.635H139.859ZM139.859 112V113H140.859V112H139.859ZM136.779 112H135.779V113H136.779V112ZM136.779 93.24V92.24H135.779V93.24H136.779ZM138.859 93.24V101.045H140.859V93.24H138.859ZM139.859 102.045H150.044V100.045H139.859V102.045ZM151.044 101.045V93.24H149.044V101.045H151.044ZM150.044 94.24H153.124V92.24H150.044V94.24ZM152.124 93.24V112H154.124V93.24H152.124ZM153.124 111H150.044V113H153.124V111ZM151.044 112V103.635H149.044V112H151.044ZM150.044 102.635H139.859V104.635H150.044V102.635ZM138.859 103.635V112H140.859V103.635H138.859ZM139.859 111H136.779V113H139.859V111ZM137.779 112V93.24H135.779V112H137.779ZM136.779 94.24H139.859V92.24H136.779V94.24ZM161.934 105.595L160.936 105.536L160.934 105.566V105.595H161.934ZM161.899 106.82L162.897 106.875L162.897 106.873L161.899 106.82ZM161.829 108.045L162.827 108.107L162.827 108.104L161.829 108.045ZM161.759 108.955L160.764 108.855L162.601 109.494L161.759 108.955ZM171.804 93.24V92.24H171.256L170.961 92.7014L171.804 93.24ZM175.584 93.24H176.584V92.24H175.584V93.24ZM175.584 112V113H176.584V112H175.584ZM172.714 112H171.714V113H172.714V112ZM172.714 99.47L171.715 99.4316L171.714 99.4508V99.47H172.714ZM172.784 97.685L173.783 97.725L173.783 97.7234L172.784 97.685ZM172.854 96.32L173.851 96.3967L172.01 95.7832L172.854 96.32ZM162.879 112V113H163.428L163.723 112.537L162.879 112ZM159.064 112H158.064V113H159.064V112ZM159.064 93.24V92.24H158.064V93.24H159.064ZM161.969 93.24H162.969V92.24H161.969V93.24ZM160.969 104.685C160.969 104.865 160.959 105.145 160.936 105.536L162.932 105.654C162.956 105.251 162.969 104.925 162.969 104.685H160.969ZM160.934 105.595C160.934 105.948 160.923 106.338 160.9 106.767L162.897 106.873C162.922 106.415 162.934 105.989 162.934 105.595H160.934ZM160.9 106.765C160.877 107.184 160.854 107.591 160.831 107.986L162.827 108.104C162.851 107.706 162.874 107.296 162.897 106.875L160.9 106.765ZM160.831 107.983C160.808 108.35 160.785 108.64 160.764 108.855L162.754 109.055C162.779 108.804 162.803 108.487 162.827 108.107L160.831 107.983ZM162.601 109.494L172.646 93.7786L170.961 92.7014L160.916 108.416L162.601 109.494ZM171.804 94.24H175.584V92.24H171.804V94.24ZM174.584 93.24V112H176.584V93.24H174.584ZM175.584 111H172.714V113H175.584V111ZM173.714 112V100.94H171.714V112H173.714ZM173.714 100.94C173.714 100.939 173.714 100.939 173.714 100.938C173.714 100.937 173.714 100.936 173.714 100.936C173.714 100.935 173.714 100.934 173.714 100.933C173.714 100.933 173.714 100.932 173.714 100.931C173.714 100.93 173.714 100.93 173.714 100.929C173.714 100.928 173.714 100.928 173.714 100.927C173.714 100.926 173.714 100.925 173.714 100.925C173.714 100.924 173.714 100.923 173.714 100.922C173.714 100.922 173.714 100.921 173.714 100.92C173.714 100.919 173.714 100.919 173.714 100.918C173.714 100.917 173.714 100.917 173.714 100.916C173.714 100.915 173.714 100.914 173.714 100.914C173.714 100.913 173.714 100.912 173.714 100.911C173.714 100.911 173.714 100.91 173.714 100.909C173.714 100.908 173.714 100.908 173.714 100.907C173.714 100.906 173.714 100.905 173.714 100.905C173.714 100.904 173.714 100.903 173.714 100.902C173.714 100.902 173.714 100.901 173.714 100.9C173.714 100.899 173.714 100.899 173.714 100.898C173.714 100.897 173.714 100.896 173.714 100.896C173.714 100.895 173.714 100.894 173.714 100.893C173.714 100.893 173.714 100.892 173.714 100.891C173.714 100.89 173.714 100.89 173.714 100.889C173.714 100.888 173.714 100.887 173.714 100.887C173.714 100.886 173.714 100.885 173.714 100.884C173.714 100.884 173.714 100.883 173.714 100.882C173.714 100.881 173.714 100.881 173.714 100.88C173.714 100.879 173.714 100.878 173.714 100.878C173.714 100.877 173.714 100.876 173.714 100.875C173.714 100.875 173.714 100.874 173.714 100.873C173.714 100.872 173.714 100.872 173.714 100.871C173.714 100.87 173.714 100.869 173.714 100.869C173.714 100.868 173.714 100.867 173.714 100.866C173.714 100.866 173.714 100.865 173.714 100.864C173.714 100.863 173.714 100.863 173.714 100.862C173.714 100.861 173.714 100.86 173.714 100.86C173.714 100.859 173.714 100.858 173.714 100.857C173.714 100.856 173.714 100.856 173.714 100.855C173.714 100.854 173.714 100.853 173.714 100.853C173.714 100.852 173.714 100.851 173.714 100.85C173.714 100.85 173.714 100.849 173.714 100.848C173.714 100.847 173.714 100.847 173.714 100.846C173.714 100.845 173.714 100.844 173.714 100.843C173.714 100.843 173.714 100.842 173.714 100.841C173.714 100.84 173.714 100.84 173.714 100.839C173.714 100.838 173.714 100.837 173.714 100.837C173.714 100.836 173.714 100.835 173.714 100.834C173.714 100.833 173.714 100.833 173.714 100.832C173.714 100.831 173.714 100.83 173.714 100.83C173.714 100.829 173.714 100.828 173.714 100.827C173.714 100.827 173.714 100.826 173.714 100.825C173.714 100.824 173.714 100.823 173.714 100.823C173.714 100.822 173.714 100.821 173.714 100.82C173.714 100.82 173.714 100.819 173.714 100.818C173.714 100.817 173.714 100.816 173.714 100.816C173.714 100.815 173.714 100.814 173.714 100.813C173.714 100.813 173.714 100.812 173.714 100.811C173.714 100.81 173.714 100.809 173.714 100.809C173.714 100.808 173.714 100.807 173.714 100.806C173.714 100.806 173.714 100.805 173.714 100.804C173.714 100.803 173.714 100.802 173.714 100.802C173.714 100.801 173.714 100.8 173.714 100.799C173.714 100.798 173.714 100.798 173.714 100.797C173.714 100.796 173.714 100.795 173.714 100.795C173.714 100.794 173.714 100.793 173.714 100.792C173.714 100.791 173.714 100.791 173.714 100.79C173.714 100.789 173.714 100.788 173.714 100.787C173.714 100.787 173.714 100.786 173.714 100.785C173.714 100.784 173.714 100.783 173.714 100.783C173.714 100.782 173.714 100.781 173.714 100.78C173.714 100.78 173.714 100.779 173.714 100.778C173.714 100.777 173.714 100.776 173.714 100.776C173.714 100.775 173.714 100.774 173.714 100.773C173.714 100.772 173.714 100.772 173.714 100.771C173.714 100.77 173.714 100.769 173.714 100.768C173.714 100.768 173.714 100.767 173.714 100.766C173.714 100.765 173.714 100.764 173.714 100.764C173.714 100.763 173.714 100.762 173.714 100.761C173.714 100.76 173.714 100.76 173.714 100.759C173.714 100.758 173.714 100.757 173.714 100.756C173.714 100.756 173.714 100.755 173.714 100.754C173.714 100.753 173.714 100.752 173.714 100.752C173.714 100.751 173.714 100.75 173.714 100.749C173.714 100.748 173.714 100.748 173.714 100.747C173.714 100.746 173.714 100.745 173.714 100.744C173.714 100.744 173.714 100.743 173.714 100.742C173.714 100.741 173.714 100.74 173.714 100.74C173.714 100.739 173.714 100.738 173.714 100.737C173.714 100.736 173.714 100.736 173.714 100.735C173.714 100.734 173.714 100.733 173.714 100.732C173.714 100.732 173.714 100.731 173.714 100.73C173.714 100.729 173.714 100.728 173.714 100.727C173.714 100.727 173.714 100.726 173.714 100.725C173.714 100.724 173.714 100.723 173.714 100.723C173.714 100.722 173.714 100.721 173.714 100.72C173.714 100.719 173.714 100.719 173.714 100.718C173.714 100.717 173.714 100.716 173.714 100.715C173.714 100.714 173.714 100.714 173.714 100.713C173.714 100.712 173.714 100.711 173.714 100.71C173.714 100.71 173.714 100.709 173.714 100.708C173.714 100.707 173.714 100.706 173.714 100.705C173.714 100.705 173.714 100.704 173.714 100.703C173.714 100.702 173.714 100.701 173.714 100.701C173.714 100.7 173.714 100.699 173.714 100.698C173.714 100.697 173.714 100.696 173.714 100.696C173.714 100.695 173.714 100.694 173.714 100.693C173.714 100.692 173.714 100.691 173.714 100.691C173.714 100.69 173.714 100.689 173.714 100.688C173.714 100.687 173.714 100.687 173.714 100.686C173.714 100.685 173.714 100.684 173.714 100.683C173.714 100.682 173.714 100.682 173.714 100.681C173.714 100.68 173.714 100.679 173.714 100.678C173.714 100.677 173.714 100.677 173.714 100.676C173.714 100.675 173.714 100.674 173.714 100.673C173.714 100.672 173.714 100.672 173.714 100.671C173.714 100.67 173.714 100.669 173.714 100.668C173.714 100.667 173.714 100.667 173.714 100.666C173.714 100.665 173.714 100.664 173.714 100.663C173.714 100.662 173.714 100.662 173.714 100.661C173.714 100.66 173.714 100.659 173.714 100.658C173.714 100.657 173.714 100.657 173.714 100.656C173.714 100.655 173.714 100.654 173.714 100.653C173.714 100.652 173.714 100.652 173.714 100.651C173.714 100.65 173.714 100.649 173.714 100.648C173.714 100.647 173.714 100.647 173.714 100.646C173.714 100.645 173.714 100.644 173.714 100.643C173.714 100.642 173.714 100.641 173.714 100.641C173.714 100.64 173.714 100.639 173.714 100.638C173.714 100.637 173.714 100.636 173.714 100.636C173.714 100.635 173.714 100.634 173.714 100.633C173.714 100.632 173.714 100.631 173.714 100.631C173.714 100.63 173.714 100.629 173.714 100.628C173.714 100.627 173.714 100.626 173.714 100.625C173.714 100.625 173.714 100.624 173.714 100.623C173.714 100.622 173.714 100.621 173.714 100.62C173.714 100.62 173.714 100.619 173.714 100.618C173.714 100.617 173.714 100.616 173.714 100.615C173.714 100.614 173.714 100.614 173.714 100.613C173.714 100.612 173.714 100.611 173.714 100.61C173.714 100.609 173.714 100.608 173.714 100.608C173.714 100.607 173.714 100.606 173.714 100.605C173.714 100.604 173.714 100.603 173.714 100.602C173.714 100.602 173.714 100.601 173.714 100.6C173.714 100.599 173.714 100.598 173.714 100.597C173.714 100.596 173.714 100.596 173.714 100.595C173.714 100.594 173.714 100.593 173.714 100.592C173.714 100.591 173.714 100.59 173.714 100.59C173.714 100.589 173.714 100.588 173.714 100.587C173.714 100.586 173.714 100.585 173.714 100.584C173.714 100.584 173.714 100.583 173.714 100.582C173.714 100.581 173.714 100.58 173.714 100.579C173.714 100.578 173.714 100.578 173.714 100.577C173.714 100.576 173.714 100.575 173.714 100.574C173.714 100.573 173.714 100.572 173.714 100.571C173.714 100.571 173.714 100.57 173.714 100.569C173.714 100.568 173.714 100.567 173.714 100.566C173.714 100.565 173.714 100.565 173.714 100.564C173.714 100.563 173.714 100.562 173.714 100.561C173.714 100.56 173.714 100.559 173.714 100.558C173.714 100.558 173.714 100.557 173.714 100.556C173.714 100.555 173.714 100.554 173.714 100.553C173.714 100.552 173.714 100.551 173.714 100.551C173.714 100.55 173.714 100.549 173.714 100.548C173.714 100.547 173.714 100.546 173.714 100.545C173.714 100.544 173.714 100.544 173.714 100.543C173.714 100.542 173.714 100.541 173.714 100.54C173.714 100.539 173.714 100.538 173.714 100.537C173.714 100.537 173.714 100.536 173.714 100.535C173.714 100.534 173.714 100.533 173.714 100.532C173.714 100.531 173.714 100.53 173.714 100.53C173.714 100.529 173.714 100.528 173.714 100.527C173.714 100.526 173.714 100.525 173.714 100.524C173.714 100.523 173.714 100.522 173.714 100.522C173.714 100.521 173.714 100.52 173.714 100.519C173.714 100.518 173.714 100.517 173.714 100.516C173.714 100.515 173.714 100.515 173.714 100.514C173.714 100.513 173.714 100.512 173.714 100.511C173.714 100.51 173.714 100.509 173.714 100.508C173.714 100.507 173.714 100.507 173.714 100.506C173.714 100.505 173.714 100.504 173.714 100.503C173.714 100.502 173.714 100.501 173.714 100.5C173.714 100.499 173.714 100.499 173.714 100.498C173.714 100.497 173.714 100.496 173.714 100.495C173.714 100.494 173.714 100.493 173.714 100.492C173.714 100.491 173.714 100.491 173.714 100.49C173.714 100.489 173.714 100.488 173.714 100.487C173.714 100.486 173.714 100.485 173.714 100.484C173.714 100.483 173.714 100.482 173.714 100.482C173.714 100.481 173.714 100.48 173.714 100.479C173.714 100.478 173.714 100.477 173.714 100.476C173.714 100.475 173.714 100.474 173.714 100.473C173.714 100.473 173.714 100.472 173.714 100.471C173.714 100.47 173.714 100.469 173.714 100.468C173.714 100.467 173.714 100.466 173.714 100.465C173.714 100.464 173.714 100.464 173.714 100.463C173.714 100.462 173.714 100.461 173.714 100.46C173.714 100.459 173.714 100.458 173.714 100.457C173.714 100.456 173.714 100.455 173.714 100.455C173.714 100.454 173.714 100.453 173.714 100.452C173.714 100.451 173.714 100.45 173.714 100.449C173.714 100.448 173.714 100.447 173.714 100.446C173.714 100.445 173.714 100.445 173.714 100.444C173.714 100.443 173.714 100.442 173.714 100.441C173.714 100.44 173.714 100.439 173.714 100.438C173.714 100.437 173.714 100.436 173.714 100.435C173.714 100.435 173.714 100.434 173.714 100.433C173.714 100.432 173.714 100.431 173.714 100.43C173.714 100.429 173.714 100.428 173.714 100.427C173.714 100.426 173.714 100.425 173.714 100.424C173.714 100.424 173.714 100.423 173.714 100.422C173.714 100.421 173.714 100.42 173.714 100.419C173.714 100.418 173.714 100.417 173.714 100.416C173.714 100.415 173.714 100.414 173.714 100.413C173.714 100.413 173.714 100.412 173.714 100.411C173.714 100.41 173.714 100.409 173.714 100.408C173.714 100.407 173.714 100.406 173.714 100.405C173.714 100.404 173.714 100.403 173.714 100.402C173.714 100.402 173.714 100.401 173.714 100.4C173.714 100.399 173.714 100.398 173.714 100.397C173.714 100.396 173.714 100.395 173.714 100.394C173.714 100.393 173.714 100.392 173.714 100.391C173.714 100.39 173.714 100.39 173.714 100.389C173.714 100.388 173.714 100.387 173.714 100.386C173.714 100.385 173.714 100.384 173.714 100.383C173.714 100.382 173.714 100.381 173.714 100.38C173.714 100.379 173.714 100.378 173.714 100.377C173.714 100.377 173.714 100.376 173.714 100.375C173.714 100.374 173.714 100.373 173.714 100.372C173.714 100.371 173.714 100.37 173.714 100.369C173.714 100.368 173.714 100.367 173.714 100.366C173.714 100.365 173.714 100.364 173.714 100.363C173.714 100.363 173.714 100.362 173.714 100.361C173.714 100.36 173.714 100.359 173.714 100.358C173.714 100.357 173.714 100.356 173.714 100.355C173.714 100.354 173.714 100.353 173.714 100.352C173.714 100.351 173.714 100.35 173.714 100.349C173.714 100.348 173.714 100.348 173.714 100.347C173.714 100.346 173.714 100.345 173.714 100.344C173.714 100.343 173.714 100.342 173.714 100.341C173.714 100.34 173.714 100.339 173.714 100.338C173.714 100.337 173.714 100.336 173.714 100.335C173.714 100.334 173.714 100.333 173.714 100.332C173.714 100.331 173.714 100.331 173.714 100.33C173.714 100.329 173.714 100.328 173.714 100.327C173.714 100.326 173.714 100.325 173.714 100.324C173.714 100.323 173.714 100.322 173.714 100.321C173.714 100.32 173.714 100.319 173.714 100.318C173.714 100.317 173.714 100.316 173.714 100.315C173.714 100.314 173.714 100.313 173.714 100.313C173.714 100.312 173.714 100.311 173.714 100.31C173.714 100.309 173.714 100.308 173.714 100.307C173.714 100.306 173.714 100.305 173.714 100.304C173.714 100.303 173.714 100.302 173.714 100.301C173.714 100.3 173.714 100.299 173.714 100.298C173.714 100.297 173.714 100.296 173.714 100.295C173.714 100.294 173.714 100.293 173.714 100.292C173.714 100.292 173.714 100.291 173.714 100.29C173.714 100.289 173.714 100.288 173.714 100.287C173.714 100.286 173.714 100.285 173.714 100.284C173.714 100.283 173.714 100.282 173.714 100.281C173.714 100.28 173.714 100.279 173.714 100.278C173.714 100.277 173.714 100.276 173.714 100.275C173.714 100.274 173.714 100.273 173.714 100.272C173.714 100.271 173.714 100.27 173.714 100.269C173.714 100.268 173.714 100.268 173.714 100.267C173.714 100.266 173.714 100.265 173.714 100.264C173.714 100.263 173.714 100.262 173.714 100.261C173.714 100.26 173.714 100.259 173.714 100.258C173.714 100.257 173.714 100.256 173.714 100.255C173.714 100.254 173.714 100.253 173.714 100.252C173.714 100.251 173.714 100.25 173.714 100.249C173.714 100.248 173.714 100.247 173.714 100.246C173.714 100.245 173.714 100.244 173.714 100.243C173.714 100.242 173.714 100.241 173.714 100.24C173.714 100.239 173.714 100.238 173.714 100.237C173.714 100.236 173.714 100.236 173.714 100.235C173.714 100.234 173.714 100.233 173.714 100.232C173.714 100.231 173.714 100.23 173.714 100.229C173.714 100.228 173.714 100.227 173.714 100.226C173.714 100.225 173.714 100.224 173.714 100.223C173.714 100.222 173.714 100.221 173.714 100.22C173.714 100.219 173.714 100.218 173.714 100.217C173.714 100.216 173.714 100.215 173.714 100.214C173.714 100.213 173.714 100.212 173.714 100.211C173.714 100.21 173.714 100.209 173.714 100.208C173.714 100.207 173.714 100.206 173.714 100.205C173.714 100.204 173.714 100.203 173.714 100.202C173.714 100.201 173.714 100.2 173.714 100.199C173.714 100.198 173.714 100.197 173.714 100.196C173.714 100.195 173.714 100.194 173.714 100.193C173.714 100.192 173.714 100.191 173.714 100.19C173.714 100.189 173.714 100.188 173.714 100.187C173.714 100.186 173.714 100.185 173.714 100.184C173.714 100.183 173.714 100.182 173.714 100.181C173.714 100.18 173.714 100.179 173.714 100.178C173.714 100.178 173.714 100.177 173.714 100.176C173.714 100.175 173.714 100.174 173.714 100.173C173.714 100.172 173.714 100.171 173.714 100.17C173.714 100.169 173.714 100.168 173.714 100.167C173.714 100.166 173.714 100.165 173.714 100.164C173.714 100.163 173.714 100.162 173.714 100.161C173.714 100.16 173.714 100.159 173.714 100.158C173.714 100.157 173.714 100.156 173.714 100.155C173.714 100.154 173.714 100.153 173.714 100.152C173.714 100.151 173.714 100.15 173.714 100.149C173.714 100.148 173.714 100.147 173.714 100.146C173.714 100.145 173.714 100.144 173.714 100.143C173.714 100.142 173.714 100.141 173.714 100.14C173.714 100.139 173.714 100.138 173.714 100.137C173.714 100.136 173.714 100.135 173.714 100.134C173.714 100.133 173.714 100.132 173.714 100.131C173.714 100.13 173.714 100.129 173.714 100.128C173.714 100.127 173.714 100.126 173.714 100.125C173.714 100.124 173.714 100.122 173.714 100.121C173.714 100.12 173.714 100.119 173.714 100.118C173.714 100.117 173.714 100.116 173.714 100.115C173.714 100.114 173.714 100.113 173.714 100.112C173.714 100.111 173.714 100.11 173.714 100.109C173.714 100.108 173.714 100.107 173.714 100.106C173.714 100.105 173.714 100.104 173.714 100.103C173.714 100.102 173.714 100.101 173.714 100.1C173.714 100.099 173.714 100.098 173.714 100.097C173.714 100.096 173.714 100.095 173.714 100.094C173.714 100.093 173.714 100.092 173.714 100.091C173.714 100.09 173.714 100.089 173.714 100.088C173.714 100.087 173.714 100.086 173.714 100.085C173.714 100.084 173.714 100.083 173.714 100.082C173.714 100.081 173.714 100.08 173.714 100.079C173.714 100.078 173.714 100.077 173.714 100.076C173.714 100.075 173.714 100.074 173.714 100.073C173.714 100.072 173.714 100.071 173.714 100.07C173.714 100.069 173.714 100.068 173.714 100.067C173.714 100.066 173.714 100.065 173.714 100.064C173.714 100.062 173.714 100.061 173.714 100.06C173.714 100.059 173.714 100.058 173.714 100.057C173.714 100.056 173.714 100.055 173.714 100.054C173.714 100.053 173.714 100.052 173.714 100.051C173.714 100.05 173.714 100.049 173.714 100.048C173.714 100.047 173.714 100.046 173.714 100.045C173.714 100.044 173.714 100.043 173.714 100.042C173.714 100.041 173.714 100.04 173.714 100.039C173.714 100.038 173.714 100.037 173.714 100.036C173.714 100.035 173.714 100.034 173.714 100.033C173.714 100.032 173.714 100.031 173.714 100.03C173.714 100.028 173.714 100.027 173.714 100.026C173.714 100.025 173.714 100.024 173.714 100.023C173.714 100.022 173.714 100.021 173.714 100.02C173.714 100.019 173.714 100.018 173.714 100.017C173.714 100.016 173.714 100.015 173.714 100.014C173.714 100.013 173.714 100.012 173.714 100.011C173.714 100.01 173.714 100.009 173.714 100.008C173.714 100.007 173.714 100.006 173.714 100.005C173.714 100.004 173.714 100.002 173.714 100.001C173.714 100 173.714 99.9994 173.714 99.9983C173.714 99.9973 173.714 99.9962 173.714 99.9952C173.714 99.9941 173.714 99.9931 173.714 99.992C173.714 99.991 173.714 99.9899 173.714 99.9889C173.714 99.9879 173.714 99.9868 173.714 99.9858C173.714 99.9847 173.714 99.9837 173.714 99.9826C173.714 99.9816 173.714 99.9805 173.714 99.9795C173.714 99.9784 173.714 99.9774 173.714 99.9763C173.714 99.9753 173.714 99.9742 173.714 99.9732C173.714 99.9721 173.714 99.9711 173.714 99.97C173.714 99.969 173.714 99.9679 173.714 99.9668C173.714 99.9658 173.714 99.9647 173.714 99.9637C173.714 99.9626 173.714 99.9616 173.714 99.9605C173.714 99.9595 173.714 99.9584 173.714 99.9574C173.714 99.9563 173.714 99.9552 173.714 99.9542C173.714 99.9531 173.714 99.9521 173.714 99.951C173.714 99.95 173.714 99.9489 173.714 99.9478C173.714 99.9468 173.714 99.9457 173.714 99.9447C173.714 99.9436 173.714 99.9425 173.714 99.9415C173.714 99.9404 173.714 99.9394 173.714 99.9383C173.714 99.9372 173.714 99.9362 173.714 99.9351C173.714 99.9341 173.714 99.933 173.714 99.9319C173.714 99.9309 173.714 99.9298 173.714 99.9287C173.714 99.9277 173.714 99.9266 173.714 99.9255C173.714 99.9245 173.714 99.9234 173.714 99.9224C173.714 99.9213 173.714 99.9202 173.714 99.9192C173.714 99.9181 173.714 99.917 173.714 99.916C173.714 99.9149 173.714 99.9138 173.714 99.9128C173.714 99.9117 173.714 99.9106 173.714 99.9095C173.714 99.9085 173.714 99.9074 173.714 99.9063C173.714 99.9053 173.714 99.9042 173.714 99.9031C173.714 99.9021 173.714 99.901 173.714 99.8999C173.714 99.8988 173.714 99.8978 173.714 99.8967C173.714 99.8956 173.714 99.8945 173.714 99.8935C173.714 99.8924 173.714 99.8913 173.714 99.8903C173.714 99.8892 173.714 99.8881 173.714 99.887C173.714 99.886 173.714 99.8849 173.714 99.8838C173.714 99.8827 173.714 99.8816 173.714 99.8806C173.714 99.8795 173.714 99.8784 173.714 99.8773C173.714 99.8763 173.714 99.8752 173.714 99.8741C173.714 99.873 173.714 99.8719 173.714 99.8709C173.714 99.8698 173.714 99.8687 173.714 99.8676C173.714 99.8665 173.714 99.8655 173.714 99.8644C173.714 99.8633 173.714 99.8622 173.714 99.8611C173.714 99.86 173.714 99.859 173.714 99.8579C173.714 99.8568 173.714 99.8557 173.714 99.8546C173.714 99.8535 173.714 99.8525 173.714 99.8514C173.714 99.8503 173.714 99.8492 173.714 99.8481C173.714 99.847 173.714 99.8459 173.714 99.8449C173.714 99.8438 173.714 99.8427 173.714 99.8416C173.714 99.8405 173.714 99.8394 173.714 99.8383C173.714 99.8372 173.714 99.8362 173.714 99.8351C173.714 99.834 173.714 99.8329 173.714 99.8318C173.714 99.8307 173.714 99.8296 173.714 99.8285C173.714 99.8274 173.714 99.8263 173.714 99.8252C173.714 99.8242 173.714 99.8231 173.714 99.822C173.714 99.8209 173.714 99.8198 173.714 99.8187C173.714 99.8176 173.714 99.8165 173.714 99.8154C173.714 99.8143 173.714 99.8132 173.714 99.8121C173.714 99.811 173.714 99.8099 173.714 99.8088C173.714 99.8077 173.714 99.8066 173.714 99.8055C173.714 99.8044 173.714 99.8033 173.714 99.8022C173.714 99.8011 173.714 99.8 173.714 99.7989C173.714 99.7978 173.714 99.7967 173.714 99.7956C173.714 99.7945 173.714 99.7934 173.714 99.7923C173.714 99.7912 173.714 99.7901 173.714 99.789C173.714 99.7879 173.714 99.7868 173.714 99.7857C173.714 99.7846 173.714 99.7835 173.714 99.7824C173.714 99.7813 173.714 99.7802 173.714 99.7791C173.714 99.778 173.714 99.7769 173.714 99.7758C173.714 99.7747 173.714 99.7736 173.714 99.7725C173.714 99.7714 173.714 99.7703 173.714 99.7692C173.714 99.768 173.714 99.7669 173.714 99.7658C173.714 99.7647 173.714 99.7636 173.714 99.7625C173.714 99.7614 173.714 99.7603 173.714 99.7592C173.714 99.7581 173.714 99.757 173.714 99.7558C173.714 99.7547 173.714 99.7536 173.714 99.7525C173.714 99.7514 173.714 99.7503 173.714 99.7492C173.714 99.7481 173.714 99.7469 173.714 99.7458C173.714 99.7447 173.714 99.7436 173.714 99.7425C173.714 99.7414 173.714 99.7403 173.714 99.7391C173.714 99.738 173.714 99.7369 173.714 99.7358C173.714 99.7347 173.714 99.7336 173.714 99.7324C173.714 99.7313 173.714 99.7302 173.714 99.7291C173.714 99.728 173.714 99.7269 173.714 99.7257C173.714 99.7246 173.714 99.7235 173.714 99.7224C173.714 99.7213 173.714 99.7201 173.714 99.719C173.714 99.7179 173.714 99.7168 173.714 99.7157C173.714 99.7145 173.714 99.7134 173.714 99.7123C173.714 99.7112 173.714 99.71 173.714 99.7089C173.714 99.7078 173.714 99.7067 173.714 99.7055C173.714 99.7044 173.714 99.7033 173.714 99.7022C173.714 99.701 173.714 99.6999 173.714 99.6988C173.714 99.6977 173.714 99.6965 173.714 99.6954C173.714 99.6943 173.714 99.6932 173.714 99.692C173.714 99.6909 173.714 99.6898 173.714 99.6886C173.714 99.6875 173.714 99.6864 173.714 99.6853C173.714 99.6841 173.714 99.683 173.714 99.6819C173.714 99.6807 173.714 99.6796 173.714 99.6785C173.714 99.6773 173.714 99.6762 173.714 99.6751C173.714 99.6739 173.714 99.6728 173.714 99.6717C173.714 99.6705 173.714 99.6694 173.714 99.6683C173.714 99.6671 173.714 99.666 173.714 99.6649C173.714 99.6637 173.714 99.6626 173.714 99.6615C173.714 99.6603 173.714 99.6592 173.714 99.6581C173.714 99.6569 173.714 99.6558 173.714 99.6546C173.714 99.6535 173.714 99.6524 173.714 99.6512C173.714 99.6501 173.714 99.649 173.714 99.6478C173.714 99.6467 173.714 99.6455 173.714 99.6444C173.714 99.6433 173.714 99.6421 173.714 99.641C173.714 99.6398 173.714 99.6387 173.714 99.6375C173.714 99.6364 173.714 99.6353 173.714 99.6341C173.714 99.633 173.714 99.6318 173.714 99.6307C173.714 99.6295 173.714 99.6284 173.714 99.6273C173.714 99.6261 173.714 99.625 173.714 99.6238C173.714 99.6227 173.714 99.6215 173.714 99.6204C173.714 99.6192 173.714 99.6181 173.714 99.6169C173.714 99.6158 173.714 99.6146 173.714 99.6135C173.714 99.6123 173.714 99.6112 173.714 99.6101C173.714 99.6089 173.714 99.6078 173.714 99.6066C173.714 99.6055 173.714 99.6043 173.714 99.6031C173.714 99.602 173.714 99.6008 173.714 99.5997C173.714 99.5985 173.714 99.5974 173.714 99.5962C173.714 99.5951 173.714 99.5939 173.714 99.5928C173.714 99.5916 173.714 99.5905 173.714 99.5893C173.714 99.5882 173.714 99.587 173.714 99.5859C173.714 99.5847 173.714 99.5835 173.714 99.5824C173.714 99.5812 173.714 99.5801 173.714 99.5789C173.714 99.5778 173.714 99.5766 173.714 99.5754C173.714 99.5743 173.714 99.5731 173.714 99.572C173.714 99.5708 173.714 99.5696 173.714 99.5685C173.714 99.5673 173.714 99.5662 173.714 99.565C173.714 99.5638 173.714 99.5627 173.714 99.5615C173.714 99.5604 173.714 99.5592 173.714 99.558C173.714 99.5569 173.714 99.5557 173.714 99.5545C173.714 99.5534 173.714 99.5522 173.714 99.5511C173.714 99.5499 173.714 99.5487 173.714 99.5476C173.714 99.5464 173.714 99.5452 173.714 99.5441C173.714 99.5429 173.714 99.5417 173.714 99.5406C173.714 99.5394 173.714 99.5382 173.714 99.5371C173.714 99.5359 173.714 99.5347 173.714 99.5336C173.714 99.5324 173.714 99.5312 173.714 99.53C173.714 99.5289 173.714 99.5277 173.714 99.5265C173.714 99.5254 173.714 99.5242 173.714 99.523C173.714 99.5218 173.714 99.5207 173.714 99.5195C173.714 99.5183 173.714 99.5172 173.714 99.516C173.714 99.5148 173.714 99.5136 173.714 99.5125C173.714 99.5113 173.714 99.5101 173.714 99.5089C173.714 99.5078 173.714 99.5066 173.714 99.5054C173.714 99.5042 173.714 99.5031 173.714 99.5019C173.714 99.5007 173.714 99.4995 173.714 99.4984C173.714 99.4972 173.714 99.496 173.714 99.4948C173.714 99.4936 173.714 99.4925 173.714 99.4913C173.714 99.4901 173.714 99.4889 173.714 99.4877C173.714 99.4866 173.714 99.4854 173.714 99.4842C173.714 99.483 173.714 99.4818 173.714 99.4807C173.714 99.4795 173.714 99.4783 173.714 99.4771C173.714 99.4759 173.714 99.4747 173.714 99.4736C173.714 99.4724 173.714 99.4712 173.714 99.47H171.714C171.714 99.4712 171.714 99.4724 171.714 99.4736C171.714 99.4747 171.714 99.4759 171.714 99.4771C171.714 99.4783 171.714 99.4795 171.714 99.4807C171.714 99.4818 171.714 99.483 171.714 99.4842C171.714 99.4854 171.714 99.4866 171.714 99.4877C171.714 99.4889 171.714 99.4901 171.714 99.4913C171.714 99.4925 171.714 99.4936 171.714 99.4948C171.714 99.496 171.714 99.4972 171.714 99.4984C171.714 99.4995 171.714 99.5007 171.714 99.5019C171.714 99.5031 171.714 99.5042 171.714 99.5054C171.714 99.5066 171.714 99.5078 171.714 99.5089C171.714 99.5101 171.714 99.5113 171.714 99.5125C171.714 99.5136 171.714 99.5148 171.714 99.516C171.714 99.5172 171.714 99.5183 171.714 99.5195C171.714 99.5207 171.714 99.5218 171.714 99.523C171.714 99.5242 171.714 99.5254 171.714 99.5265C171.714 99.5277 171.714 99.5289 171.714 99.53C171.714 99.5312 171.714 99.5324 171.714 99.5336C171.714 99.5347 171.714 99.5359 171.714 99.5371C171.714 99.5382 171.714 99.5394 171.714 99.5406C171.714 99.5417 171.714 99.5429 171.714 99.5441C171.714 99.5452 171.714 99.5464 171.714 99.5476C171.714 99.5487 171.714 99.5499 171.714 99.5511C171.714 99.5522 171.714 99.5534 171.714 99.5545C171.714 99.5557 171.714 99.5569 171.714 99.558C171.714 99.5592 171.714 99.5604 171.714 99.5615C171.714 99.5627 171.714 99.5638 171.714 99.565C171.714 99.5662 171.714 99.5673 171.714 99.5685C171.714 99.5696 171.714 99.5708 171.714 99.572C171.714 99.5731 171.714 99.5743 171.714 99.5754C171.714 99.5766 171.714 99.5778 171.714 99.5789C171.714 99.5801 171.714 99.5812 171.714 99.5824C171.714 99.5835 171.714 99.5847 171.714 99.5859C171.714 99.587 171.714 99.5882 171.714 99.5893C171.714 99.5905 171.714 99.5916 171.714 99.5928C171.714 99.5939 171.714 99.5951 171.714 99.5962C171.714 99.5974 171.714 99.5985 171.714 99.5997C171.714 99.6008 171.714 99.602 171.714 99.6031C171.714 99.6043 171.714 99.6055 171.714 99.6066C171.714 99.6078 171.714 99.6089 171.714 99.6101C171.714 99.6112 171.714 99.6123 171.714 99.6135C171.714 99.6146 171.714 99.6158 171.714 99.6169C171.714 99.6181 171.714 99.6192 171.714 99.6204C171.714 99.6215 171.714 99.6227 171.714 99.6238C171.714 99.625 171.714 99.6261 171.714 99.6273C171.714 99.6284 171.714 99.6295 171.714 99.6307C171.714 99.6318 171.714 99.633 171.714 99.6341C171.714 99.6353 171.714 99.6364 171.714 99.6375C171.714 99.6387 171.714 99.6398 171.714 99.641C171.714 99.6421 171.714 99.6433 171.714 99.6444C171.714 99.6455 171.714 99.6467 171.714 99.6478C171.714 99.649 171.714 99.6501 171.714 99.6512C171.714 99.6524 171.714 99.6535 171.714 99.6546C171.714 99.6558 171.714 99.6569 171.714 99.6581C171.714 99.6592 171.714 99.6603 171.714 99.6615C171.714 99.6626 171.714 99.6637 171.714 99.6649C171.714 99.666 171.714 99.6671 171.714 99.6683C171.714 99.6694 171.714 99.6705 171.714 99.6717C171.714 99.6728 171.714 99.6739 171.714 99.6751C171.714 99.6762 171.714 99.6773 171.714 99.6785C171.714 99.6796 171.714 99.6807 171.714 99.6819C171.714 99.683 171.714 99.6841 171.714 99.6853C171.714 99.6864 171.714 99.6875 171.714 99.6886C171.714 99.6898 171.714 99.6909 171.714 99.692C171.714 99.6932 171.714 99.6943 171.714 99.6954C171.714 99.6965 171.714 99.6977 171.714 99.6988C171.714 99.6999 171.714 99.701 171.714 99.7022C171.714 99.7033 171.714 99.7044 171.714 99.7055C171.714 99.7067 171.714 99.7078 171.714 99.7089C171.714 99.71 171.714 99.7112 171.714 99.7123C171.714 99.7134 171.714 99.7145 171.714 99.7157C171.714 99.7168 171.714 99.7179 171.714 99.719C171.714 99.7201 171.714 99.7213 171.714 99.7224C171.714 99.7235 171.714 99.7246 171.714 99.7257C171.714 99.7269 171.714 99.728 171.714 99.7291C171.714 99.7302 171.714 99.7313 171.714 99.7324C171.714 99.7336 171.714 99.7347 171.714 99.7358C171.714 99.7369 171.714 99.738 171.714 99.7391C171.714 99.7403 171.714 99.7414 171.714 99.7425C171.714 99.7436 171.714 99.7447 171.714 99.7458C171.714 99.7469 171.714 99.7481 171.714 99.7492C171.714 99.7503 171.714 99.7514 171.714 99.7525C171.714 99.7536 171.714 99.7547 171.714 99.7558C171.714 99.757 171.714 99.7581 171.714 99.7592C171.714 99.7603 171.714 99.7614 171.714 99.7625C171.714 99.7636 171.714 99.7647 171.714 99.7658C171.714 99.7669 171.714 99.768 171.714 99.7692C171.714 99.7703 171.714 99.7714 171.714 99.7725C171.714 99.7736 171.714 99.7747 171.714 99.7758C171.714 99.7769 171.714 99.778 171.714 99.7791C171.714 99.7802 171.714 99.7813 171.714 99.7824C171.714 99.7835 171.714 99.7846 171.714 99.7857C171.714 99.7868 171.714 99.7879 171.714 99.789C171.714 99.7901 171.714 99.7912 171.714 99.7923C171.714 99.7934 171.714 99.7945 171.714 99.7956C171.714 99.7967 171.714 99.7978 171.714 99.7989C171.714 99.8 171.714 99.8011 171.714 99.8022C171.714 99.8033 171.714 99.8044 171.714 99.8055C171.714 99.8066 171.714 99.8077 171.714 99.8088C171.714 99.8099 171.714 99.811 171.714 99.8121C171.714 99.8132 171.714 99.8143 171.714 99.8154C171.714 99.8165 171.714 99.8176 171.714 99.8187C171.714 99.8198 171.714 99.8209 171.714 99.822C171.714 99.8231 171.714 99.8242 171.714 99.8252C171.714 99.8263 171.714 99.8274 171.714 99.8285C171.714 99.8296 171.714 99.8307 171.714 99.8318C171.714 99.8329 171.714 99.834 171.714 99.8351C171.714 99.8362 171.714 99.8372 171.714 99.8383C171.714 99.8394 171.714 99.8405 171.714 99.8416C171.714 99.8427 171.714 99.8438 171.714 99.8449C171.714 99.8459 171.714 99.847 171.714 99.8481C171.714 99.8492 171.714 99.8503 171.714 99.8514C171.714 99.8525 171.714 99.8535 171.714 99.8546C171.714 99.8557 171.714 99.8568 171.714 99.8579C171.714 99.859 171.714 99.86 171.714 99.8611C171.714 99.8622 171.714 99.8633 171.714 99.8644C171.714 99.8655 171.714 99.8665 171.714 99.8676C171.714 99.8687 171.714 99.8698 171.714 99.8709C171.714 99.8719 171.714 99.873 171.714 99.8741C171.714 99.8752 171.714 99.8763 171.714 99.8773C171.714 99.8784 171.714 99.8795 171.714 99.8806C171.714 99.8816 171.714 99.8827 171.714 99.8838C171.714 99.8849 171.714 99.886 171.714 99.887C171.714 99.8881 171.714 99.8892 171.714 99.8903C171.714 99.8913 171.714 99.8924 171.714 99.8935C171.714 99.8945 171.714 99.8956 171.714 99.8967C171.714 99.8978 171.714 99.8988 171.714 99.8999C171.714 99.901 171.714 99.9021 171.714 99.9031C171.714 99.9042 171.714 99.9053 171.714 99.9063C171.714 99.9074 171.714 99.9085 171.714 99.9095C171.714 99.9106 171.714 99.9117 171.714 99.9128C171.714 99.9138 171.714 99.9149 171.714 99.916C171.714 99.917 171.714 99.9181 171.714 99.9192C171.714 99.9202 171.714 99.9213 171.714 99.9224C171.714 99.9234 171.714 99.9245 171.714 99.9255C171.714 99.9266 171.714 99.9277 171.714 99.9287C171.714 99.9298 171.714 99.9309 171.714 99.9319C171.714 99.933 171.714 99.9341 171.714 99.9351C171.714 99.9362 171.714 99.9372 171.714 99.9383C171.714 99.9394 171.714 99.9404 171.714 99.9415C171.714 99.9425 171.714 99.9436 171.714 99.9447C171.714 99.9457 171.714 99.9468 171.714 99.9478C171.714 99.9489 171.714 99.95 171.714 99.951C171.714 99.9521 171.714 99.9531 171.714 99.9542C171.714 99.9552 171.714 99.9563 171.714 99.9574C171.714 99.9584 171.714 99.9595 171.714 99.9605C171.714 99.9616 171.714 99.9626 171.714 99.9637C171.714 99.9647 171.714 99.9658 171.714 99.9668C171.714 99.9679 171.714 99.969 171.714 99.97C171.714 99.9711 171.714 99.9721 171.714 99.9732C171.714 99.9742 171.714 99.9753 171.714 99.9763C171.714 99.9774 171.714 99.9784 171.714 99.9795C171.714 99.9805 171.714 99.9816 171.714 99.9826C171.714 99.9837 171.714 99.9847 171.714 99.9858C171.714 99.9868 171.714 99.9879 171.714 99.9889C171.714 99.9899 171.714 99.991 171.714 99.992C171.714 99.9931 171.714 99.9941 171.714 99.9952C171.714 99.9962 171.714 99.9973 171.714 99.9983C171.714 99.9994 171.714 100 171.714 100.001C171.714 100.002 171.714 100.004 171.714 100.005C171.714 100.006 171.714 100.007 171.714 100.008C171.714 100.009 171.714 100.01 171.714 100.011C171.714 100.012 171.714 100.013 171.714 100.014C171.714 100.015 171.714 100.016 171.714 100.017C171.714 100.018 171.714 100.019 171.714 100.02C171.714 100.021 171.714 100.022 171.714 100.023C171.714 100.024 171.714 100.025 171.714 100.026C171.714 100.027 171.714 100.028 171.714 100.03C171.714 100.031 171.714 100.032 171.714 100.033C171.714 100.034 171.714 100.035 171.714 100.036C171.714 100.037 171.714 100.038 171.714 100.039C171.714 100.04 171.714 100.041 171.714 100.042C171.714 100.043 171.714 100.044 171.714 100.045C171.714 100.046 171.714 100.047 171.714 100.048C171.714 100.049 171.714 100.05 171.714 100.051C171.714 100.052 171.714 100.053 171.714 100.054C171.714 100.055 171.714 100.056 171.714 100.057C171.714 100.058 171.714 100.059 171.714 100.06C171.714 100.061 171.714 100.062 171.714 100.064C171.714 100.065 171.714 100.066 171.714 100.067C171.714 100.068 171.714 100.069 171.714 100.07C171.714 100.071 171.714 100.072 171.714 100.073C171.714 100.074 171.714 100.075 171.714 100.076C171.714 100.077 171.714 100.078 171.714 100.079C171.714 100.08 171.714 100.081 171.714 100.082C171.714 100.083 171.714 100.084 171.714 100.085C171.714 100.086 171.714 100.087 171.714 100.088C171.714 100.089 171.714 100.09 171.714 100.091C171.714 100.092 171.714 100.093 171.714 100.094C171.714 100.095 171.714 100.096 171.714 100.097C171.714 100.098 171.714 100.099 171.714 100.1C171.714 100.101 171.714 100.102 171.714 100.103C171.714 100.104 171.714 100.105 171.714 100.106C171.714 100.107 171.714 100.108 171.714 100.109C171.714 100.11 171.714 100.111 171.714 100.112C171.714 100.113 171.714 100.114 171.714 100.115C171.714 100.116 171.714 100.117 171.714 100.118C171.714 100.119 171.714 100.12 171.714 100.121C171.714 100.122 171.714 100.124 171.714 100.125C171.714 100.126 171.714 100.127 171.714 100.128C171.714 100.129 171.714 100.13 171.714 100.131C171.714 100.132 171.714 100.133 171.714 100.134C171.714 100.135 171.714 100.136 171.714 100.137C171.714 100.138 171.714 100.139 171.714 100.14C171.714 100.141 171.714 100.142 171.714 100.143C171.714 100.144 171.714 100.145 171.714 100.146C171.714 100.147 171.714 100.148 171.714 100.149C171.714 100.15 171.714 100.151 171.714 100.152C171.714 100.153 171.714 100.154 171.714 100.155C171.714 100.156 171.714 100.157 171.714 100.158C171.714 100.159 171.714 100.16 171.714 100.161C171.714 100.162 171.714 100.163 171.714 100.164C171.714 100.165 171.714 100.166 171.714 100.167C171.714 100.168 171.714 100.169 171.714 100.17C171.714 100.171 171.714 100.172 171.714 100.173C171.714 100.174 171.714 100.175 171.714 100.176C171.714 100.177 171.714 100.178 171.714 100.178C171.714 100.179 171.714 100.18 171.714 100.181C171.714 100.182 171.714 100.183 171.714 100.184C171.714 100.185 171.714 100.186 171.714 100.187C171.714 100.188 171.714 100.189 171.714 100.19C171.714 100.191 171.714 100.192 171.714 100.193C171.714 100.194 171.714 100.195 171.714 100.196C171.714 100.197 171.714 100.198 171.714 100.199C171.714 100.2 171.714 100.201 171.714 100.202C171.714 100.203 171.714 100.204 171.714 100.205C171.714 100.206 171.714 100.207 171.714 100.208C171.714 100.209 171.714 100.21 171.714 100.211C171.714 100.212 171.714 100.213 171.714 100.214C171.714 100.215 171.714 100.216 171.714 100.217C171.714 100.218 171.714 100.219 171.714 100.22C171.714 100.221 171.714 100.222 171.714 100.223C171.714 100.224 171.714 100.225 171.714 100.226C171.714 100.227 171.714 100.228 171.714 100.229C171.714 100.23 171.714 100.231 171.714 100.232C171.714 100.233 171.714 100.234 171.714 100.235C171.714 100.236 171.714 100.236 171.714 100.237C171.714 100.238 171.714 100.239 171.714 100.24C171.714 100.241 171.714 100.242 171.714 100.243C171.714 100.244 171.714 100.245 171.714 100.246C171.714 100.247 171.714 100.248 171.714 100.249C171.714 100.25 171.714 100.251 171.714 100.252C171.714 100.253 171.714 100.254 171.714 100.255C171.714 100.256 171.714 100.257 171.714 100.258C171.714 100.259 171.714 100.26 171.714 100.261C171.714 100.262 171.714 100.263 171.714 100.264C171.714 100.265 171.714 100.266 171.714 100.267C171.714 100.268 171.714 100.268 171.714 100.269C171.714 100.27 171.714 100.271 171.714 100.272C171.714 100.273 171.714 100.274 171.714 100.275C171.714 100.276 171.714 100.277 171.714 100.278C171.714 100.279 171.714 100.28 171.714 100.281C171.714 100.282 171.714 100.283 171.714 100.284C171.714 100.285 171.714 100.286 171.714 100.287C171.714 100.288 171.714 100.289 171.714 100.29C171.714 100.291 171.714 100.292 171.714 100.292C171.714 100.293 171.714 100.294 171.714 100.295C171.714 100.296 171.714 100.297 171.714 100.298C171.714 100.299 171.714 100.3 171.714 100.301C171.714 100.302 171.714 100.303 171.714 100.304C171.714 100.305 171.714 100.306 171.714 100.307C171.714 100.308 171.714 100.309 171.714 100.31C171.714 100.311 171.714 100.312 171.714 100.313C171.714 100.313 171.714 100.314 171.714 100.315C171.714 100.316 171.714 100.317 171.714 100.318C171.714 100.319 171.714 100.32 171.714 100.321C171.714 100.322 171.714 100.323 171.714 100.324C171.714 100.325 171.714 100.326 171.714 100.327C171.714 100.328 171.714 100.329 171.714 100.33C171.714 100.331 171.714 100.331 171.714 100.332C171.714 100.333 171.714 100.334 171.714 100.335C171.714 100.336 171.714 100.337 171.714 100.338C171.714 100.339 171.714 100.34 171.714 100.341C171.714 100.342 171.714 100.343 171.714 100.344C171.714 100.345 171.714 100.346 171.714 100.347C171.714 100.348 171.714 100.348 171.714 100.349C171.714 100.35 171.714 100.351 171.714 100.352C171.714 100.353 171.714 100.354 171.714 100.355C171.714 100.356 171.714 100.357 171.714 100.358C171.714 100.359 171.714 100.36 171.714 100.361C171.714 100.362 171.714 100.363 171.714 100.363C171.714 100.364 171.714 100.365 171.714 100.366C171.714 100.367 171.714 100.368 171.714 100.369C171.714 100.37 171.714 100.371 171.714 100.372C171.714 100.373 171.714 100.374 171.714 100.375C171.714 100.376 171.714 100.377 171.714 100.377C171.714 100.378 171.714 100.379 171.714 100.38C171.714 100.381 171.714 100.382 171.714 100.383C171.714 100.384 171.714 100.385 171.714 100.386C171.714 100.387 171.714 100.388 171.714 100.389C171.714 100.39 171.714 100.39 171.714 100.391C171.714 100.392 171.714 100.393 171.714 100.394C171.714 100.395 171.714 100.396 171.714 100.397C171.714 100.398 171.714 100.399 171.714 100.4C171.714 100.401 171.714 100.402 171.714 100.402C171.714 100.403 171.714 100.404 171.714 100.405C171.714 100.406 171.714 100.407 171.714 100.408C171.714 100.409 171.714 100.41 171.714 100.411C171.714 100.412 171.714 100.413 171.714 100.413C171.714 100.414 171.714 100.415 171.714 100.416C171.714 100.417 171.714 100.418 171.714 100.419C171.714 100.42 171.714 100.421 171.714 100.422C171.714 100.423 171.714 100.424 171.714 100.424C171.714 100.425 171.714 100.426 171.714 100.427C171.714 100.428 171.714 100.429 171.714 100.43C171.714 100.431 171.714 100.432 171.714 100.433C171.714 100.434 171.714 100.435 171.714 100.435C171.714 100.436 171.714 100.437 171.714 100.438C171.714 100.439 171.714 100.44 171.714 100.441C171.714 100.442 171.714 100.443 171.714 100.444C171.714 100.445 171.714 100.445 171.714 100.446C171.714 100.447 171.714 100.448 171.714 100.449C171.714 100.45 171.714 100.451 171.714 100.452C171.714 100.453 171.714 100.454 171.714 100.455C171.714 100.455 171.714 100.456 171.714 100.457C171.714 100.458 171.714 100.459 171.714 100.46C171.714 100.461 171.714 100.462 171.714 100.463C171.714 100.464 171.714 100.464 171.714 100.465C171.714 100.466 171.714 100.467 171.714 100.468C171.714 100.469 171.714 100.47 171.714 100.471C171.714 100.472 171.714 100.473 171.714 100.473C171.714 100.474 171.714 100.475 171.714 100.476C171.714 100.477 171.714 100.478 171.714 100.479C171.714 100.48 171.714 100.481 171.714 100.482C171.714 100.482 171.714 100.483 171.714 100.484C171.714 100.485 171.714 100.486 171.714 100.487C171.714 100.488 171.714 100.489 171.714 100.49C171.714 100.491 171.714 100.491 171.714 100.492C171.714 100.493 171.714 100.494 171.714 100.495C171.714 100.496 171.714 100.497 171.714 100.498C171.714 100.499 171.714 100.499 171.714 100.5C171.714 100.501 171.714 100.502 171.714 100.503C171.714 100.504 171.714 100.505 171.714 100.506C171.714 100.507 171.714 100.507 171.714 100.508C171.714 100.509 171.714 100.51 171.714 100.511C171.714 100.512 171.714 100.513 171.714 100.514C171.714 100.515 171.714 100.515 171.714 100.516C171.714 100.517 171.714 100.518 171.714 100.519C171.714 100.52 171.714 100.521 171.714 100.522C171.714 100.522 171.714 100.523 171.714 100.524C171.714 100.525 171.714 100.526 171.714 100.527C171.714 100.528 171.714 100.529 171.714 100.53C171.714 100.53 171.714 100.531 171.714 100.532C171.714 100.533 171.714 100.534 171.714 100.535C171.714 100.536 171.714 100.537 171.714 100.537C171.714 100.538 171.714 100.539 171.714 100.54C171.714 100.541 171.714 100.542 171.714 100.543C171.714 100.544 171.714 100.544 171.714 100.545C171.714 100.546 171.714 100.547 171.714 100.548C171.714 100.549 171.714 100.55 171.714 100.551C171.714 100.551 171.714 100.552 171.714 100.553C171.714 100.554 171.714 100.555 171.714 100.556C171.714 100.557 171.714 100.558 171.714 100.558C171.714 100.559 171.714 100.56 171.714 100.561C171.714 100.562 171.714 100.563 171.714 100.564C171.714 100.565 171.714 100.565 171.714 100.566C171.714 100.567 171.714 100.568 171.714 100.569C171.714 100.57 171.714 100.571 171.714 100.571C171.714 100.572 171.714 100.573 171.714 100.574C171.714 100.575 171.714 100.576 171.714 100.577C171.714 100.578 171.714 100.578 171.714 100.579C171.714 100.58 171.714 100.581 171.714 100.582C171.714 100.583 171.714 100.584 171.714 100.584C171.714 100.585 171.714 100.586 171.714 100.587C171.714 100.588 171.714 100.589 171.714 100.59C171.714 100.59 171.714 100.591 171.714 100.592C171.714 100.593 171.714 100.594 171.714 100.595C171.714 100.596 171.714 100.596 171.714 100.597C171.714 100.598 171.714 100.599 171.714 100.6C171.714 100.601 171.714 100.602 171.714 100.602C171.714 100.603 171.714 100.604 171.714 100.605C171.714 100.606 171.714 100.607 171.714 100.608C171.714 100.608 171.714 100.609 171.714 100.61C171.714 100.611 171.714 100.612 171.714 100.613C171.714 100.614 171.714 100.614 171.714 100.615C171.714 100.616 171.714 100.617 171.714 100.618C171.714 100.619 171.714 100.62 171.714 100.62C171.714 100.621 171.714 100.622 171.714 100.623C171.714 100.624 171.714 100.625 171.714 100.625C171.714 100.626 171.714 100.627 171.714 100.628C171.714 100.629 171.714 100.63 171.714 100.631C171.714 100.631 171.714 100.632 171.714 100.633C171.714 100.634 171.714 100.635 171.714 100.636C171.714 100.636 171.714 100.637 171.714 100.638C171.714 100.639 171.714 100.64 171.714 100.641C171.714 100.641 171.714 100.642 171.714 100.643C171.714 100.644 171.714 100.645 171.714 100.646C171.714 100.647 171.714 100.647 171.714 100.648C171.714 100.649 171.714 100.65 171.714 100.651C171.714 100.652 171.714 100.652 171.714 100.653C171.714 100.654 171.714 100.655 171.714 100.656C171.714 100.657 171.714 100.657 171.714 100.658C171.714 100.659 171.714 100.66 171.714 100.661C171.714 100.662 171.714 100.662 171.714 100.663C171.714 100.664 171.714 100.665 171.714 100.666C171.714 100.667 171.714 100.667 171.714 100.668C171.714 100.669 171.714 100.67 171.714 100.671C171.714 100.672 171.714 100.672 171.714 100.673C171.714 100.674 171.714 100.675 171.714 100.676C171.714 100.677 171.714 100.677 171.714 100.678C171.714 100.679 171.714 100.68 171.714 100.681C171.714 100.682 171.714 100.682 171.714 100.683C171.714 100.684 171.714 100.685 171.714 100.686C171.714 100.687 171.714 100.687 171.714 100.688C171.714 100.689 171.714 100.69 171.714 100.691C171.714 100.691 171.714 100.692 171.714 100.693C171.714 100.694 171.714 100.695 171.714 100.696C171.714 100.696 171.714 100.697 171.714 100.698C171.714 100.699 171.714 100.7 171.714 100.701C171.714 100.701 171.714 100.702 171.714 100.703C171.714 100.704 171.714 100.705 171.714 100.705C171.714 100.706 171.714 100.707 171.714 100.708C171.714 100.709 171.714 100.71 171.714 100.71C171.714 100.711 171.714 100.712 171.714 100.713C171.714 100.714 171.714 100.714 171.714 100.715C171.714 100.716 171.714 100.717 171.714 100.718C171.714 100.719 171.714 100.719 171.714 100.72C171.714 100.721 171.714 100.722 171.714 100.723C171.714 100.723 171.714 100.724 171.714 100.725C171.714 100.726 171.714 100.727 171.714 100.727C171.714 100.728 171.714 100.729 171.714 100.73C171.714 100.731 171.714 100.732 171.714 100.732C171.714 100.733 171.714 100.734 171.714 100.735C171.714 100.736 171.714 100.736 171.714 100.737C171.714 100.738 171.714 100.739 171.714 100.74C171.714 100.74 171.714 100.741 171.714 100.742C171.714 100.743 171.714 100.744 171.714 100.744C171.714 100.745 171.714 100.746 171.714 100.747C171.714 100.748 171.714 100.748 171.714 100.749C171.714 100.75 171.714 100.751 171.714 100.752C171.714 100.752 171.714 100.753 171.714 100.754C171.714 100.755 171.714 100.756 171.714 100.756C171.714 100.757 171.714 100.758 171.714 100.759C171.714 100.76 171.714 100.76 171.714 100.761C171.714 100.762 171.714 100.763 171.714 100.764C171.714 100.764 171.714 100.765 171.714 100.766C171.714 100.767 171.714 100.768 171.714 100.768C171.714 100.769 171.714 100.77 171.714 100.771C171.714 100.772 171.714 100.772 171.714 100.773C171.714 100.774 171.714 100.775 171.714 100.776C171.714 100.776 171.714 100.777 171.714 100.778C171.714 100.779 171.714 100.78 171.714 100.78C171.714 100.781 171.714 100.782 171.714 100.783C171.714 100.783 171.714 100.784 171.714 100.785C171.714 100.786 171.714 100.787 171.714 100.787C171.714 100.788 171.714 100.789 171.714 100.79C171.714 100.791 171.714 100.791 171.714 100.792C171.714 100.793 171.714 100.794 171.714 100.795C171.714 100.795 171.714 100.796 171.714 100.797C171.714 100.798 171.714 100.798 171.714 100.799C171.714 100.8 171.714 100.801 171.714 100.802C171.714 100.802 171.714 100.803 171.714 100.804C171.714 100.805 171.714 100.806 171.714 100.806C171.714 100.807 171.714 100.808 171.714 100.809C171.714 100.809 171.714 100.81 171.714 100.811C171.714 100.812 171.714 100.813 171.714 100.813C171.714 100.814 171.714 100.815 171.714 100.816C171.714 100.816 171.714 100.817 171.714 100.818C171.714 100.819 171.714 100.82 171.714 100.82C171.714 100.821 171.714 100.822 171.714 100.823C171.714 100.823 171.714 100.824 171.714 100.825C171.714 100.826 171.714 100.827 171.714 100.827C171.714 100.828 171.714 100.829 171.714 100.83C171.714 100.83 171.714 100.831 171.714 100.832C171.714 100.833 171.714 100.833 171.714 100.834C171.714 100.835 171.714 100.836 171.714 100.837C171.714 100.837 171.714 100.838 171.714 100.839C171.714 100.84 171.714 100.84 171.714 100.841C171.714 100.842 171.714 100.843 171.714 100.843C171.714 100.844 171.714 100.845 171.714 100.846C171.714 100.847 171.714 100.847 171.714 100.848C171.714 100.849 171.714 100.85 171.714 100.85C171.714 100.851 171.714 100.852 171.714 100.853C171.714 100.853 171.714 100.854 171.714 100.855C171.714 100.856 171.714 100.856 171.714 100.857C171.714 100.858 171.714 100.859 171.714 100.86C171.714 100.86 171.714 100.861 171.714 100.862C171.714 100.863 171.714 100.863 171.714 100.864C171.714 100.865 171.714 100.866 171.714 100.866C171.714 100.867 171.714 100.868 171.714 100.869C171.714 100.869 171.714 100.87 171.714 100.871C171.714 100.872 171.714 100.872 171.714 100.873C171.714 100.874 171.714 100.875 171.714 100.875C171.714 100.876 171.714 100.877 171.714 100.878C171.714 100.878 171.714 100.879 171.714 100.88C171.714 100.881 171.714 100.881 171.714 100.882C171.714 100.883 171.714 100.884 171.714 100.884C171.714 100.885 171.714 100.886 171.714 100.887C171.714 100.887 171.714 100.888 171.714 100.889C171.714 100.89 171.714 100.89 171.714 100.891C171.714 100.892 171.714 100.893 171.714 100.893C171.714 100.894 171.714 100.895 171.714 100.896C171.714 100.896 171.714 100.897 171.714 100.898C171.714 100.899 171.714 100.899 171.714 100.9C171.714 100.901 171.714 100.902 171.714 100.902C171.714 100.903 171.714 100.904 171.714 100.905C171.714 100.905 171.714 100.906 171.714 100.907C171.714 100.908 171.714 100.908 171.714 100.909C171.714 100.91 171.714 100.911 171.714 100.911C171.714 100.912 171.714 100.913 171.714 100.914C171.714 100.914 171.714 100.915 171.714 100.916C171.714 100.917 171.714 100.917 171.714 100.918C171.714 100.919 171.714 100.919 171.714 100.92C171.714 100.921 171.714 100.922 171.714 100.922C171.714 100.923 171.714 100.924 171.714 100.925C171.714 100.925 171.714 100.926 171.714 100.927C171.714 100.928 171.714 100.928 171.714 100.929C171.714 100.93 171.714 100.93 171.714 100.931C171.714 100.932 171.714 100.933 171.714 100.933C171.714 100.934 171.714 100.935 171.714 100.936C171.714 100.936 171.714 100.937 171.714 100.938C171.714 100.939 171.714 100.939 171.714 100.94H173.714ZM173.713 99.5084C173.736 98.9023 173.76 98.3078 173.783 97.725L171.785 97.645C171.761 98.2289 171.738 98.8244 171.715 99.4316L173.713 99.5084ZM173.783 97.7234C173.806 97.1196 173.829 96.6802 173.851 96.3967L171.857 96.2433C171.832 96.5664 171.808 97.037 171.785 97.6466L173.783 97.7234ZM172.01 95.7832L162.035 111.463L163.723 112.537L173.698 96.8568L172.01 95.7832ZM162.879 111H159.064V113H162.879V111ZM160.064 112V93.24H158.064V112H160.064ZM159.064 94.24H161.969V92.24H159.064V94.24ZM160.969 93.24V104.685H162.969V93.24H160.969ZM182.709 112V113H183.253L183.548 112.544L182.709 112ZM179.139 112L178.312 111.438L177.25 113H179.139V112ZM184.494 104.125L185.321 104.687L186.12 103.512L184.744 103.157L184.494 104.125ZM182.394 103.25L181.867 104.1L181.877 104.106L181.888 104.113L182.394 103.25ZM180.749 101.535L179.877 102.025L179.884 102.037L180.749 101.535ZM181.939 94.675L182.549 95.4677L182.558 95.4603L181.939 94.675ZM195.169 93.24H196.169V92.24H195.169V93.24ZM195.169 112V113H196.169V112H195.169ZM192.089 112H191.089V113H192.089V112ZM192.089 104.545H193.089V103.545H192.089V104.545ZM187.539 104.545V103.545H186.995L186.7 104.001L187.539 104.545ZM184.284 101.22L183.724 102.048L183.738 102.058L183.752 102.067L184.284 101.22ZM192.089 101.99V102.99H193.089V101.99H192.089ZM192.089 95.795H193.089V94.795H192.089V95.795ZM184.004 96.635L183.34 95.8876L183.333 95.8938L183.326 95.9002L184.004 96.635ZM182.709 111H179.139V113H182.709V111ZM179.966 112.562L185.321 104.687L183.667 103.563L178.312 111.438L179.966 112.562ZM184.744 103.157C184.115 102.994 183.501 102.739 182.9 102.387L181.888 104.113C182.641 104.554 183.427 104.882 184.244 105.093L184.744 103.157ZM182.921 102.4C182.391 102.071 181.956 101.622 181.614 101.033L179.884 102.037C180.382 102.895 181.044 103.589 181.867 104.1L182.921 102.4ZM181.621 101.045C181.305 100.484 181.119 99.742 181.119 98.77H179.119C179.119 99.9913 179.353 101.093 179.878 102.025L181.621 101.045ZM181.119 98.77C181.119 97.223 181.626 96.1775 182.549 95.4676L181.329 93.8824C179.826 95.0392 179.119 96.7236 179.119 98.77H181.119ZM182.558 95.4603C183.549 94.6795 184.919 94.24 186.769 94.24V92.24C184.605 92.24 182.756 92.7572 181.32 93.8897L182.558 95.4603ZM186.769 94.24H195.169V92.24H186.769V94.24ZM194.169 93.24V112H196.169V93.24H194.169ZM195.169 111H192.089V113H195.169V111ZM193.089 112V104.545H191.089V112H193.089ZM192.089 103.545H187.539V105.545H192.089V103.545ZM186.7 104.001L181.87 111.456L183.548 112.544L188.378 105.089L186.7 104.001ZM182.094 98.805C182.094 100.163 182.619 101.301 183.724 102.048L184.844 100.392C184.363 100.066 184.094 99.5932 184.094 98.805H182.094ZM183.752 102.067C184.789 102.718 186.132 102.99 187.679 102.99V100.99C186.333 100.99 185.413 100.748 184.816 100.373L183.752 102.067ZM187.679 102.99H192.089V100.99H187.679V102.99ZM193.089 101.99V95.795H191.089V101.99H193.089ZM192.089 94.795H187.084V96.795H192.089V94.795ZM187.084 94.795C185.572 94.795 184.243 95.0848 183.34 95.8876L184.668 97.3824C185.025 97.0652 185.75 96.795 187.084 96.795V94.795ZM183.326 95.9002C182.498 96.6646 182.094 97.6624 182.094 98.805H184.094C184.094 98.1743 184.297 97.7254 184.682 97.3698L183.326 95.9002Z" fill="#ED7676"/>
</svg>
