<svg width="200" height="200" viewBox="0 0 200 200" fill="none" xmlns="http://www.w3.org/2000/svg">
<rect width="200" height="200" fill="#FCFCFC"/>
<path d="M5.30012 88.01H8.24012V101.73C8.24012 102.313 8.22845 102.955 8.20512 103.655C8.20512 104.332 8.19345 105.008 8.17012 105.685C8.14678 106.362 8.11178 106.968 8.06512 107.505C8.04178 108.018 8.01845 108.415 7.99512 108.695H8.13512L21.8901 88.01H25.3901V113H22.4501V99.42C22.4501 98.79 22.4618 98.1133 22.4851 97.39C22.5085 96.6433 22.5318 95.9317 22.5551 95.255C22.6018 94.555 22.6368 93.9367 22.6601 93.4C22.6835 92.8633 22.7068 92.4667 22.7301 92.21H22.5901L8.80012 113H5.30012V88.01ZM36.6454 93.89C38.0687 93.89 39.3054 94.0883 40.3554 94.485C41.4054 94.8583 42.222 95.4183 42.8054 96.165C43.3887 96.8883 43.6804 97.775 43.6804 98.825C43.6804 99.9683 43.3654 100.878 42.7354 101.555C42.1054 102.208 41.242 102.687 40.1454 102.99V103.13C40.892 103.34 41.5804 103.632 42.2104 104.005C42.8404 104.378 43.342 104.868 43.7154 105.475C44.112 106.082 44.3104 106.863 44.3104 107.82C44.3104 108.847 44.0187 109.78 43.4354 110.62C42.8754 111.46 42.0004 112.125 40.8104 112.615C39.6437 113.105 38.1387 113.35 36.2954 113.35C35.4087 113.35 34.557 113.303 33.7404 113.21C32.947 113.117 32.2237 112.977 31.5704 112.79C30.9404 112.603 30.3804 112.382 29.8904 112.125V109.36C30.6837 109.733 31.617 110.072 32.6904 110.375C33.787 110.678 34.977 110.83 36.2604 110.83C37.1937 110.83 38.0337 110.725 38.7804 110.515C39.5504 110.305 40.157 109.978 40.6004 109.535C41.0437 109.068 41.2654 108.438 41.2654 107.645C41.2654 106.922 41.067 106.338 40.6704 105.895C40.2737 105.428 39.6787 105.078 38.8854 104.845C38.1154 104.612 37.1237 104.495 35.9104 104.495H33.3904V101.975H35.4204C37.0304 101.975 38.3137 101.765 39.2704 101.345C40.2504 100.902 40.7404 100.155 40.7404 99.105C40.7404 98.2183 40.367 97.5533 39.6204 97.11C38.897 96.6667 37.847 96.445 36.4704 96.445C35.4437 96.445 34.5337 96.55 33.7404 96.76C32.9704 96.9467 32.1187 97.2383 31.1854 97.635L30.1004 95.185C31.1037 94.7417 32.1537 94.415 33.2504 94.205C34.347 93.995 35.4787 93.89 36.6454 93.89ZM68.9936 94.24V113H66.2286V101.03C66.2286 100.54 66.2402 100.027 66.2636 99.49C66.3102 98.9533 66.3569 98.4283 66.4036 97.915H66.2986L60.1736 113H57.5836L51.6336 97.915H51.5286C51.5752 98.4283 51.5986 98.9533 51.5986 99.49C51.6219 100.027 51.6336 100.575 51.6336 101.135V113H48.8686V94.24H52.9636L58.8786 109.325L64.8986 94.24H68.9936ZM82.2268 93.89C83.8368 93.89 85.2135 94.24 86.3568 94.94C87.5235 95.64 88.4102 96.6317 89.0168 97.915C89.6468 99.175 89.9618 100.657 89.9618 102.36V104.215H77.1168C77.1635 106.338 77.7002 107.96 78.7268 109.08C79.7768 110.177 81.2352 110.725 83.1018 110.725C84.2918 110.725 85.3418 110.62 86.2518 110.41C87.1852 110.177 88.1418 109.85 89.1218 109.43V112.125C88.1652 112.545 87.2202 112.848 86.2868 113.035C85.3535 113.245 84.2452 113.35 82.9618 113.35C81.1885 113.35 79.6135 112.988 78.2368 112.265C76.8835 111.542 75.8218 110.468 75.0518 109.045C74.3052 107.598 73.9318 105.837 73.9318 103.76C73.9318 101.707 74.2702 99.945 74.9468 98.475C75.6468 97.005 76.6152 95.8733 77.8518 95.08C79.1118 94.2867 80.5702 93.89 82.2268 93.89ZM82.1918 96.41C80.7218 96.41 79.5552 96.8883 78.6918 97.845C77.8518 98.7783 77.3502 100.085 77.1868 101.765H86.7418C86.7418 100.692 86.5785 99.7583 86.2518 98.965C85.9252 98.1717 85.4235 97.5533 84.7468 97.11C84.0935 96.6433 83.2418 96.41 82.1918 96.41ZM97.8177 94.24V102.045H108.003V94.24H111.083V113H108.003V104.635H97.8177V113H94.7377V94.24H97.8177ZM124.268 93.89C125.878 93.89 127.255 94.24 128.398 94.94C129.565 95.64 130.451 96.6317 131.058 97.915C131.688 99.175 132.003 100.657 132.003 102.36V104.215H119.158C119.205 106.338 119.741 107.96 120.768 109.08C121.818 110.177 123.276 110.725 125.143 110.725C126.333 110.725 127.383 110.62 128.293 110.41C129.226 110.177 130.183 109.85 131.163 109.43V112.125C130.206 112.545 129.261 112.848 128.328 113.035C127.395 113.245 126.286 113.35 125.003 113.35C123.23 113.35 121.655 112.988 120.278 112.265C118.925 111.542 117.863 110.468 117.093 109.045C116.346 107.598 115.973 105.837 115.973 103.76C115.973 101.707 116.311 99.945 116.988 98.475C117.688 97.005 118.656 95.8733 119.893 95.08C121.153 94.2867 122.611 93.89 124.268 93.89ZM124.233 96.41C122.763 96.41 121.596 96.8883 120.733 97.845C119.893 98.7783 119.391 100.085 119.228 101.765H128.783C128.783 100.692 128.62 99.7583 128.293 98.965C127.966 98.1717 127.465 97.5533 126.788 97.11C126.135 96.6433 125.283 96.41 124.233 96.41ZM139.859 94.24V102.045H150.044V94.24H153.124V113H150.044V104.635H139.859V113H136.779V94.24H139.859ZM161.969 105.685C161.969 105.895 161.957 106.198 161.934 106.595C161.934 106.968 161.922 107.377 161.899 107.82C161.876 108.24 161.852 108.648 161.829 109.045C161.806 109.418 161.782 109.722 161.759 109.955L171.804 94.24H175.584V113H172.714V101.94C172.714 101.567 172.714 101.077 172.714 100.47C172.737 99.8633 172.761 99.2683 172.784 98.685C172.807 98.0783 172.831 97.6233 172.854 97.32L162.879 113H159.064V94.24H161.969V105.685ZM182.709 113H179.139L184.494 105.125C183.771 104.938 183.071 104.647 182.394 104.25C181.717 103.83 181.169 103.258 180.749 102.535C180.329 101.788 180.119 100.867 180.119 99.77C180.119 97.9733 180.726 96.6083 181.939 95.675C183.152 94.7183 184.762 94.24 186.769 94.24H195.169V113H192.089V105.545H187.539L182.709 113ZM183.094 99.805C183.094 100.878 183.491 101.683 184.284 102.22C185.101 102.733 186.232 102.99 187.679 102.99H192.089V96.795H187.084C185.661 96.795 184.634 97.075 184.004 97.635C183.397 98.195 183.094 98.9183 183.094 99.805Z" fill="black"/>
</svg>
